<svg xmlns="http://www.w3.org/2000/svg" width="992" height="858" viewBox="0 0 992 858" version="1.1"><path d="M 421.748 561.485 C 418.288 564.531, 413.121 565.987, 405.750 565.994 L 400 566 400 570 L 400 574 425 574 L 450 574 450 570 L 450 566 443.750 565.990 C 437.560 565.981, 428.218 562.781, 426.564 560.103 C 425.595 558.535, 424.860 558.746, 421.748 561.485" stroke="none" fill="#cd7371" fill-rule="evenodd"/><path d="M 400.654 577.750 C 402.095 587.970, 407.570 595.522, 415.829 598.682 C 431.406 604.641, 446.655 595.381, 449.476 578.250 L 450.176 574 425.151 574 L 400.126 574 400.654 577.750 M 360.914 744.094 L 359.500 803.856 364.208 801.292 C 368.632 798.883, 377.292 790.961, 380.379 786.500 C 381.463 784.933, 381.925 776.362, 382.508 747 C 382.917 726.375, 383.565 707.174, 383.948 704.330 C 384.540 699.926, 384.239 698.269, 381.912 693.142 C 379.507 687.844, 378.780 687.059, 375.840 686.575 C 374.003 686.274, 370.211 685.645, 367.414 685.180 L 362.327 684.333 360.914 744.094 M 480 685.666 C 473.501 686.690, 473.003 687.052, 470.233 692.768 L 467.455 698.500 468.216 724 C 468.634 738.025, 469.256 757.712, 469.597 767.749 L 470.217 785.997 475.858 791.827 C 481.227 797.374, 490.517 803.816, 491.595 802.739 C 492.072 802.262, 490.768 742.914, 489.408 703.250 L 488.783 685 485.642 685.136 C 483.914 685.211, 481.375 685.450, 480 685.666" stroke="none" fill="#d99694" fill-rule="evenodd"/><path d="M 363.919 260.597 C 360.476 264.746, 364.323 280.304, 372.783 296.450 L 376.751 304.021 371.625 300.943 C 361.662 294.959, 342.404 286.072, 335.020 284.049 C 326.015 281.582, 317.335 281.377, 314.223 283.557 C 308.434 287.611, 313.442 298.768, 327.064 312.167 C 337.655 322.586, 337.029 323.593, 323.186 318.408 C 299.379 309.491, 286 310.150, 286 320.238 C 286 323.326, 291.039 331.318, 296.585 337.026 L 300.983 341.551 291.997 349.838 C 273.337 367.046, 260.196 387.884, 254.076 409.967 L 252.096 417.112 256.798 419.132 C 264.832 422.582, 289.523 430.640, 312.582 437.335 C 343.504 446.313, 355.882 452.474, 370.533 466.179 C 384.707 479.439, 396.424 499.694, 399.532 516.310 C 400.099 519.338, 400.579 519.971, 401.873 519.396 C 402.768 518.998, 406.648 517.573, 410.496 516.230 C 420.048 512.895, 433.329 513.325, 442.960 517.283 C 450.211 520.262, 450.469 520.134, 451.296 513.147 C 452.217 505.373, 457.697 489.971, 462.649 481.238 C 472.270 464.268, 487.537 449.761, 504.500 441.470 C 513.042 437.295, 520.779 434.865, 552 426.552 C 568.154 422.250, 595.226 414.030, 596.180 413.137 C 597.366 412.027, 591.513 395.715, 586.553 386.307 C 577.462 369.065, 560.768 350.072, 544.506 338.467 C 540.928 335.914, 538 333.518, 538 333.144 C 538 332.770, 539.188 330.716, 540.640 328.579 C 544.317 323.168, 544.899 317.124, 541.996 314.497 C 538.904 311.700, 528.111 311.904, 517.500 314.960 C 508.543 317.540, 507.689 317.607, 503.616 316.050 L 500.733 314.948 506.691 308.724 C 513.194 301.931, 517.428 295.302, 518.475 290.278 C 519.030 287.613, 518.686 286.595, 516.482 284.391 C 513.940 281.849, 513.467 281.752, 506.159 282.276 C 494.664 283.100, 477.175 289.794, 460.869 299.610 C 457.772 301.475, 454.990 303, 454.687 303 C 454.383 303, 456.104 299.140, 458.512 294.422 C 466.580 278.610, 469.615 266.114, 466.531 261.408 C 464.987 259.051, 464.320 258.817, 460.409 259.257 C 457.559 259.579, 453.810 261.192, 449.717 263.859 C 443.725 267.763, 428.339 282.707, 419.199 293.500 L 414.965 298.500 412.233 295.028 C 391.823 269.093, 369.859 253.440, 363.919 260.597 M 93.015 349.891 C 91.648 350.272, 89.859 351.778, 89.040 353.238 C 87.673 355.673, 87.737 356.279, 89.813 360.552 C 91.058 363.114, 93.746 367.219, 95.788 369.675 C 99.907 374.630, 113.006 386.080, 123 393.462 C 126.575 396.103, 128.724 397.998, 127.777 397.673 C 124.017 396.386, 90.855 394.827, 80.500 395.451 C 53.634 397.068, 38.907 404.105, 44.506 412.649 C 50.041 421.097, 66.008 428.780, 91 435.021 C 97.325 436.600, 104.873 438.201, 107.772 438.578 C 110.672 438.955, 113.313 439.698, 113.642 440.229 C 114.022 440.844, 109.567 440.943, 101.369 440.501 C 76.433 439.159, 45.727 443.340, 36.914 449.279 C 29.857 454.035, 30.780 460.543, 39.349 466.434 C 45.152 470.423, 63.723 476.841, 77 479.445 C 81.675 480.362, 86.046 481.291, 86.714 481.511 C 87.547 481.784, 86.802 484.354, 84.339 489.705 C 79.300 500.648, 74.383 515.388, 72.555 525.026 C 68.321 547.346, 73.362 554.607, 88.022 547.302 C 94.362 544.143, 106.206 533.119, 113.976 523.147 C 116.988 519.282, 119.546 516.213, 119.662 516.328 C 119.777 516.443, 119.407 519.904, 118.841 524.019 C 117.149 536.299, 117.511 564.234, 119.481 573.500 C 122.632 588.323, 127.909 596, 134.947 596 C 142.104 596, 152.569 581.489, 159.063 562.562 L 161.829 554.500 163.283 558 C 164.082 559.925, 165.003 566, 165.328 571.500 C 166.318 588.250, 171.527 604.123, 177.602 608.901 C 179.273 610.216, 181.723 611, 184.161 611 C 187.413 611, 188.759 610.293, 192.355 606.698 L 196.657 602.396 206.855 612.147 C 220.545 625.239, 232.674 634.181, 251.657 645.179 C 292.969 669.112, 335.187 681.975, 390.500 687.482 C 405.153 688.940, 442.628 689.152, 457 687.857 C 509.586 683.120, 560.960 668.183, 594.738 647.809 C 610.667 638.202, 621.379 629.682, 635.131 615.682 C 646.861 603.740, 647.860 602.956, 649.131 604.689 C 653.890 611.178, 662.054 613.037, 666.457 608.634 C 672.148 602.943, 676.402 589.636, 678.170 572 C 678.804 565.675, 679.838 559.463, 680.468 558.194 C 681.524 556.071, 681.875 556.583, 684.923 564.694 C 692.445 584.709, 700.989 596, 708.612 596 C 722.028 596, 729.341 564.214, 724.661 526.249 C 723.966 520.610, 723.705 516.335, 724.080 516.749 C 724.456 517.162, 728.180 521.636, 732.355 526.692 C 739.798 535.703, 750.056 545.157, 754.672 547.260 C 757.169 548.398, 757.801 550.002, 755.750 549.997 C 753.824 549.992, 735.998 557.067, 736.017 557.828 C 736.026 558.197, 738.517 559.575, 741.551 560.888 C 747.315 563.384, 757.023 570.308, 763 576.186 C 768.141 581.243, 780 597.780, 780 599.894 C 780 600.412, 781.089 603.010, 782.420 605.668 C 788.504 617.813, 791.658 642.275, 788.994 656.660 C 787.674 663.786, 783.793 674.529, 779.420 683.159 C 778.015 685.931, 777.008 688.300, 777.183 688.423 C 777.357 688.547, 783.350 689.593, 790.500 690.749 C 797.650 691.905, 804.232 693.136, 805.126 693.485 C 807.533 694.423, 818.008 683.019, 825.777 671 C 831.034 662.867, 837.548 648.464, 839.571 640.500 C 846.090 614.840, 838.007 582.325, 819.684 560.500 C 810.625 549.709, 805.093 545.137, 800.214 544.405 C 796 543.773, 785.393 544.299, 775.777 545.617 L 771.211 546.243 771.732 539.756 C 772.635 528.496, 768.263 510.777, 759.880 491.728 C 757.746 486.878, 756 482.593, 756.001 482.205 C 756.001 481.817, 760.123 480.682, 765.161 479.683 C 783.752 475.995, 804.757 467.667, 808.967 462.315 C 811.469 459.134, 811.611 453.847, 809.250 451.771 C 800.398 443.989, 770.713 438.974, 742.500 440.494 C 735.350 440.880, 729.805 440.884, 730.177 440.503 C 730.550 440.123, 736.175 438.692, 742.677 437.324 C 773.472 430.842, 797.283 419.689, 799.542 410.689 C 801.012 404.832, 794.310 400.171, 780.390 397.369 C 770.431 395.363, 742.657 394.861, 726.782 396.400 C 720.338 397.024, 715.388 397.239, 715.782 396.877 C 716.177 396.515, 721.009 392.843, 726.521 388.717 C 743.022 376.363, 755 362.440, 755 355.611 C 755 337.876, 692.660 358.656, 642.500 393.110 C 637 396.888, 631.394 400.844, 630.042 401.901 L 627.583 403.823 628.847 414.161 C 631.715 437.631, 637.192 467.618, 645.531 505.500 C 647.890 516.217, 648.121 518.996, 647.699 531.500 C 647.367 541.316, 646.591 547.891, 645.103 553.500 C 637.533 582.025, 615.217 607.813, 588.466 618.950 C 575.405 624.387, 566.798 626.222, 552 626.722 C 522.754 627.712, 499.935 618.840, 479.408 598.500 L 469.316 588.500 465.126 594.189 C 460.041 601.093, 450.995 608.081, 443.243 611.093 C 435.302 614.177, 419.590 614.886, 411.380 612.530 C 401.439 609.677, 393.217 604.150, 385.837 595.357 L 382.174 590.993 379.010 594.988 C 377.270 597.185, 372.187 601.910, 367.715 605.488 C 332.593 633.589, 282.060 635.165, 243.252 609.370 C 215.435 590.880, 199.006 561.483, 198.896 530 C 198.856 518.611, 199.730 512.909, 204.892 490.910 C 209.387 471.753, 214.228 437.504, 215.566 415.400 L 216.238 404.300 210.369 399.788 C 201.130 392.684, 185.648 382.865, 171.491 375.129 C 138.244 356.962, 105.473 346.423, 93.015 349.891 M 343.299 501.900 C 339.151 504.506, 337 508.780, 337 514.416 C 337 522.959, 346.241 529.726, 354.284 527.071 C 364.750 523.617, 367.833 511.005, 360.038 503.536 C 356.018 499.685, 348.062 498.907, 343.299 501.900 M 493.299 501.900 C 489.151 504.506, 487 508.780, 487 514.416 C 487 522.959, 496.241 529.726, 504.284 527.071 C 514.750 523.617, 517.833 511.005, 510.038 503.536 C 506.018 499.685, 498.062 498.907, 493.299 501.900 M 673.836 608.776 C 671.900 610.824, 666.983 616.548, 662.908 621.495 C 658.834 626.442, 654.487 631.613, 653.250 632.985 C 652.013 634.357, 651 635.773, 651 636.131 C 651 636.490, 652.013 637.043, 653.250 637.360 C 658.790 638.782, 669.861 647.506, 678.266 657.074 C 684.761 664.468, 684.283 663.799, 688.998 672.095 C 696.272 684.897, 699.454 695.124, 699.888 707.104 C 700.102 713.008, 698.277 724.701, 696.400 729.455 C 695.649 731.358, 699.083 728.782, 721.221 710.835 C 726.421 706.619, 733.817 701.138, 737.655 698.655 L 744.634 694.140 743.808 686.429 C 742.375 673.055, 740.019 665.131, 733.721 652.500 C 723.730 632.461, 705.832 615.339, 687.400 608.188 C 678.266 604.644, 677.719 604.667, 673.836 608.776 M 610.647 673.618 C 606.266 675.897, 605.856 676.404, 606.425 678.821 C 607.856 684.896, 608.236 704.245, 607.072 711.739 C 605.441 722.240, 602.368 733.184, 598.887 740.888 C 597.299 744.402, 596 747.596, 596 747.987 C 596 748.377, 597.761 749.388, 599.913 750.234 C 603.708 751.725, 603.970 751.687, 608.663 748.976 C 620.217 742.302, 630.027 726.375, 632.520 710.243 C 633.368 704.759, 631.422 693.114, 628.406 685.628 C 625.666 678.826, 619.627 670.979, 617.183 671.047 C 616.257 671.072, 613.316 672.229, 610.647 673.618 M 389.043 709.309 C 393.104 722.967, 394.357 733.277, 393.757 748.075 C 393.146 763.142, 391.159 761.456, 411.326 762.987 C 424.264 763.969, 443.132 763.282, 454.897 761.400 L 459.082 760.731 458.300 756.116 C 457.080 748.923, 457.676 730.324, 459.406 721.570 C 460.267 717.208, 460.866 713.533, 460.736 713.404 C 460.606 713.274, 444.750 710.401, 425.500 707.020 C 406.250 703.638, 389.539 700.639, 388.364 700.356 C 386.247 699.845, 386.252 699.923, 389.043 709.309" stroke="none" fill="#ffffff" fill-rule="evenodd"/><path d="M 291.075 453.026 C 266.531 458.180, 245.035 474.567, 234.049 496.500 C 228.060 508.456, 225.867 518.106, 225.867 532.500 C 225.867 556.810, 233.936 575.324, 251.891 592.215 C 258.209 598.159, 262.199 600.904, 270.233 604.831 C 284.003 611.562, 291.564 613.330, 306.500 613.312 C 320.845 613.295, 328.821 611.586, 340.835 605.956 C 353.539 600.003, 363.408 591.950, 372.146 580.409 C 378.177 572.442, 377.118 570.995, 369.750 577.138 C 362.764 582.961, 352.334 588.160, 343.912 590.015 C 335.842 591.792, 319.967 590.861, 312.568 588.176 C 271.498 573.272, 259.666 521.954, 290.286 491.536 C 303.368 478.540, 317.123 473.238, 334.991 474.302 C 352.638 475.353, 365.773 482.152, 377.874 496.500 L 381.247 500.500 377.874 494.145 C 370.759 480.743, 358.112 468.385, 344.075 461.120 C 331.351 454.535, 324.372 452.805, 309 452.428 C 301.575 452.246, 293.509 452.515, 291.075 453.026 M 525.145 453.953 C 515.731 456.265, 501.177 463.516, 493.535 469.703 C 486.124 475.701, 477.525 485.903, 473.257 493.760 L 470.013 499.730 478.257 491.509 C 490.522 479.277, 502.802 474, 519 474 C 543.774 474, 565.572 489.640, 574.150 513.568 C 577.087 521.761, 577.758 537.128, 575.583 546.387 C 570.795 566.769, 553.769 584.178, 533.448 589.472 C 525.850 591.450, 512.432 591.424, 504.644 589.415 C 496.273 587.255, 486.377 581.894, 480.165 576.152 C 470.507 567.226, 475.357 577.659, 485.984 588.669 C 496.610 599.677, 509.520 607.349, 523.864 611.179 C 534.662 614.062, 553.418 614.030, 564.500 611.110 C 589.197 604.601, 608.856 587.162, 618.733 563 C 623.142 552.216, 624.396 545.095, 624.281 531.500 C 624.169 518.390, 621.610 507.133, 616.368 496.693 C 605.485 475.017, 585.002 459.027, 561.179 453.609 C 551.658 451.443, 534.707 451.605, 525.145 453.953" stroke="none" fill="#ffff00" fill-rule="evenodd"/><path d="M 755 23.627 C 729.553 25.969, 697.893 34.138, 666.500 46.463 C 628.135 61.524, 580.761 87.725, 543.672 114.395 L 535.845 120.024 523.521 116.084 C 510.411 111.893, 488.689 106.888, 475.500 105.019 C 471.100 104.396, 466.001 103.659, 464.169 103.382 L 460.838 102.879 466.907 99.189 C 474.085 94.827, 479 90.664, 479 88.948 C 479 85.933, 459.409 90.750, 442.924 97.818 L 438.349 99.779 435.488 93.212 C 428.794 77.847, 421.129 75.627, 417.983 88.143 L 416.817 92.785 409.496 89.403 C 396.308 83.309, 385.589 81.499, 381.142 84.613 C 379.359 85.862, 378.986 86.806, 379.486 88.802 C 380.208 91.678, 383.065 96.131, 386.797 100.197 L 389.272 102.894 386.886 103.392 C 385.574 103.666, 380.675 104.394, 376 105.009 C 362.409 106.798, 341.666 111.604, 325.863 116.625 L 311.225 121.276 295.863 111.443 C 252.831 83.902, 204.879 60.110, 167.811 47.907 C 106.699 27.790, 58.822 28.217, 42.098 49.028 C 26.714 68.172, 30.349 95.575, 53.149 132.338 C 71.861 162.507, 107.962 200.406, 148 231.913 C 153.775 236.457, 158.653 240.595, 158.840 241.109 C 159.028 241.622, 157.182 245.295, 154.739 249.271 C 137.340 277.585, 124.737 310.068, 118.497 342.680 C 116.664 352.255, 116.664 352, 118.505 352 C 121.679 352, 143.147 360.545, 157.500 367.522 C 175.124 376.089, 194.194 387.306, 205.942 396.017 C 210.553 399.436, 215.490 402.583, 216.913 403.011 C 218.336 403.439, 225.800 406.485, 233.500 409.781 C 253.368 418.284, 251.370 418.236, 253.516 410.269 C 259.784 386.999, 274.950 363.817, 295.766 345.691 L 300.031 341.977 294.564 335.531 C 291.556 331.987, 288.399 327.739, 287.548 326.093 C 285.926 322.957, 285.511 317.278, 286.765 315.400 C 290.482 309.834, 307.213 311.288, 325.614 318.776 C 329.467 320.344, 333.172 321.443, 333.846 321.218 C 334.526 320.991, 331.096 316.876, 326.162 311.999 C 319.989 305.896, 316.290 301.266, 314.125 296.934 C 310.326 289.332, 310.232 287.068, 313.586 283.924 C 317.381 280.367, 326.521 280.690, 338.696 284.812 C 347.776 287.886, 362.756 294.927, 370.155 299.598 C 372.248 300.919, 374.199 302, 374.491 302 C 374.783 302, 373.218 298.411, 371.012 294.024 C 362.312 276.720, 359.865 264.354, 364.314 260.174 C 367.412 257.265, 369.532 257.426, 376.957 261.136 C 384.019 264.666, 399.487 278.869, 409.183 290.728 L 415.093 297.957 422.578 289.036 C 436.689 272.217, 452.092 259.671, 460.254 258.346 C 470.879 256.622, 470.597 271.714, 459.602 293.250 C 457.145 298.063, 455.383 302, 455.687 302 C 455.990 302, 458.871 300.400, 462.090 298.446 C 481.581 286.605, 504.863 279.149, 513.473 281.991 C 522.295 284.903, 520.244 294.655, 507.950 308.246 L 501.848 314.992 504.674 316.072 C 506.933 316.935, 509.005 316.714, 515 314.971 C 539.604 307.816, 551.531 314.303, 540.860 329.035 C 539.206 331.318, 537.998 333.285, 538.176 333.405 C 557.941 346.773, 574.378 364.039, 584.911 382.498 C 590.695 392.634, 596.085 405.826, 596.334 410.456 L 596.500 413.541 611.457 408.271 C 619.683 405.372, 626.765 403, 627.194 403 C 627.624 403, 631.816 400.160, 636.511 396.688 C 661.239 378.403, 703.240 357.322, 726.779 351.380 L 734.058 349.542 733.448 346.521 C 726.715 313.169, 717.382 286.700, 703.469 261.500 C 700.736 256.550, 698.500 252.207, 698.500 251.848 C 698.500 251.490, 703.623 247.302, 709.885 242.543 C 763.642 201.688, 804.067 157.220, 823.560 117.500 C 832.826 98.620, 835.292 89.566, 835.407 74 C 835.487 63.287, 835.167 60.571, 833.170 55 C 827.949 40.432, 816.039 30.989, 796.500 25.925 C 788.543 23.863, 766.003 22.615, 755 23.627 M 735.431 382.076 C 734.398 383.218, 729.838 386.903, 725.299 390.265 C 720.759 393.627, 717.161 396.494, 717.303 396.636 C 717.444 396.778, 722.159 396.394, 727.780 395.783 L 738 394.672 738 387.336 C 738 383.301, 737.845 380, 737.655 380 C 737.465 380, 736.465 380.934, 735.431 382.076 M 113 391.441 C 113 395.916, 113.060 396, 116.250 396.011 C 118.037 396.017, 121.300 396.307, 123.500 396.655 L 127.500 397.288 121.500 392.845 C 112.532 386.203, 113 386.281, 113 391.441 M 772.299 537.500 C 772.300 539.700, 772.004 542.432, 771.640 543.572 C 771.009 545.549, 771.221 545.610, 776.239 544.895 C 779.133 544.483, 786.660 544.113, 792.966 544.073 L 804.433 544 812.966 552.791 C 822.952 563.078, 823.463 563.703, 828.283 571.535 C 832.941 579.102, 836.423 587.702, 839.538 599.331 C 842.774 611.407, 842.937 627.532, 839.949 640 C 836.202 655.641, 824.405 676.519, 812.107 689.278 L 807.437 694.122 795.468 692.113 C 788.886 691.008, 781.925 689.896, 780 689.643 C 778.075 689.390, 776.416 689.142, 776.313 689.092 C 776.211 689.041, 778.124 684.784, 780.565 679.631 C 787.078 665.882, 789.438 655.900, 789.342 642.500 C 789.201 622.792, 784.164 606.304, 773.197 589.648 C 765.084 577.328, 750.885 565.028, 739.258 560.248 C 736.920 559.286, 735.006 558.218, 735.004 557.873 C 735 557.201, 741.386 554.377, 749.500 551.465 C 752.250 550.477, 754.797 549.406, 755.159 549.085 C 755.522 548.763, 754.017 547.236, 751.815 545.692 C 749.612 544.148, 748.075 543.312, 748.398 543.835 C 748.722 544.359, 747.752 545.096, 746.243 545.474 C 744.734 545.852, 739.563 547.990, 734.750 550.226 L 726 554.290 726 559.557 C 726 572.752, 719.998 590.990, 714.462 594.617 C 708.275 598.671, 700.912 595.434, 694.698 585.927 C 692.939 583.237, 691.241 581.028, 690.923 581.018 C 690.606 581.008, 686.844 584.600, 682.562 589 C 678.280 593.400, 674.413 597, 673.968 597 C 673.523 597, 672.874 598.297, 672.526 599.883 C 671.800 603.189, 665.487 611, 663.541 611 C 662.824 611, 661.090 612.462, 659.689 614.250 C 658.287 616.038, 655.785 619.048, 654.128 620.939 C 652.471 622.831, 651.387 624.856, 651.718 625.439 C 652.050 626.023, 651.983 626.197, 651.571 625.828 C 650.919 625.243, 643.549 633.058, 636.130 642.201 C 634.826 643.807, 630.793 648.132, 627.167 651.811 C 623.542 655.490, 620.682 658.871, 620.812 659.324 C 620.943 659.778, 620.670 659.914, 620.207 659.628 C 619.743 659.341, 618.270 660.109, 616.932 661.333 C 614.186 663.847, 605.633 669, 604.208 669 C 603.693 669, 602.537 667.087, 601.640 664.750 C 600.742 662.413, 598.318 657.966, 596.254 654.869 L 592.500 649.238 589.091 651.576 C 579.973 657.829, 547.764 670.576, 527.702 675.871 C 514.944 679.238, 492.455 683.943, 488.292 684.116 C 486.601 684.186, 486.190 684.412, 487.250 684.689 C 488.230 684.945, 489.010 686.104, 489.023 687.323 C 489.035 688.520, 489.700 713.575, 490.500 743 C 491.300 772.425, 491.965 798.145, 491.977 800.156 C 491.999 803.613, 492.258 803.902, 496.750 805.460 C 509.062 809.733, 530.217 807.968, 543.752 801.541 C 560.105 793.775, 576.796 779.034, 587.087 763.269 C 589.869 759.008, 592.279 755.388, 592.443 755.224 C 592.607 755.060, 593.812 755.355, 595.121 755.881 C 596.429 756.407, 598.400 757.167, 599.500 757.570 C 601.448 758.283, 601.869 758.404, 605 759.145 C 605.825 759.340, 606.741 759.820, 607.035 760.212 C 607.609 760.974, 621.215 762.394, 627 762.295 C 639.813 762.076, 646.633 761.631, 647.500 760.958 C 648.050 760.531, 650.525 759.961, 653 759.691 C 655.475 759.422, 659.701 758.245, 662.392 757.075 C 665.082 755.906, 667.501 755.168, 667.768 755.435 C 668.035 755.702, 669.542 755.254, 671.116 754.440 C 672.691 753.626, 674.237 753.022, 674.553 753.098 C 675.744 753.386, 690.854 744.727, 693.704 742.123 C 695.340 740.629, 699.108 737.627, 702.077 735.453 C 705.046 733.279, 709.633 729.587, 712.271 727.250 C 714.909 724.913, 717.400 723, 717.808 723 C 718.216 723, 720.872 720.750, 723.710 718 C 726.548 715.250, 729.462 712.985, 730.185 712.967 C 731.743 712.927, 735.998 709.544, 736.004 708.340 C 736.010 707.288, 750.085 700, 752.109 700 C 752.929 700, 754.140 699.460, 754.800 698.800 C 755.460 698.140, 756 697.892, 756 698.249 C 756 698.606, 757.462 698.315, 759.250 697.602 C 764.431 695.536, 778.343 695.645, 789.514 697.840 C 812.549 702.366, 822.617 703.488, 840 703.463 C 853.296 703.444, 863.161 702.637, 865.153 701.405 C 865.589 701.136, 867.555 700.709, 869.521 700.458 C 876.093 699.616, 889.314 692.232, 894.500 686.507 C 899.161 681.361, 902.522 676.962, 902.448 676.104 C 902.419 675.772, 903.147 674.825, 904.065 674 C 904.983 673.175, 906.768 669.575, 908.030 666 C 909.293 662.425, 910.699 659.009, 911.154 658.408 C 911.610 657.807, 911.780 657.114, 911.533 656.866 C 911.286 656.619, 911.687 653.822, 912.424 650.650 C 913.851 644.511, 913.557 629.596, 911.924 625.301 C 911.416 623.964, 911 621.767, 911 620.419 C 911 617.070, 903.101 600.425, 897.548 592.072 C 895.047 588.310, 893 584.729, 893 584.116 C 893 583.502, 892.550 583, 892 583 C 891.450 583, 891 582.325, 891 581.500 C 891 580.675, 890.559 580, 890.021 580 C 889.482 580, 885.947 576.962, 882.166 573.250 C 874.778 565.997, 872.705 564.263, 866.500 560.153 C 864.300 558.696, 861.905 556.940, 861.179 556.252 C 860.452 555.563, 859.362 555, 858.757 555 C 858.152 555, 856.947 554.408, 856.079 553.684 C 852.216 550.465, 825.944 540.331, 819.221 539.468 C 808.085 538.038, 794.766 536.820, 791 536.888 C 785.628 536.985, 775.978 537.905, 774.311 538.480 C 773.639 538.712, 772.943 537.719, 772.710 536.195 C 772.447 534.476, 772.298 534.948, 772.299 537.500 M 673.881 607.750 C 667.277 615.164, 651 635.274, 651 636.019 C 651 636.484, 651.855 637.137, 652.900 637.468 C 657 638.769, 667.092 646.129, 673.326 652.364 C 684.752 663.789, 695.147 681.921, 698.056 695.500 C 700.135 705.201, 698.984 723.424, 695.932 729.127 C 693.297 734.050, 700.691 728.768, 723 709.790 C 724.925 708.152, 730.706 704.042, 735.846 700.656 L 745.192 694.500 744.511 686.571 C 742.760 666.155, 732.229 643.671, 717.164 628.182 C 706.904 617.633, 698.940 612.179, 686.917 607.468 C 678.893 604.323, 676.895 604.366, 673.881 607.750 M 258.207 649.504 C 258.595 649.912, 257.858 651.654, 256.569 653.373 C 246.307 667.056, 241.840 690.128, 244.971 713.277 C 249.942 750.029, 274.487 784.921, 306.610 800.901 C 322.074 808.593, 345.680 810.256, 357.055 804.454 L 359.609 803.151 360.827 750.825 C 361.497 722.046, 362.035 695.317, 362.023 691.426 L 362 684.353 348.250 681.616 C 316.406 675.277, 280.592 662.860, 262.778 651.983 C 259.875 650.211, 257.818 649.095, 258.207 649.504 M 610.323 672.841 C 606.922 674.588, 605.282 676.014, 605.541 677 C 607.376 683.976, 608.072 698.200, 607.020 707.249 C 605.248 722.487, 603.148 729.766, 595.366 747.642 C 595.083 748.292, 596.781 749.515, 599.305 750.479 C 603.620 752.126, 603.860 752.112, 608.087 749.956 C 617.777 745.012, 628.983 729.056, 631.934 716 C 634.232 705.833, 632.630 693.466, 627.583 682.414 C 625.167 677.122, 618.828 669.933, 616.717 670.091 C 616.048 670.140, 613.170 671.378, 610.323 672.841" stroke="none" fill="#bfbfbf" fill-rule="evenodd"/><path d="M 398 1.609 C 330.515 7.377, 270.525 26.872, 218.185 60.042 L 210.870 64.678 230.185 74.258 C 252.768 85.459, 274.389 97.700, 295.863 111.443 L 311.225 121.276 325.863 116.625 C 341.666 111.604, 362.409 106.798, 376 105.009 C 380.675 104.394, 385.574 103.666, 386.886 103.392 L 389.272 102.894 386.797 100.197 C 383.065 96.131, 380.208 91.678, 379.486 88.802 C 378.986 86.806, 379.359 85.862, 381.142 84.613 C 385.589 81.499, 396.308 83.309, 409.496 89.403 L 416.817 92.785 417.983 88.143 C 421.129 75.627, 428.794 77.847, 435.488 93.212 L 438.349 99.779 442.924 97.818 C 459.409 90.750, 479 85.933, 479 88.948 C 479 90.664, 474.085 94.827, 466.907 99.189 L 460.838 102.879 464.169 103.382 C 466.001 103.659, 471.100 104.396, 475.500 105.019 C 488.729 106.894, 510.425 111.898, 523.641 116.123 L 536.085 120.101 539.792 117.235 C 557.411 103.616, 593.102 81.683, 620.747 67.487 C 632.196 61.608, 633.757 60.522, 632.247 59.490 C 631.286 58.834, 625.775 55.586, 620 52.274 C 574.913 26.414, 525.686 10.229, 471.500 3.449 C 459.179 1.908, 409.159 0.656, 398 1.609 M 49.202 290.594 C 40.463 326.118, 38.564 342.770, 38.609 383.500 C 38.640 411.418, 38.964 418.703, 40.710 430.803 C 41.845 438.670, 42.943 445.277, 43.151 445.484 C 43.359 445.692, 46.501 445.038, 50.134 444.031 C 60.408 441.182, 76.902 439.778, 95.669 440.155 C 105.111 440.345, 112.759 440.423, 112.664 440.328 C 112.568 440.234, 106.642 438.954, 99.495 437.484 C 60.379 429.441, 34.838 413.812, 45.250 404.291 C 52.672 397.505, 62.387 395.618, 90.248 395.553 L 112.996 395.500 112.998 391.128 C 113 386.915, 112.672 386.448, 103.953 378.240 C 93.105 368.028, 88.891 362.213, 88.256 356.581 C 87.659 351.279, 89.437 349.675, 96.661 349 L 102.014 348.500 91.381 334.500 C 85.533 326.800, 74.973 311.725, 67.914 301 C 60.856 290.275, 54.472 280.642, 53.729 279.594 C 52.522 277.892, 52.037 279.071, 49.202 290.594 M 790.349 295.787 C 781.782 308.755, 756.555 343.005, 752.150 347.648 C 750.163 349.742, 750.160 349.809, 752.032 350.298 C 753.088 350.574, 754.476 351.950, 755.116 353.354 C 756.809 357.072, 752.665 364.927, 744.516 373.446 L 738 380.256 738 387.628 L 738 395 753.250 395.020 C 783.775 395.059, 800 400.100, 800 409.544 C 800 412.188, 799.073 413.648, 795.159 417.167 C 786.756 424.722, 771.542 431.037, 748.500 436.532 L 734.500 439.872 751 439.944 C 775.963 440.054, 791.476 442.240, 802.247 447.168 C 804.858 448.362, 807.202 449.132, 807.455 448.878 C 807.709 448.625, 808.932 441.236, 810.174 432.459 C 812.148 418.510, 812.437 412.280, 812.466 383 C 812.501 348.959, 812.266 345.672, 807.893 319 C 806.116 308.160, 800.532 283.199, 799.697 282.364 C 799.538 282.205, 795.331 288.245, 790.349 295.787 M 796 470.608 C 789.742 473.781, 773.680 478.661, 761.803 480.999 L 756.105 482.120 759.620 489.810 C 765.156 501.919, 770.797 519.875, 771.947 529.047 C 772.526 533.667, 773 537.599, 773 537.784 C 773 537.969, 774.624 537.981, 776.608 537.810 C 780.146 537.506, 780.291 537.321, 784.044 528.288 C 793.302 506.008, 805.634 466.572, 803.161 467.156 C 802.798 467.242, 799.575 468.795, 796 470.608 M 49 473.327 C 49 477.913, 60.126 512.047, 66.659 527.500 L 70.463 536.500 71.204 529.955 C 72.242 520.799, 76.245 507.490, 82.008 494.042 C 84.708 487.740, 86.809 482.475, 86.676 482.343 C 86.544 482.210, 82.095 481.162, 76.791 480.012 C 71.487 478.863, 63.205 476.590, 58.386 474.961 C 48.167 471.507, 49 471.652, 49 473.327 M 417.493 515.012 C 417.098 515.651, 415.924 515.952, 414.886 515.680 C 413.847 515.409, 413.249 515.595, 413.558 516.093 C 413.866 516.592, 413.480 517, 412.700 517 C 411.920 517, 409.202 518.830, 406.661 521.067 C 399.411 527.449, 398.566 534.368, 404.089 542.124 C 409.951 550.357, 427.927 553.272, 438.651 547.729 C 447.287 543.265, 451.248 536.110, 449.084 528.885 C 447.796 524.588, 441.886 518.261, 438.327 517.367 C 437.055 517.048, 436.203 516.481, 436.433 516.108 C 436.948 515.274, 435.578 515.050, 425.856 514.378 C 420.611 514.015, 417.986 514.214, 417.493 515.012 M 115.026 522.613 C 109.496 530.314, 95.832 543.553, 90 546.861 C 86.553 548.817, 83.095 549.985, 80.736 549.991 L 76.971 550 80.114 556.250 C 88.486 572.902, 104.484 597.755, 118.055 615.193 C 142.702 646.861, 172.711 674.788, 206.500 697.503 C 219.998 706.576, 245.014 721.319, 245.718 720.615 C 245.906 720.427, 245.543 716.949, 244.910 712.886 C 243.201 701.905, 244.249 682.161, 247.003 673.500 C 249.552 665.479, 253.148 657.934, 256.634 653.288 L 259.044 650.075 256.772 648.659 C 255.522 647.881, 251.125 645.315, 247 642.959 C 231.438 634.070, 219.637 625.156, 204.666 610.986 L 196.354 603.117 192.383 607.088 C 184.391 615.079, 177.542 613.011, 171.626 600.819 C 167.685 592.697, 165.395 582.821, 164.481 570 C 163.413 555.012, 162.433 553.563, 159.579 562.750 C 156.361 573.107, 149.828 585.213, 144.468 590.750 C 139.795 595.578, 139.019 596, 134.810 596 C 130.751 596, 129.830 595.554, 126.676 592.063 C 120.370 585.083, 117 569.614, 117 547.651 C 117 540.939, 117.471 531.693, 118.046 527.103 C 118.622 522.514, 118.922 518.589, 118.715 518.381 C 118.507 518.173, 116.847 520.078, 115.026 522.613 M 724.353 519.750 C 725.090 522.390, 726.042 535.403, 726.219 545.250 C 726.306 550.063, 726.642 554, 726.966 554 C 727.290 554, 728.443 553.388, 729.527 552.639 C 730.612 551.890, 735.399 549.720, 740.164 547.815 L 748.828 544.352 741.317 536.926 C 737.186 532.842, 731.759 526.913, 729.256 523.750 C 724.421 517.641, 723.572 516.949, 724.353 519.750 M 680.899 564.281 C 680.019 565.502, 678.984 569.714, 678.599 573.642 C 678.215 577.570, 677.058 584.318, 676.029 588.638 C 675 592.957, 674.259 596.592, 674.382 596.715 C 674.505 596.838, 678.293 593.232, 682.799 588.702 L 690.994 580.465 687.509 572.482 C 685.592 568.092, 684.019 563.938, 684.012 563.250 C 683.994 561.367, 682.691 561.798, 680.899 564.281 M 635.500 615.751 C 623.767 627.988, 610.928 638.577, 599.825 645.173 C 596.071 647.403, 593 649.386, 593 649.580 C 593 649.774, 594.776 652.680, 596.946 656.038 C 599.116 659.396, 601.401 663.686, 602.024 665.572 C 602.646 667.457, 603.360 669, 603.611 669 C 605.329 669, 614.455 663.330, 619.193 659.319 C 624.749 654.615, 641.504 636.481, 649.501 626.516 C 651.700 623.775, 654.850 620.022, 656.500 618.177 C 661.183 612.940, 661.329 612.316, 658.021 611.654 C 656.403 611.331, 653.319 609.476, 651.168 607.533 C 649.017 605.590, 647.087 604.063, 646.879 604.139 C 646.670 604.216, 641.550 609.441, 635.500 615.751 M 464.815 705.633 C 459.393 720.033, 456.934 739.517, 458.839 752.968 C 459.421 757.076, 459.732 760.601, 459.531 760.802 C 459.330 761.004, 455.416 761.785, 450.833 762.539 L 442.500 763.910 451 763.407 L 459.500 762.903 462.310 770.281 C 463.855 774.338, 466.211 779.423, 467.545 781.579 L 469.971 785.500 469.363 761.500 C 469.028 748.300, 468.472 728.725, 468.127 718 L 467.500 698.500 464.815 705.633 M 383.687 707 C 382.770 717.838, 381.626 784, 382.356 784 C 383.141 784, 388.154 773.974, 390.516 767.680 L 392.325 762.860 399.913 763.371 L 407.500 763.881 400.320 762.691 C 396.371 762.036, 392.864 761.218, 392.526 760.873 C 392.189 760.529, 392.402 756.315, 392.999 751.510 C 394.678 737.994, 391.513 715.783, 386.190 703.731 L 384.322 699.500 383.687 707" stroke="none" fill="#4f81bd" fill-rule="evenodd"/><path d="M 35.421 52.222 C 32.715 53.994, 27.951 57.970, 24.835 61.058 C -4.138 89.763, -6.652 140.950, 17.694 206.441 C 22.575 219.570, 41.218 258.216, 48.166 269.605 C 61.692 291.780, 78.123 316.159, 91.197 333.449 L 102.500 348.399 108.954 349.678 C 115.633 351.002, 116.946 350.584, 116.985 347.120 C 117.024 343.601, 122.578 321.252, 126.209 310 C 133.126 288.569, 141.108 270.946, 152.876 251.127 L 158.710 241.302 148.105 232.901 C 79.329 178.418, 34.484 118.989, 32.254 79.375 C 31.634 68.359, 32.958 62.113, 37.517 54.542 C 39.352 51.494, 40.739 49, 40.598 49 C 40.458 49, 38.128 50.450, 35.421 52.222 M 835.133 59.786 C 841.857 85.560, 827.470 122.163, 794.367 163.500 C 775.785 186.705, 741.150 219.618, 712.717 241.090 C 705.997 246.164, 700.105 250.662, 699.623 251.085 C 699.139 251.509, 699.662 253.343, 700.788 255.177 C 704.926 261.911, 714.882 282.830, 719.264 294 C 725.841 310.761, 731.545 330.853, 733.519 344.212 L 734.216 348.924 742.599 348.801 L 750.982 348.679 758.811 338.590 C 772.586 320.837, 775.488 316.840, 787.553 299 C 794.063 289.375, 799.666 281.275, 800.004 281 C 801.219 280.012, 810.056 264.803, 818.518 249.138 C 833.587 221.241, 845.937 190.373, 851.885 165.742 C 856.812 145.344, 857.503 139.675, 857.461 120 C 857.427 104.302, 857.085 100.155, 855.199 92.623 C 852.451 81.646, 846.774 69.439, 840.671 61.389 C 833.646 52.121, 833.092 51.961, 835.133 59.786 M 216.537 414.250 C 214.817 440.245, 210.282 470.722, 204.076 498 C 199.580 517.762, 198.515 528.262, 199.908 539.118 C 204.683 576.356, 230.125 607.200, 266.984 620.438 C 306.059 634.471, 348.450 625.202, 376.278 596.541 L 382.546 590.084 386.125 594.498 C 394.384 604.682, 405.216 611.026, 417.933 613.126 C 435.375 616.007, 454.150 608.012, 465.030 593.072 L 469.310 587.195 477.287 595.621 C 502.396 622.147, 538.563 632.314, 574.500 622.949 C 603.542 615.381, 629.185 592.758, 640.314 564.887 C 645.208 552.629, 646.253 547.181, 646.721 531.500 L 647.168 516.500 642.035 493.078 C 636.851 469.428, 630.152 431.699, 627.949 413.750 C 627.291 408.387, 626.580 404, 626.369 404 C 626.157 404, 615.975 407.394, 603.742 411.543 C 578.182 420.212, 570.191 422.597, 538.500 431.017 C 512.117 438.027, 501.858 442.375, 489.306 451.868 C 469.344 466.965, 456.206 488.775, 452.031 513.750 C 451.365 517.737, 450.613 521, 450.360 521 C 450.107 521, 448.686 520.382, 447.200 519.627 C 445.715 518.871, 443.409 517.916, 442.075 517.504 C 440.045 516.876, 440.256 517.286, 443.376 520.026 C 449.977 525.821, 451.732 532.548, 448.449 539.466 C 446.649 543.259, 440.196 548.164, 434.619 549.979 C 429.403 551.676, 416.537 550.866, 412 548.555 C 398.348 541.600, 395.991 528.923, 406.707 520.090 C 411.098 516.471, 410.781 516.308, 404.544 518.981 C 401.153 520.435, 399.836 520.634, 399.597 519.731 C 394.522 500.571, 390.354 491.307, 381.537 479.592 C 372.268 467.276, 360.393 457.321, 346.500 450.218 C 337.180 445.453, 333.931 444.302, 312 437.993 C 280.948 429.061, 257.518 420.824, 231.216 409.592 C 224.013 406.516, 217.917 404, 217.668 404 C 217.419 404, 216.910 408.613, 216.537 414.250 M 290.197 452.528 C 265.069 457.983, 244.851 473.680, 233.557 496.500 C 226.914 509.922, 225.559 516.005, 225.538 532.500 C 225.522 544.081, 225.908 547.848, 227.770 554.299 C 238.151 590.268, 269.464 614.034, 306.410 613.985 C 322.637 613.964, 335.126 610.646, 348.327 602.851 C 360.606 595.600, 376 579.285, 376 573.523 C 376 570.829, 375.973 570.839, 370.824 575.468 C 364.249 581.379, 358.813 584.555, 349.728 587.789 C 343.570 589.982, 340.871 590.354, 331.500 590.305 C 322.396 590.258, 319.240 589.809, 313.192 587.704 C 289.167 579.340, 273.973 558.163, 273.887 532.920 C 273.829 516.230, 278.928 504.005, 290.966 491.966 C 303.041 479.892, 314.781 475, 331.684 475 C 353.461 475, 369.531 484.324, 382.725 504.616 C 384.656 507.585, 382.647 502.221, 379.429 495.812 C 368.312 473.676, 347.268 457.614, 322.792 452.584 C 313.519 450.678, 298.831 450.653, 290.197 452.528 M 527.500 452.596 C 501.532 458.385, 480.295 475.851, 469.556 500.250 C 468.164 503.413, 467.202 506, 467.418 506 C 467.633 506, 468.965 504.029, 470.377 501.619 C 476.745 490.754, 491.485 479.932, 504.552 476.528 C 513.809 474.117, 527.384 474.522, 536.776 477.489 C 555.312 483.345, 570.394 499.678, 575.107 519 C 576.968 526.633, 576.703 541.159, 574.568 548.500 C 567.256 573.637, 544.972 590.440, 519 590.401 C 503.608 590.378, 491.530 585.696, 480.040 575.298 C 474.864 570.614, 474 570.142, 474 571.997 C 474 578.166, 490.571 595.773, 503.503 603.343 C 507.694 605.797, 515.033 609.086, 519.812 610.652 C 527.855 613.289, 529.650 613.499, 544 613.492 C 557.479 613.485, 560.478 613.177, 567 611.128 C 580.784 606.797, 590.457 600.987, 600.692 590.891 C 612.653 579.095, 620.318 565.002, 623.609 548.758 C 625.857 537.665, 625.101 519.298, 621.993 509.500 C 613.248 481.931, 592.815 461.717, 565.829 453.938 C 555.935 451.086, 537.212 450.431, 527.500 452.596 M 343.241 500.995 C 336.571 505.061, 334.182 513.366, 337.606 520.583 C 342.311 530.498, 358.153 530.558, 363.472 520.681 C 365.981 516.023, 365.196 507.907, 361.894 504.372 C 356.637 498.745, 349.153 497.390, 343.241 500.995 M 493.241 500.995 C 486.571 505.061, 484.182 513.366, 487.606 520.583 C 492.311 530.498, 508.153 530.558, 513.472 520.681 C 515.981 516.023, 515.196 507.907, 511.894 504.372 C 506.637 498.745, 499.153 497.390, 493.241 500.995 M 422.063 560.632 C 418.890 563.783, 409.932 566.365, 404.354 565.736 L 400 565.246 400.010 573.373 C 400.022 583.398, 402.686 589.863, 409.049 595.310 C 414.037 599.579, 418.276 600.995, 426 600.972 C 433.098 600.951, 438.421 598.477, 443.674 592.756 C 448.644 587.342, 449.987 583.106, 449.994 572.813 L 450 565.126 446.627 565.673 C 441.412 566.519, 432.949 564.281, 428.809 560.961 C 426.778 559.332, 424.978 558.047, 424.809 558.105 C 424.639 558.164, 423.403 559.300, 422.063 560.632 M 387.212 776.315 C 381.062 789.994, 370.158 800.354, 356.353 805.633 C 348.972 808.455, 336.855 809.302, 326.351 807.729 L 321.202 806.958 322.231 811.013 C 323.777 817.102, 330.193 827.087, 334.889 830.709 C 344.461 838.094, 354.315 835.329, 357.227 824.442 L 358.333 820.305 362.417 822.656 C 371.393 827.823, 379.072 827.744, 384.065 822.432 C 386.104 820.263, 386.499 818.838, 386.494 813.671 C 386.490 810.277, 386.132 806.375, 385.698 805 C 384.914 802.517, 384.951 802.500, 391.204 802.462 C 401.856 802.398, 408.273 797.734, 408.273 790.055 C 408.273 785.718, 405.223 779.469, 401.342 775.852 C 398.668 773.360, 392.098 769.011, 391 769.005 C 390.725 769.003, 389.020 772.293, 387.212 776.315 M 454.957 772.384 C 445.303 779.471, 441.541 786.881, 444.137 793.701 C 446.587 800.138, 455.194 803.992, 463.596 802.416 C 467.392 801.704, 467.426 801.750, 465.941 805.655 C 464.268 810.057, 464.599 817.512, 466.620 820.934 C 467.732 822.816, 470.026 824.608, 472.566 825.578 C 477.428 827.435, 482.712 826.451, 489.750 822.376 C 493.935 819.954, 494 819.948, 494 821.998 C 494 825.604, 497.891 831.892, 501.173 833.589 C 510.198 838.256, 523.410 828.607, 528.500 813.631 C 529.542 810.567, 530.133 807.799, 529.814 807.481 C 529.495 807.162, 526.187 807.431, 522.464 808.080 C 505.162 811.093, 486.553 804.872, 474.903 792.180 C 469.810 786.632, 463.626 776.477, 462.461 771.750 C 461.591 768.221, 460.503 768.313, 454.957 772.384" stroke="none" fill="#000000" fill-rule="evenodd"/><path d="" stroke="none" fill="#21384f" fill-rule="evenodd"/><path d="M 465 687.126 C 452.325 688.482, 404.256 688.912, 392.226 687.778 C 386.025 687.193, 380.731 686.935, 380.462 687.205 C 380.099 687.567, 384.296 698.087, 385.455 699.723 C 385.542 699.846, 402.463 702.923, 423.057 706.561 C 443.651 710.199, 460.678 713.352, 460.895 713.567 C 461.113 713.782, 462.379 710.705, 463.710 706.729 C 465.040 702.753, 467.586 696.462, 469.368 692.750 C 471.150 689.038, 472.583 686.073, 472.554 686.162 C 472.524 686.251, 469.125 686.684, 465 687.126" stroke="none" fill="#d3d2c7" fill-rule="evenodd"/></svg>