<?xml version="1.0" standalone="yes"?>
<svg xmlns="http://www.w3.org/2000/svg" width="649" height="583">
<path style="fill:#ffffff; stroke:none;" d="M0 0L0 583L649 583L649 0L0 0z"/>
<path style="fill:#568bb6; stroke:none;" d="M375 64C374.456 57.1717 364.39 54.0849 359.622 59.4992C357.276 62.1633 359.45 65.7583 362.809 65.4113C364.583 65.2279 366.24 64.3405 368.038 64.1288C370.328 63.8592 372.698 64.0002 375 64z"/>
<path style="fill:#259fc8; stroke:none;" d="M258 91L257 96C260.767 96 266.054 97.4128 267 93L279 92L292 94L317 95.4815L329 96L330 96L331 96L333 90L338 92L341 90C341 84.4307 342.886 77.3073 341.347 72C337.877 60.026 325.66 57.4889 315 60.0401C294.634 64.9141 276.604 81.7861 258 91z"/>
<path style="fill:#73779e; stroke:none;" d="M375 60L375 64C369.025 64 360.914 67.312 358 61L357 61C357.164 75.5945 369.593 64.6594 375 73L376 73L375 60z"/>
<path style="fill:#259fc8; stroke:none;" d="M459 132L456 130L456 129L465 132C468.825 125.063 476.623 130.389 482.961 129.946C487.991 129.594 491.869 126.208 497.004 126.019C503.609 125.775 512.357 130.477 517.916 129.553C523.438 128.636 528.43 116.807 529.586 112C530.547 108 530.978 103.113 530.971 99C530.966 96.2487 530.568 93.5581 529.517 91.0008C519.932 67.6709 493.439 91.1721 481 97.2431C476.905 99.2415 472.62 100.67 468 99.7215C449.348 95.8916 460.159 67.91 438 66.0934C416.08 64.2963 385.858 85.4333 370.325 99.4977C365.967 103.443 350.9 113.159 356.029 120.487C359.956 126.098 373.983 124.855 380 126C398.076 129.44 416.725 127.239 435 128.039C443.205 128.399 450.833 131.648 459 132z"/>
<path style="fill:#b25171; stroke:none;" d="M357 68C357.948 76.4122 373.595 78.4211 375 70L357 68z"/>
<path style="fill:#259fc8; stroke:none;" d="M159 99L154 101C160.044 103.536 162.659 99.4599 168.093 98.2778C173.172 97.1729 178.831 98.396 184 98.1304C191.974 97.7207 200.017 98 208 98C212.297 98 226.445 100.777 229.529 98.8434C240.229 92.1359 226.713 76.4851 220 73.4174C204.681 66.4175 184.74 75.3889 172 83.5903C165.792 87.5867 159.259 91.0414 159 99z"/>
<path style="fill:#568bb6; stroke:none;" d="M342 75L341 90L338 92L333 90L331 96L330 96L329 96C325.701 92.2249 321.219 95.0895 317 95.0895C308.209 95.0895 285.842 97.1839 279 92L267 93C264.668 96.5976 260.987 95.9969 257 96L259 92L232 107C235.706 100.951 235.258 94.7739 234 88L233 88L228.867 98.517L205 98L168.093 98.1335L154 102L154 101L159 99L159 94C147.611 99.0759 138.984 107.531 138 120L139 120C147.289 113.72 170.645 118 181 118L269 118C279.109 118 291.157 122.804 301 120.387C309.084 118.401 314.064 111.953 321 107.995C325.08 105.666 329.982 106.5 333.957 103.991C342.105 98.8454 345.62 83.6262 342 75M509.667 81.3333L510.333 81.6667L509.667 81.3333M456.333 88.6667L456.667 89.3333L456.333 88.6667z"/>
<path style="fill:#0b5d80; stroke:none;" d="M234 102L232 107L234 102z"/>
<path style="fill:#73779e; stroke:none;" d="M138 110C127.776 120.252 110.858 135.223 108 150L112 150L113 145C129.932 150.005 153.317 146 171 146L171 151L172 151C191.276 126.24 223.222 129.177 251 127.961C267.034 127.258 283.277 124.962 299 122L299 121C259.477 116.005 218.987 118 179 118L150 118C146.293 118 141.582 117.045 139 120L138 120L138 110z"/>
<path style="fill:#568bb6; stroke:none;" d="M354 116L354 120L355 120L354 116M373 125L373 126L378 126L373 125z"/>
<path style="fill:#0b5d80; stroke:none;" d="M465 132L456 129L456 130L459 131L456 132L456 133C463.508 134.609 474.002 138.301 479.246 144.058C482.683 147.83 487.907 159.257 494.039 158.422C500.911 157.487 506.692 146.876 510.753 142C513.934 138.182 517.193 134.666 519 130C510.162 127.996 503.688 124.949 494.09 126.129C489.409 126.704 485.888 129.963 481 129.963C475.577 129.963 467.441 124.644 465 132z"/>
<path style="fill:#568bb6; stroke:none;" d="M255 127L255 128L262 128L255 127M390 127L390 128L396 128L390 127M428 128L428 129L440 129L428 128M444 129L444 130L447 130L444 129M452.667 131.333L453.333 131.667L452.667 131.333M458.667 133.333L459.333 133.667L458.667 133.333M475 140L478 142L475 140z"/>
<path style="fill:#b25171; stroke:none;" d="M113 145L112 150C98.6668 149.488 106.581 173.114 113.44 177.428C129.457 187.502 143.234 167.397 155.004 160.065C162.593 155.337 170.873 156.743 171 146C152.689 146 130.823 149.243 113 145z"/>
<path style="fill:#568bb6; stroke:none;" d="M488 156L494 160L494 159L488 156M536 168L536 169L547 169L536 168z"/>
<path style="fill:#259fc8; stroke:none;" d="M494 212L497 212L499 228L539 230L539 226L541 226L541 230C545.982 229.341 554.93 227.455 556 222C559.464 221.022 560.482 219.526 561 216L562 216L564 218C569.258 208.139 574.999 194.222 569.721 183C559.026 160.257 526.708 169.551 510 178.222C504.635 181.006 497.362 183.4 494.318 189.04C490.963 195.255 493.158 205.338 494 212z"/>
<path style="fill:#0b5d80; stroke:none;" d="M549 169L549 170L552 170L549 169z"/>
<path style="fill:#568bb6; stroke:none;" d="M494 187L493 190L494 187M571 187L571 198L572 198L571 187M492 190L492 200L493 200L492 190M160 192L160 193L165 193L165 198L166 198L166 192L160 192z"/>
<path style="fill:#259fc8; stroke:none;" d="M118 215L117 220L137 216.143L156 214L156 216L157 214L159 214C159.506 216.529 159.494 216.529 160 214L161 214L161 221L162 221L165 193C147.464 193.048 131.659 205.188 118 215z"/>
<path style="fill:#0b5d80; stroke:none;" d="M164 194L164 200L165 200L164 194z"/>
<path style="fill:#568bb6; stroke:none;" d="M131.667 205.333L132.333 205.667L131.667 205.333M495 212C495 228.105 497.016 262.179 513 271C516.529 261.402 522.385 272.143 528 268L531 270C531.513 266.15 535.619 264.525 537.355 260.981C542.303 250.88 546.167 241.3 552.862 232.075C556.636 226.874 562.73 222.994 562 216L561 216L556 222C554.411 227.231 545.861 228.916 541 230L541 226L539 226L539 230L499 228L497 212L495 212z"/>
<path style="fill:#0b5d80; stroke:none;" d="M155 214L137 216.054L117 220L119 216C105.663 222.219 90.9625 241.795 87.0934 256C85.4003 262.216 85.0936 272.013 91.1335 276.142C98.002 280.838 110.681 277.253 118 275.37C127.7 272.875 143.613 268.176 150.581 260.66C159.962 250.542 161 226.954 161 214L160 214L159 216L156 216L155 214z"/>
<path style="fill:#568bb6; stroke:none;" d="M156.333 244.667L156.667 245.333L156.333 244.667M155.333 248.667L155.667 249.333L155.333 248.667M154 252L154 255L155 255L154 252M153.333 255.667L153.667 256.333L153.333 255.667M86.3333 257.667L86.6667 258.333L86.3333 257.667z"/>
<path style="fill:#73779e; stroke:none;" d="M538 258L531 270L528 268C522.469 270.323 515.051 261.601 513 271L507 266L517 295L522 299L549.353 295.168L548.135 287L538 258z"/>
<path style="fill:#568bb6; stroke:none;" d="M87.3333 271.667L87.6667 272.333L87.3333 271.667M121.667 274.333L122.333 274.667L121.667 274.333M117 275L117 276L120 276L117 275M113.667 276.333L114.333 276.667L113.667 276.333z"/>
<path style="fill:#73779e; stroke:none;" d="M92.6667 277.333L93.3333 277.667L92.6667 277.333z"/>
<path style="fill:#568bb6; stroke:none;" d="M107 277L107 278L110 278L107 277M95 278L95 279L105 279L95 278M89 293L89 294L95 294L89 293z"/>
<path style="fill:#259fc8; stroke:none;" d="M85 300L99 300C97.6654 291.632 87.1637 292.541 85 300z"/>
<path style="fill:#b25171; stroke:none;" d="M551 294L522 299C515.634 288.608 507.247 310.824 505.144 316C496.769 336.615 492.002 362.759 492 385C501.708 384.686 512.287 374.523 519 367.985C535.598 351.821 569.971 320.247 551 294z"/>
<path style="fill:#568bb6; stroke:none;" d="M99 297L99 305L100 305L99 297M98 322L99 325C94.4335 326.584 91.7403 329.151 91 334L105 332L106 332L107 332C111.866 337.568 133.642 334 141 334L141 330L143 330L143 334L152 334L153 334L156 333C155.347 324.8 150.68 300.353 140.957 298.361C135.9 297.325 130.995 301.698 127 304.077C117.225 309.898 107.702 316.041 98 322z"/>
<path style="fill:#73779e; stroke:none;" d="M85 300L85 304L99 304L99 300L85 300z"/>
<path style="fill:#b25171; stroke:none;" d="M85 304C86.2536 311.512 96.6247 310.209 99 304L85 304z"/>
<path style="fill:#73779e; stroke:none;" d="M555 306L555 317L556 317L555 306M554 320L554 323L555 323L554 320M97 323C79.3313 337.428 86.1204 351.576 106 357C110.142 352.77 116.438 354 122 354C135.302 354 147.928 354.899 161 356L157 331L156 331L153 334L152 334L143 334L143 330L141 330L141 334C132.175 334 114.12 337.394 107 332L106 332L105 332L91 334L99 324L97 323M551.333 328.667L551.667 329.333L551.333 328.667M500 330L500 333L501 333L500 330z"/>
<path style="fill:#568bb6; stroke:none;" d="M158 341L158 344L159 344L158 341z"/>
<path style="fill:#b25171; stroke:none;" d="M107.658 355.028C105.812 356.681 109.353 369.19 108.547 373C106.722 381.632 97.2234 394.757 103.179 403.682C105.778 407.577 113.988 406 118 406C130.038 406 152.762 406.344 162.566 398.146C167.478 394.039 164.275 384.37 164.039 379C163.792 373.344 165.245 361.274 161.012 356.827C158.742 354.442 152.088 354.057 148.996 354.005C139.337 353.842 129.661 354 120 354C116.866 354 110.179 352.769 107.658 355.028z"/>
<path style="fill:#568bb6; stroke:none;" d="M546 361L546 362L554 362L546 361z"/>
<path style="fill:#259fc8; stroke:none;" d="M545 366L559 366L560 362C555.181 360.675 546.81 360.546 545 366z"/>
<path style="fill:#568bb6; stroke:none;" d="M544 363L543 374L544 374L544 370L562 370L560 363L559 363L559 366C553.596 366 548.163 366.974 544 363z"/>
<path style="fill:#73779e; stroke:none;" d="M109 364L109 368L110 368L109 364M493 364L493 367L494 367L493 364M544 370L544 374L562 373C560.864 367.698 548.599 370 544 370z"/>
<path style="fill:#b25171; stroke:none;" d="M544 374C547.683 381.301 559.606 380.564 561 372L544 374z"/>
<path style="fill:#73779e; stroke:none;" d="M492 385L492 386L497 386L492 385z"/>
<path style="fill:#568bb6; stroke:none;" d="M517 390L517 391L525 391L517 390z"/>
<path style="fill:#73779e; stroke:none;" d="M101 391L101 400L102 400L101 391z"/>
<path style="fill:#259fc8; stroke:none;" d="M477 437L479 440C474.77 440.564 471.027 442.109 469 446L485 444L502 446L501 448L508 448L507 446L517 444C536.575 443.57 551.301 405.905 533.985 393.653C527.235 388.877 516.489 390.848 509 392.579C504.29 393.668 497.096 395.211 493.603 398.815C490.616 401.897 491.691 409.867 490.576 414C487.956 423.705 484.124 429.816 477 437z"/>
<path style="fill:#73779e; stroke:none;" d="M106 406L106 407L115 407L106 406z"/>
<path style="fill:#568bb6; stroke:none;" d="M490.333 413.667L490.667 414.333L490.333 413.667z"/>
<path style="fill:#0b5d80; stroke:none;" d="M161.999 421.943C151.605 426.255 137.658 441.259 132.278 451C130.253 454.667 128.21 462.738 131.742 466.142C134.778 469.067 142.038 468.706 146 469.271C160.529 471.341 183.58 468.015 197 461.966C199.061 461.037 201.051 459.865 202.995 458.715C219.131 449.169 187.482 442.338 181 437.32C175.781 433.281 169.393 418.875 161.999 421.943M519 444L507 446L508 448L501 448L502 446L485 444L469 446L479 440L479 438C464.819 439.453 452.086 448.781 437 449.911C415.821 451.498 396.579 451.762 381.468 469.09C373.681 478.02 369.696 496.997 382.043 504.246C398.777 514.07 415.743 506.019 431 497.424C450.069 486.682 469.077 475.903 488 464.862C497.182 459.504 513.764 453.546 519 444z"/>
<path style="fill:#568bb6; stroke:none;" d="M464.667 443.333L465.333 443.667L464.667 443.333M459.667 445.333L460.333 445.667L459.667 445.333M205.667 448.333L206.333 448.667L205.667 448.333M208 449L209 455L210 455L208 449M439.667 449.333L440.333 449.667L439.667 449.333M426 450L426 451L430 451L426 450z"/>
<path style="fill:#73779e; stroke:none;" d="M209 481L210 481C217.582 473.782 231.293 478 241 478C266.448 478 296.462 482.264 321.17 476.455C326.569 475.186 348.177 476.645 351 481C356.159 479.482 368.314 462.253 360.681 458.133C357.754 456.552 353.503 459.436 351 460.792C344.337 464.404 335.05 475.37 327 474.476C318.331 473.514 308.551 461.869 300 458.285C285.405 452.166 265.707 452.001 250 452C244.791 452 237.938 450.856 233 452.742C224.098 456.143 211.361 471.899 209 481z"/>
<path style="fill:#568bb6; stroke:none;" d="M405 452L405 453L409 453L405 452z"/>
<path style="fill:#73779e; stroke:none;" d="M130.333 454.667L130.667 455.333L130.333 454.667z"/>
<path style="fill:#568bb6; stroke:none;" d="M129 457L129 463L130 463L129 457z"/>
<path style="fill:#73779e; stroke:none;" d="M192 463L192 464L195 464L192 463z"/>
<path style="fill:#568bb6; stroke:none;" d="M189 464L189 465L192 465L189 464M130 465L131 466L130 465z"/>
<path style="fill:#73779e; stroke:none;" d="M179 465L179 466L184 466L179 465z"/>
<path style="fill:#568bb6; stroke:none;" d="M175.667 466.333L176.333 466.667L175.667 466.333M132.667 467.333L133.333 467.667L132.667 467.333M171 467L171 468L174 468L171 467M136 468L136 469L141 469L136 468z"/>
<path style="fill:#73779e; stroke:none;" d="M165.667 468.333L166.333 468.667L165.667 468.333z"/>
<path style="fill:#568bb6; stroke:none;" d="M167.667 468.333L168.333 468.667L167.667 468.333M146.667 469.333L147.333 469.667L146.667 469.333M161 469L161 470L164 470L161 469M150 470L150 471L157 471L150 470M208 480C200.953 494.461 203.646 508.988 222 509L222 508C213.074 507.74 207.102 503.113 207 494L208 494L209 496C215.203 487.455 234.898 491.501 245 492.385C274.298 494.949 305.491 492 335 492L336 497L353 482L353 481L351 478L261 478L208 480M374 481L374 484L375 484L374 481z"/>
<path style="fill:#259fc8; stroke:none;" d="M208 494L207 494C207.107 525.133 243.572 493.59 256 495.228C269.082 496.953 264.148 512.736 274.015 517.821C292.362 527.276 321.082 506.798 336 498L335 492L239 492L220 492L213 490L208 496L208 494z"/>
<path style="fill:#568bb6; stroke:none;" d="M442 491L443 492L442 491M374.333 492.667L374.667 493.333L374.333 492.667M375 494L375 497L376 497L375 494M434 495L435 496L434 495M432 496L433 497L432 496M425 500L426 501L425 500M379 502L380 503L379 502M421 502L422 503L421 502M416.667 504.333L417.333 504.667L416.667 504.333M348 510L359 510L359 505C354.202 505.016 349.717 504.853 348 510M383.667 505.333L384.333 505.667L383.667 505.333z"/>
<path style="fill:#73779e; stroke:none;" d="M386.667 506.333L387.333 506.667L386.667 506.333z"/>
<path style="fill:#568bb6; stroke:none;" d="M411 506L411 507L414 507L411 506M388 507L388 508L391 508L388 507M406.667 508.333L407.333 508.667L406.667 508.333z"/>
<path style="fill:#b25171; stroke:none;" d="M347 509C347.234 516.122 356.491 519.558 359 512L347 509z"/>
<path style="fill:#568bb6; stroke:none;" d="M395 509L395 510L403 510L395 509z"/>
<path style="fill:#73779e; stroke:none;" d="M348 510L348 512L359 512L359 510L348 510z"/>
</svg>
