<?xml version="1.0" standalone="yes"?>
<svg xmlns="http://www.w3.org/2000/svg" width="559" height="509">
<path style="fill:#ffffff; stroke:none;" d="M0 0L0 509L559 509L559 0L0 0z"/>
<path style="fill:#aed2f1; stroke:none;" d="M501 59L503 68L507 66C506.36 61.9488 504.85 60.3518 501 59z"/>
<path style="fill:#95a0c3; stroke:none;" d="M504 66L504 73L505 73L505 68L510 68L504 66z"/>
<path style="fill:#5e79b8; stroke:none;" d="M505 68L506 77L507 77C507.265 73.806 507.628 70.8612 511 70L505 68z"/>
<path style="fill:#054df9; stroke:none;" d="M508 70C527.38 105.706 535 145.566 535 186L537 186L537 170L539 170L539 178C549.143 184.199 544.302 201.035 541.923 210C535.516 234.141 528.808 257.69 515.304 279.09C511.375 285.315 507.779 294.666 501 298L503 290C494.416 290.653 494.418 298.578 488.432 302.686C484.286 305.531 477.1 304.626 472.343 306.509C468.227 308.138 467.75 312.759 463 314L457 330C463.088 325.873 467.059 313.735 475 314L476 311C482.587 312.013 484.642 307.793 490 305L489 316L491 316L496 308L507 310L519 298C519.574 287.53 528.661 273.087 539 270L539 288L540 288C541.067 274.599 546.696 261.158 549.482 248C555.15 221.231 555.81 188.412 548 162L547 162L547 171L546 171L541 145L539 146C537.363 125.959 531.125 104.665 522.539 86.9962C519.753 81.261 515.051 70.3279 508 70z"/>
<path style="fill:#132c69; stroke:none;" d="M508 71C505.545 79.6278 518.029 85.1765 515.339 92.8326C513.098 99.2142 500.184 85.4081 498.411 94.1489C497.073 100.747 502.244 109.599 503.522 116C504.954 123.174 503.479 130.745 504.17 138C504.917 145.85 506.673 153.26 499 158C496.256 154.603 484.923 144.656 481.603 152.152C478.167 159.911 481.635 172.575 480.83 181C478.494 205.45 477.232 231.067 471.403 255C469.546 262.621 465.366 269.448 463.466 277C460.895 287.218 459.498 299.192 453.211 308C443.573 321.502 426.486 331.459 421 348L449 334L451 326C456.469 325.196 460.233 319.267 461 314L465 314C469.511 293.763 471.651 273.381 475.259 253.09C476.164 248.002 480.175 243.907 480.867 238.91C482.616 226.275 480.549 212.754 481.019 200.004C481.235 194.116 486.129 169.576 495 176C498.792 175.752 502.755 176.679 503 172L515 170L517 154L518 154L518 156L519 156L517 122L513 122L511 100L515 102C517.526 90.6669 517.145 79.6412 508 71z"/>
<path style="fill:#aed2f1; stroke:none;" d="M75 75L75 76L83 76L75 75z"/>
<path style="fill:#95a0c3; stroke:none;" d="M73 76L73 77L86 77L73 76z"/>
<path style="fill:#5e79b8; stroke:none;" d="M71 77L71 79L73 77L71 77z"/>
<path style="fill:#132e95; stroke:none;" d="M73 77L73 86L86 86L87 77L73 77z"/>
<path style="fill:#aed2f1; stroke:none;" d="M506 77L507 91L500 88L500 89L512 96C521.826 92.739 510.359 80.4469 506 77z"/>
<path style="fill:#0a32b5; stroke:none;" d="M99 330L123 348L122 345C137.636 349.222 144.965 367.938 163 368L161 360L179 366C172.46 356.112 164.307 347.304 157.364 337.715C154.975 334.415 153.874 329.232 150.468 326.797C146.624 324.048 143.515 328.47 143.279 332.015C142.898 337.741 146.322 344.123 149 349L151 348L155 360C151.096 357.969 146.291 358.738 142.76 356.2C125.741 343.967 116.313 318.22 115 298L111 298L107 264C104.733 260.358 109.274 253.78 103 253L99.054 196.985L100 174L91 174L91 170L81 170L81 166C77.3869 165.056 75.9438 163.613 75 160L69 158L69 154L63 154L61 140L65 140L66 144L71 142L71.3133 121.104L77 107L78 107L80 109L85 90L88 90L88 80L87 80L86 86L73 86L74 78C67.1474 80.3857 66.6843 86.1751 63.6767 92C57.5492 103.867 51.3492 115.369 46.9213 128C29.0202 179.064 37.9438 235.267 64.1705 282.421C70.7772 294.299 79.0289 305.355 87.4244 315.996C91.0796 320.629 97.2698 324.326 99 330z"/>
<path style="fill:#a0b1db; stroke:none;" d="M87 78L87 95L88 95C88.6951 89.5 90.5708 82.7133 87 78z"/>
<path style="fill:#95a0c3; stroke:none;" d="M509 79L511 82L509 79z"/>
<path style="fill:#aed2f1; stroke:none;" d="M494 84L496 94L495 87L499 88L494 84z"/>
<path style="fill:#5e79b8; stroke:none;" d="M65 86L65 89L66 89L65 86z"/>
<path style="fill:#95a0c3; stroke:none;" d="M495 87L495 92L496 92L496 89L500 89L495 87z"/>
<path style="fill:#132e95; stroke:none;" d="M517 88L515 102L511 100L513 122L517 122L519 156L518 156L518 154L517 154L515 170L503 172C502.401 176.34 498.616 175.561 495 176C487.394 167.3 481.393 193.294 481.054 198.039C480.113 211.212 483.495 225.998 480.722 238.91C479.795 243.228 476.55 246.894 475.456 251.285C471.281 268.05 467.511 288.698 467 306C472.095 303.487 473.681 297.188 478.343 294.857C483.213 292.423 490.832 294.594 495.125 290.841C506.342 281.034 512.19 265.86 517.505 252.17C529.909 220.219 536.134 186.576 532.83 152C531.609 139.222 529.757 126.403 526.417 114C524.094 105.371 519.1 96.9987 519 88L517 88z"/>
<path style="fill:#5e79b8; stroke:none;" d="M64.3333 89.6667L64.6667 90.3333L64.3333 89.6667z"/>
<path style="fill:#5a6999; stroke:none;" d="M496 89L497 95L498 95C499.806 91.7988 501.42 91.5973 505 92L496 89z"/>
<path style="fill:#132e95; stroke:none;" d="M85 90L80 109L78 107L77 107L71.3133 120.209L71 142L66 144L65 140L61 140L63 154L69 154L69 158L75 160C75.5837 163.971 77.0294 165.416 81 166L81 170L91 170L91 174L100 174L99.054 197.961L103 253C110.809 252.721 102.543 262.184 107 264C103.663 273.364 108.864 288.419 111 298L115 298C115.571 317.326 125.485 345.982 142.76 356.722C146.123 358.813 151.19 358.54 155 360L149 347L148 347C143.504 355.829 137.738 346.699 134.174 341.999C126.472 331.844 123.785 319.285 121.468 307C116.959 283.104 111.762 258.164 109.174 234C106.129 205.58 108.25 176.513 106 148L94 145C89.2945 153.444 82.9125 142.42 82.1883 136.996C79.972 120.399 86.6603 105.944 87 90L85 90z"/>
<path style="fill:#5e79b8; stroke:none;" d="M63.3333 91.6667L63.6667 92.3333L63.3333 91.6667z"/>
<path style="fill:#6fa2ea; stroke:none;" d="M524.333 91.6667L524.667 92.3333L524.333 91.6667M62.3333 93.6667L62.6667 94.3333L62.3333 93.6667z"/>
<path style="fill:#a0b1db; stroke:none;" d="M496 93L498 99L499 99L496 93z"/>
<path style="fill:#5e79b8; stroke:none;" d="M510 93L512 96L510 93z"/>
<path style="fill:#a0b1db; stroke:none;" d="M86.3333 96.6667L86.6667 97.3333L86.3333 96.6667M85 99L85 102L86 102L85 99z"/>
<path style="fill:#aed2f1; stroke:none;" d="M499 100L499 105L500 105L499 100z"/>
<path style="fill:#95a0c3; stroke:none;" d="M84.3333 102.667L84.6667 103.333L84.3333 102.667z"/>
<path style="fill:#5e79b8; stroke:none;" d="M500 105L500 108L501 108L500 105z"/>
<path style="fill:#6fa2ea; stroke:none;" d="M531.333 105.667L531.667 106.333L531.333 105.667z"/>
<path style="fill:#a0b1db; stroke:none;" d="M83 106L83 113L84 113L83 106z"/>
<path style="fill:#0479fc; stroke:none;" d="M529 108L539 146L541 145L546 171L547 171C547.064 147.823 540.276 128.615 532 107L529 108z"/>
<path style="fill:#6fa2ea; stroke:none;" d="M533.333 110.667L533.667 111.333L533.333 110.667z"/>
<path style="fill:#5e79b8; stroke:none;" d="M53.3333 111.667L53.6667 112.333L53.3333 111.667z"/>
<path style="fill:#5a6999; stroke:none;" d="M502.333 111.667L502.667 112.333L502.333 111.667z"/>
<path style="fill:#5e79b8; stroke:none;" d="M82 112L82 116L83 116L82 112z"/>
<path style="fill:#aed2f1; stroke:none;" d="M502 113L502 126L503 126L502 113z"/>
<path style="fill:#6fa2ea; stroke:none;" d="M534.333 113.667L534.667 114.333L534.333 113.667z"/>
<path style="fill:#95a0c3; stroke:none;" d="M51.3333 115.667L51.6667 116.333L51.3333 115.667z"/>
<path style="fill:#5a6999; stroke:none;" d="M503 115L503 126L504 126L503 115z"/>
<path style="fill:#6fa2ea; stroke:none;" d="M535 115L535 118L536 118L535 115z"/>
<path style="fill:#a0b1db; stroke:none;" d="M82 116C82 128.154 77.6247 141.998 93 142L92 138C97.8409 136.658 101.88 138.141 107 141L107 135L91 136L87 122L84 130L83 130L82 116z"/>
<path style="fill:#aed2f1; stroke:none;" d="M85 117L83 130L84 130L87 122L90 130L91 130L85 117z"/>
<path style="fill:#6fa2ea; stroke:none;" d="M536.333 118.667L536.667 119.333L536.333 118.667z"/>
<path style="fill:#aed2f1; stroke:none;" d="M537.333 120.667L537.667 121.333L537.333 120.667z"/>
<path style="fill:#5e79b8; stroke:none;" d="M47.3333 125.667L47.6667 126.333L47.3333 125.667z"/>
<path style="fill:#95a0c3; stroke:none;" d="M503 126L503 134L504 134L503 126z"/>
<path style="fill:#6fa2ea; stroke:none;" d="M539.333 126.667L539.667 127.333L539.333 126.667z"/>
<path style="fill:#a0b1db; stroke:none;" d="M46 127L46 130L47 130L46 127z"/>
<path style="fill:#aed2f1; stroke:none;" d="M540 128L540 131L541 131L540 128M91 130L91 136L100 135L100 134L91 130z"/>
<path style="fill:#a0b1db; stroke:none;" d="M541.333 132.667L541.667 133.333L541.333 132.667z"/>
<path style="fill:#5e79b8; stroke:none;" d="M44.3333 133.667L44.6667 134.333L44.3333 133.667z"/>
<path style="fill:#a0b1db; stroke:none;" d="M503 134C503 139.457 503.547 155.192 494 148L493 148C494.099 151.321 495.59 151.737 499 152L499 155L503 155L503 134z"/>
<path style="fill:#aed2f1; stroke:none;" d="M542 134L542 137L543 137L542 134z"/>
<path style="fill:#5e79b8; stroke:none;" d="M92 138L93 142L83 142L83 143C87.9483 144.432 105.237 141.088 106 147C109.555 138.177 98.2112 136.181 92 138z"/>
<path style="fill:#132c69; stroke:none;" d="M42 138C39.5072 145.41 30.3074 154.682 38 162C39.993 155.873 44.4866 144.083 42 138z"/>
<path style="fill:#5e79b8; stroke:none;" d="M41.3333 139.667L41.6667 140.333L41.3333 139.667z"/>
<path style="fill:#95a0c3; stroke:none;" d="M481 146L490 145C486.414 140.296 481.561 138.806 481 146z"/>
<path style="fill:#5a6999; stroke:none;" d="M504 140L503 155L499 155L499 152C493.935 151.193 482.069 137.595 481 151C488.481 148.426 493.506 153.433 499 158C505.709 155.178 506.641 146.294 504 140z"/>
<path style="fill:#aed2f1; stroke:none;" d="M107 141L107 161L108 161L107 141z"/>
<path style="fill:#5a6999; stroke:none;" d="M85 144C86.8011 148.708 92.1008 150.718 94 145L106 148L106 153L107 153L106 144L85 144z"/>
<path style="fill:#aed2f1; stroke:none;" d="M480 143L480 177L481 177L480 143z"/>
<path style="fill:#6fa2ea; stroke:none;" d="M544.333 143.667L544.667 144.333L544.333 143.667z"/>
<path style="fill:#a0b1db; stroke:none;" d="M545.333 145.667L545.667 146.333L545.333 145.667z"/>
<path style="fill:#0564b4; stroke:none;" d="M36 148C19.5448 174.713 27.7023 213.925 30 243L33 242L35 256L37 266L39 266L39 258L41 259L39 240L35 240L33.0147 180L36 148z"/>
<path style="fill:#0a32b5; stroke:none;" d="M533 154C533 198.142 527.634 239.518 505.316 278.421C503.27 281.988 497.259 289.319 493.657 291.259C489.123 293.703 483.045 292.749 478.343 294.514C472.844 296.578 465.749 308.38 465 314L473.185 306.509L489.125 302.686L503 290L501 298C508.205 295.867 512.084 285.128 515.897 279.09C520.056 272.502 525.732 263.745 527.193 256C527.931 252.088 526.454 248.114 527.46 244.171C530.97 230.405 536.566 216.685 537 202L541 202L541 212L542 212C543.148 204.346 550.606 181.395 539 178L539 170L537 170L537 186L535 186L535 154L533 154z"/>
<path style="fill:#5e79b8; stroke:none;" d="M32.3333 155.667L32.6667 156.333L32.3333 155.667z"/>
<path style="fill:#6fa2ea; stroke:none;" d="M547 156L547 159L548 159L547 156z"/>
<path style="fill:#0479fc; stroke:none;" d="M35 160L35 240L39 240L40 249L41 249L41 242L44 243C46.6621 231.787 40.9305 220.068 39.2994 209C36.8916 192.662 37 176.475 37 160L35 160z"/>
<path style="fill:#95a0c3; stroke:none;" d="M107 161L107 167L108 167L107 161z"/>
<path style="fill:#a0b1db; stroke:none;" d="M30 162L30 167L31 167L30 162z"/>
<path style="fill:#6fa2ea; stroke:none;" d="M549 165L549 173L550 173L549 165z"/>
<path style="fill:#5e79b8; stroke:none;" d="M107 167L107 172L108 172L107 167z"/>
<path style="fill:#5a6999; stroke:none;" d="M107 172L107 180L108 180L107 172z"/>
<path style="fill:#95a0c3; stroke:none;" d="M28.3333 173.667L28.6667 174.333L28.3333 173.667z"/>
<path style="fill:#aed2f1; stroke:none;" d="M550 173L550 180L551 180L550 173z"/>
<path style="fill:#95a0c3; stroke:none;" d="M480 177L480 184L481 184L480 177z"/>
<path style="fill:#aed2f1; stroke:none;" d="M27 178L27 186L28 186L27 178z"/>
<path style="fill:#a0b1db; stroke:none;" d="M108 178L108 186L109 186L108 178z"/>
<path style="fill:#6fa2ea; stroke:none;" d="M551.333 182.667L551.667 183.333L551.333 182.667z"/>
<path style="fill:#aed2f1; stroke:none;" d="M552 185L552 188L553 188L552 185z"/>
<path style="fill:#5e79b8; stroke:none;" d="M108 186L108 215L109 215L108 186M26 193L26 198L27 198L26 193z"/>
<path style="fill:#95a0c3; stroke:none;" d="M478 195L478 202L479 202L478 195z"/>
<path style="fill:#aed2f1; stroke:none;" d="M553 195L553 222L554 222L553 195z"/>
<path style="fill:#132e95; stroke:none;" d="M537 202L527 254L529 254C533.026 235.944 541 221.122 541 202L537 202z"/>
<path style="fill:#aed2f1; stroke:none;" d="M477 208L477 214L478 214L477 208z"/>
<path style="fill:#a0b1db; stroke:none;" d="M26 214L26 219L27 219L26 214z"/>
<path style="fill:#95a0c3; stroke:none;" d="M477 214L477 217L478 217L477 214z"/>
<path style="fill:#aed2f1; stroke:none;" d="M476 217L476 221L477 221L476 217z"/>
<path style="fill:#5a6999; stroke:none;" d="M476.333 221.667L476.667 222.333L476.333 221.667z"/>
<path style="fill:#aed2f1; stroke:none;" d="M109 223L109 232L110 232L109 223M27 225L27 229L28 229L27 225z"/>
<path style="fill:#95a0c3; stroke:none;" d="M475.333 226.667L475.667 227.333L475.333 226.667z"/>
<path style="fill:#aed2f1; stroke:none;" d="M552 227L552 232L553 232L552 227M474 231L474 238L475 238L474 231z"/>
<path style="fill:#5e79b8; stroke:none;" d="M28 232L28 235L29 235L28 232z"/>
<path style="fill:#5a6999; stroke:none;" d="M109 232L109 237L110 237L109 232z"/>
<path style="fill:#aed2f1; stroke:none;" d="M110 234L110 241L111 241L110 234z"/>
<path style="fill:#054df9; stroke:none;" d="M45 236L44 243L41 242L41 249L40 249L40 246L39 246L41 259L39 258C39 268.396 39.8704 280.189 46 289L47 289L41 266L45 266C47.7675 282.021 60.9985 298.063 70.206 311C73.6162 315.792 76.7659 323.503 83 324L83 328C90.3296 331.323 99.554 340.8 103 348L109 348L107 342C101.016 338.54 101.764 330.569 97.4514 325.6C85.2028 311.489 72.351 297.597 63.7099 280.715C56.5399 266.708 52.9797 249.061 45 236z"/>
<path style="fill:#a0b1db; stroke:none;" d="M550 237L550 241L551 241L550 237M29.3333 238.667L29.6667 239.333L29.3333 238.667z"/>
<path style="fill:#95a0c3; stroke:none;" d="M473.333 241.667L473.667 242.333L473.333 241.667z"/>
<path style="fill:#0a32b5; stroke:none;" d="M31 242C31 266.338 40.2719 290.934 50.0394 313C54.0299 322.015 64.3369 332.313 65 342L71 344L59.25 321.985L43.2238 282.91L35 256L33 242L31 242z"/>
<path style="fill:#aed2f1; stroke:none;" d="M30 243L30 248L31 248L30 243z"/>
<path style="fill:#a0b1db; stroke:none;" d="M111.333 243.667L111.667 244.333L111.333 243.667z"/>
<path style="fill:#95a0c3; stroke:none;" d="M472 245L472 248L473 248L472 245z"/>
<path style="fill:#aed2f1; stroke:none;" d="M471 248L471 253L472 253L471 248M549.333 248.667L549.667 249.333L549.333 248.667z"/>
<path style="fill:#5e79b8; stroke:none;" d="M112 249L112 255L113 255L112 249z"/>
<path style="fill:#6fa2ea; stroke:none;" d="M548.333 251.667L548.667 252.333L548.333 251.667z"/>
<path style="fill:#5e79b8; stroke:none;" d="M471 253L471 256L472 256L471 253z"/>
<path style="fill:#6fa2ea; stroke:none;" d="M547 254L547 257L548 257L547 254z"/>
<path style="fill:#5e79b8; stroke:none;" d="M32.3333 255.667L32.6667 256.333L32.3333 255.667z"/>
<path style="fill:#aed2f1; stroke:none;" d="M32.3333 257.667L32.6667 258.333L32.3333 257.667z"/>
<path style="fill:#95a0c3; stroke:none;" d="M113.333 258.667L113.667 259.333L113.333 258.667z"/>
<path style="fill:#5e79b8; stroke:none;" d="M33.3333 259.667L33.6667 260.333L33.3333 259.667z"/>
<path style="fill:#95a0c3; stroke:none;" d="M469 259L469 262L470 262L469 259z"/>
<path style="fill:#aed2f1; stroke:none;" d="M546 260L546 265L547 265L546 260z"/>
<path style="fill:#95a0c3; stroke:none;" d="M468 262L468 265L469 265L468 262z"/>
<path style="fill:#5e79b8; stroke:none;" d="M114 263L114 266L115 266L114 263M467.333 265.667L467.667 266.333L467.333 265.667z"/>
<path style="fill:#a0b1db; stroke:none;" d="M545.333 265.667L545.667 266.333L545.333 265.667z"/>
<path style="fill:#0479fc; stroke:none;" d="M41 266C41.0245 273.144 44.2583 278.267 46.0725 285C52.5047 308.871 62.3603 329.755 74.6613 351.289C79.4466 359.667 82.5179 373.048 93 376C88.031 365.872 76.0453 358.562 79 346L115 382L115 378L131 386C132.99 392.069 138.515 392.857 143.421 395.763C148.373 398.697 153.176 403 158.463 405.237C166.816 408.772 182.262 412.676 187 421L209 428C209.683 432.17 210.894 433.851 215 435L215 436L197 434C195.026 428.222 182.779 424.031 177.282 421.475C163.285 414.964 150.583 407.239 138.05 398.356C131.774 393.909 124.427 385.858 117 384L119 390L125 394L123 396L121 399L115 398L141 422L129 418L125 414L129 421L122 419C126.168 426.234 137.192 432.433 145 435C145 433.224 163.759 442.463 167.833 444.5C194.31 457.738 227.238 467 257 467L257 466C244.623 465.896 232.927 461.251 221 458.498C215.892 457.32 209.82 456.844 207 452L171 440L170 436C179.48 434.018 189.321 441.233 198.285 443.541C207.651 445.952 221.261 445.994 231 446L231 445L227 445L227 443L243 443C240.54 439.097 236.332 439.09 232 439L229 436L231 433L231 432L223 430L223 426L195 420L195 416C188.236 415.114 174.308 410.14 171 404C164.804 403.576 161.424 400.196 161 394L155 394L149.907 383.209L154 372L163 372L163 371L161 371L161 370L165 371L165 366C147.43 372.73 137.276 348.032 122 345L123 348L101 330C101.138 334.687 102.164 340.311 107 342L109 348L103 348C100.94 340.907 90.211 330.009 83 328L83 324C77.1214 323.04 74.281 315.569 70.9228 311C61.0459 297.56 49.492 282.299 45 266L41 266z"/>
<path style="fill:#95a0c3; stroke:none;" d="M466.333 267.667L466.667 268.333L466.333 267.667z"/>
<path style="fill:#5e79b8; stroke:none;" d="M115 268L115 271L116 271L115 268z"/>
<path style="fill:#aed2f1; stroke:none;" d="M544.333 268.667L544.667 269.333L544.333 268.667z"/>
<path style="fill:#5e79b8; stroke:none;" d="M465.333 270.667L465.667 271.333L465.333 270.667z"/>
<path style="fill:#0479fc; stroke:none;" d="M519 298C514.004 299.695 508.511 304.927 507 310L496 308L491 316L489 316L490 305L476 311L475 314C468.217 313.446 460.693 323.953 459 330L455 330L449 342L445 342L445 346L470 327L471 338L475 338L473 351L470 351C469.165 358.626 460.696 370.402 453 372L449 382L433 388C431.251 394.691 420.739 399.442 415.13 403.127C410.261 406.325 405.002 410.849 399.675 413.161C396.457 414.558 392.677 413.236 389.598 414.974C377.07 422.043 368.438 430.771 353 432L353 436L345 437L347 442C341.162 442.001 334.875 441.302 333 448L366 441C366 435.926 386.426 435.286 391 434.333C404.124 431.599 411.59 425.207 423 419.167C432.412 414.184 441.575 410.606 450 405.5C454.056 403.042 465.442 391.795 469 396L470 396L471 396L507.201 354.961L519 336L534.341 303.83L539 270C528.137 271.819 519.247 287.811 519 298z"/>
<path style="fill:#95a0c3; stroke:none;" d="M116 271L116 278L117 278L116 271z"/>
<path style="fill:#aed2f1; stroke:none;" d="M35 272L35 275L36 275L35 272z"/>
<path style="fill:#a0b1db; stroke:none;" d="M543.333 272.667L543.667 273.333L543.333 272.667z"/>
<path style="fill:#5e79b8; stroke:none;" d="M36.3333 274.667L36.6667 275.333L36.3333 274.667z"/>
<path style="fill:#a0b1db; stroke:none;" d="M36 276L36 279L37 279L36 276z"/>
<path style="fill:#aed2f1; stroke:none;" d="M542.333 276.667L542.667 277.333L542.333 276.667M541 278L541 284L542 284L541 278M37.3333 281.667L37.6667 282.333L37.3333 281.667z"/>
<path style="fill:#5e79b8; stroke:none;" d="M462 281L462 284L463 284L462 281z"/>
<path style="fill:#aed2f1; stroke:none;" d="M118 283L118 286L119 286L118 283z"/>
<path style="fill:#6fa2ea; stroke:none;" d="M540 283L540 292L541 292L540 283z"/>
<path style="fill:#95a0c3; stroke:none;" d="M39 285L39 288L40 288L39 285z"/>
<path style="fill:#aed2f1; stroke:none;" d="M119 288L119 293L120 293L119 288z"/>
<path style="fill:#132e95; stroke:none;" d="M539 288L529.177 315.192L519 336C512.305 338.339 503.076 358.234 503 365C509.112 362.612 515.881 352.624 515 346L521 346C522.424 339.941 527.424 332.835 533 330C533.468 323.633 538.022 321.106 540.804 315.871C545.486 307.06 543.535 296.514 539 288z"/>
<path style="fill:#aed2f1; stroke:none;" d="M40.3333 289.667L40.6667 290.333L40.3333 289.667z"/>
<path style="fill:#05b0fd; stroke:none;" d="M523 310C534.101 309.632 533 297.357 533 289C524.34 291.491 523.001 302.248 523 310z"/>
<path style="fill:#a0b1db; stroke:none;" d="M459.333 290.667L459.667 291.333L459.333 290.667z"/>
<path style="fill:#95a0c3; stroke:none;" d="M42.3333 293.667L42.6667 294.333L42.3333 293.667M119.333 293.667L119.667 294.333L119.333 293.667z"/>
<path style="fill:#5e79b8; stroke:none;" d="M43 295L43 298L44 298L43 295z"/>
<path style="fill:#95a0c3; stroke:none;" d="M541.333 295.667L541.667 296.333L541.333 295.667z"/>
<path style="fill:#a0b1db; stroke:none;" d="M120 296L121 302L122 302L120 296z"/>
<path style="fill:#95a0c3; stroke:none;" d="M542.333 297.667L542.667 298.333L542.333 297.667z"/>
<path style="fill:#aed2f1; stroke:none;" d="M134 299L131 303L131 304L137 319L140 319L140 316L144 316C143.644 309.143 140.275 302.187 134 299z"/>
<path style="fill:#a0b1db; stroke:none;" d="M543 299L544 306L545 306L543 299z"/>
<path style="fill:#95a0c3; stroke:none;" d="M456.333 301.667L456.667 302.333L456.333 301.667z"/>
<path style="fill:#5a6999; stroke:none;" d="M121 302L121 308L122 308L121 302z"/>
<path style="fill:#a0b1db; stroke:none;" d="M47.3333 306.667L47.6667 307.333L47.3333 306.667z"/>
<path style="fill:#6fa2ea; stroke:none;" d="M543.333 308.667L543.667 309.333L543.333 308.667z"/>
<path style="fill:#5e79b8; stroke:none;" d="M122 309L122 312L123 312L122 309M123.333 312.667L123.667 313.333L123.333 312.667z"/>
<path style="fill:#aed2f1; stroke:none;" d="M542.333 312.667L542.667 313.333L542.333 312.667z"/>
<path style="fill:#95a0c3; stroke:none;" d="M124 314L124 318L125 318L124 314z"/>
<path style="fill:#0a32b5; stroke:none;" d="M461 314L451 336C456.688 333.037 462.811 320.225 463 314L461 314z"/>
<path style="fill:#a0b1db; stroke:none;" d="M541.333 314.667L541.667 315.333L541.333 314.667z"/>
<path style="fill:#95a0c3; stroke:none;" d="M140 316L141 331L142 331L141 317L146 318L140 316z"/>
<path style="fill:#6fa2ea; stroke:none;" d="M540.333 316.667L540.667 317.333L540.333 316.667z"/>
<path style="fill:#aed2f1; stroke:none;" d="M52.3333 317.667L52.6667 318.333L52.3333 317.667z"/>
<path style="fill:#5a6999; stroke:none;" d="M141 317L143 331L150 326C148.081 321.15 146.494 317.632 141 317z"/>
<path style="fill:#a0b1db; stroke:none;" d="M53.3333 319.667L53.6667 320.333L53.3333 319.667z"/>
<path style="fill:#0564b4; stroke:none;" d="M537 319L533 330C527.01 331.863 521.824 339.941 521 346L515 346C514.982 350.067 507.009 366.751 503 362L488.885 378.399L461 408L475 402L475 398C480.724 397.167 490.115 392.019 491 386L501 382L501 381L501 380L499 380L499 379L499 378C506.39 374.352 513.633 364.339 517 357L519 358C526.074 346.484 536.598 332.473 539 319L537 319z"/>
<path style="fill:#aed2f1; stroke:none;" d="M539.333 319.667L539.667 320.333L539.333 319.667z"/>
<path style="fill:#95a0c3; stroke:none;" d="M147 320L149 323L147 320z"/>
<path style="fill:#a0b1db; stroke:none;" d="M125 324L125 327L126 327L125 324z"/>
<path style="fill:#132e95; stroke:none;" d="M451 326L449 334L433 340L433 341L433 342L435 350L449 342L455 326L451 326z"/>
<path style="fill:#054df9; stroke:none;" d="M503 326L491 346C482.52 347.452 473.232 358.35 467.333 364.329C457.666 374.128 448.114 382.348 437.568 390.597C430.395 396.208 426.646 401.525 417 404C415.168 410.055 410.53 410.43 405.514 412.834C398.077 416.398 383.29 423.193 379 430C397.512 429.453 410.344 414.64 427 410L427 406L436 404C436 399.45 444.883 396 449 396C449.999 387.872 467.436 373.976 475 372L479 362L483 362C488.494 349.02 504.862 340.742 507 326L503 326z"/>
<path style="fill:#05b0fd; stroke:none;" d="M387 380C390.696 379.882 393.864 379.882 395 376L409 375C402.288 385.844 382.345 393.958 370 394L371 392L363 394L363 397L395 394C388.57 405.944 371.583 405.03 360.3 408.47C344.872 413.174 328.158 413.429 312 416.665C299.25 419.219 283.013 425.368 270.039 423.871C260.714 422.795 253.845 417.163 245 415C248.482 409.102 268.024 409.882 275 409L272 401L267 401L268 399L219 398L219 400L227 406C214.767 405.999 205.146 401.408 193.911 397.24C188.509 395.236 182.064 394.523 181 388L173 383L181 383L181 382L154 372L149.462 383.209L155 394L161 394C161.202 400.663 164.337 403.798 171 404C173.091 410.349 188.655 415.573 195 416L195 420L223 426L223 430L231 432L231 433L229 436L232 439L243 443L227 443L227 445L231 445L231 446L203 444C206.039 448.742 213.845 448.208 219 449.197C233.616 451.999 247.178 453.855 261.996 455.058C272.446 455.906 281.921 458.574 293 457.957C309.2 457.055 325.911 452.445 342 450.209C352.716 448.72 364.579 449.416 374.961 446.076C388.402 441.752 404.105 433.865 416.829 427.486C423.425 424.18 427.319 419.307 435 418C436.669 412.666 449.65 407.497 455 408L449 416C457.891 411.86 468.378 401.976 474 394L471 396L470 396L469 396C465.645 391.395 453.58 402.323 450.005 404.884C441.56 410.934 431.487 413.995 422.13 419.324C411.401 425.434 403.454 431.571 391 434.194C385.991 435.25 366.794 435.256 366 441L333 448C335.77 441.927 341.015 442.004 347 442L345 437L353 436L353 432C368.95 431.313 377.445 421.845 390.376 414.974C393.281 413.43 396.646 414.51 399.675 413.491C405.208 411.629 411.111 406.353 415.996 403.127C421.463 399.515 431.997 394.822 433 388L449 382L453 372C461.184 371.061 469.571 358.865 470 351L473 351L475 338L471 338L470 327L449.171 343.236L411 367.272L387 380z"/>
<path style="fill:#5a6999; stroke:none;" d="M126.333 328.667L126.667 329.333L126.333 328.667z"/>
<path style="fill:#5e79b8; stroke:none;" d="M127.333 330.667L127.667 331.333L127.333 330.667z"/>
<path style="fill:#a0b1db; stroke:none;" d="M142 331L142 335L143 335L142 331z"/>
<path style="fill:#95a0c3; stroke:none;" d="M432 331L433 332L432 331z"/>
<path style="fill:#a0b1db; stroke:none;" d="M60 332L60 335L61 335L60 332z"/>
<path style="fill:#5e79b8; stroke:none;" d="M154.333 332.667L154.667 333.333L154.333 332.667z"/>
<path style="fill:#95a0c3; stroke:none;" d="M431 332L432 333L431 332z"/>
<path style="fill:#5e79b8; stroke:none;" d="M61.3333 334.667L61.6667 335.333L61.3333 334.667z"/>
<path style="fill:#132c69; stroke:none;" d="M62 334L61 346L57 346C57.7649 349.186 59.0585 351.266 61.3341 353.652C63.061 355.463 64.8332 357.283 66.6705 358.982C76.0103 367.617 77.3942 343.806 65 342L62 334z"/>
<path style="fill:#95a0c3; stroke:none;" d="M143.333 335.667L143.667 336.333L143.333 335.667z"/>
<path style="fill:#6fa2ea; stroke:none;" d="M47 336L47 340L48 340L52 339L47 336z"/>
<path style="fill:#aed2f1; stroke:none;" d="M61 336L58 341L58 345L58 346C62.3067 344.74 62.7828 339.7 61 336z"/>
<path style="fill:#5a6999; stroke:none;" d="M156 336L158 339L156 336M131.333 337.667L131.667 338.333L131.333 337.667z"/>
<path style="fill:#aed2f1; stroke:none;" d="M143 337L146 349L140 350L140 351C150.372 353.14 147.273 342.346 143 337M530.333 337.667L530.667 338.333L530.333 337.667z"/>
<path style="fill:#5e79b8; stroke:none;" d="M48 338L52 348L58 346L48 338z"/>
<path style="fill:#5a6999; stroke:none;" d="M132.333 339.667L132.667 340.333L132.333 339.667z"/>
<path style="fill:#0564b4; stroke:none;" d="M427 348L433 348L433 354C438.074 352.313 442.609 348.848 445 344L435 350L435 342L427 348z"/>
<path style="fill:#aed2f1; stroke:none;" d="M49.3333 343.667L49.6667 344.333L49.3333 343.667z"/>
<path style="fill:#5e79b8; stroke:none;" d="M146.333 343.667L146.667 344.333L146.333 343.667M162.333 344.667L162.667 345.333L162.333 344.667z"/>
<path style="fill:#95a0c3; stroke:none;" d="M421 345L422 346L421 345z"/>
<path style="fill:#054df9; stroke:none;" d="M53 346C54.6655 355.201 66.5513 371.974 75 376L71 369L104.87 401.606L119.424 412.428L129 418L141 422L109 392C97.0112 395.013 86.4247 371.665 75 370L57 346L53 346z"/>
<path style="fill:#06f6fe; stroke:none;" d="M79 346C75.0737 359.313 93.8778 381.862 107 384C104.783 367.357 89.1807 359.34 81 346L79 346z"/>
<path style="fill:#95a0c3; stroke:none;" d="M420 346L421 347L420 346M138.333 347.667L138.667 348.333L138.333 347.667z"/>
<path style="fill:#0a32b5; stroke:none;" d="M407 360C414.572 358.998 421.54 355.016 425 348C417.076 347.254 411.536 354.029 407 360z"/>
<path style="fill:#054df9; stroke:none;" d="M391 375C403.089 368.438 432.938 365.57 433 348C424.363 348.03 423.133 352.604 416.486 356.727C407.214 362.478 396.431 363.854 391 375z"/>
<path style="fill:#0a32b5; stroke:none;" d="M73 350C74.3389 355.075 75.5707 358.421 71 362L71 363L71 364L75 370L108 394L82.7461 366.269L73 350z"/>
<path style="fill:#95a0c3; stroke:none;" d="M415 351L416 352L415 351M414 352L415 353L414 352M410 356L411 357L410 356z"/>
<path style="fill:#132c69; stroke:none;" d="M517 357L499 380C508.061 378.793 519.231 366.536 517 357z"/>
<path style="fill:#054df9; stroke:none;" d="M161 360L165 371L161 370L161 371L163 371L163 372L160 373C171.404 380.671 191.138 389.591 205 390C197.295 376.888 176.003 361.999 161 360z"/>
<path style="fill:#aed2f1; stroke:none;" d="M517 360L516 363L517 360z"/>
<path style="fill:#95a0c3; stroke:none;" d="M514.333 365.667L514.667 366.333L514.333 365.667z"/>
<path style="fill:#05b0fd; stroke:none;" d="M71 369C76.9973 383.719 89.49 393.826 101.001 404.166C107.818 410.29 114.422 417.392 123 421L122 419L123 419L129 421C125.617 412.492 112.947 406.939 105.725 401.606C92.8222 392.077 84.0865 378.217 71 369z"/>
<path style="fill:#6fa2ea; stroke:none;" d="M183 369L184 370L183 369M184 370L185 371L184 370z"/>
<path style="fill:#0564b4; stroke:none;" d="M391 376L405 371C399.423 368.664 394.604 371.718 391 376z"/>
<path style="fill:#a0b1db; stroke:none;" d="M512.333 370.667L512.667 371.333L512.333 370.667z"/>
<path style="fill:#05b0fd; stroke:none;" d="M103 372L107 384L95 378C100.137 387.176 110.625 397.001 121 399L125 394L119 390L117 382L103 372z"/>
<path style="fill:#0a32b5; stroke:none;" d="M385 377L385 378L391 374L385 377z"/>
<path style="fill:#06f6fe; stroke:none;" d="M395 376C390.07 384.058 374.852 383.172 370 394C381.525 393.991 404.2 386.567 409 375L395 376z"/>
<path style="fill:#132e95; stroke:none;" d="M507 376L491 386L491 394L461 414C455.93 423.41 442.795 424.29 434.76 429.278C408.733 445.433 379.722 458.903 348 463L348 464C394.38 464 437 442.696 473.004 414.424C485.86 404.328 502.207 391.265 509 376L507 376z"/>
<path style="fill:#95a0c3; stroke:none;" d="M509 376L510 377L509 376z"/>
<path style="fill:#054df9; stroke:none;" d="M115 378C116.13 385.7 127.793 391.551 133.729 395.68C146.229 404.374 158.259 413.346 172.261 419.656C179.282 422.82 193.185 427.278 197 434L215 436L215 435L209 428L187 421C185.111 415.489 175.118 411.889 169.925 409.62C158.923 404.811 136.833 396.87 131 386L115 378z"/>
<path style="fill:#0a32b5; stroke:none;" d="M193 378C200.093 392.111 220.874 395.392 235 396L235 395L210 388.356L193 378z"/>
<path style="fill:#0479fc; stroke:none;" d="M356 386L356 387L359 387L359 388L351 390L351 394L347 394L347 398L357 398L357 402L351 406C345.809 406.122 341.491 407.097 339 412C352.756 412 363.879 408.277 377 404.545C383.808 402.608 392.353 402.046 395 394L363 397L363 394C371.154 392.914 382.872 385.004 387 378L356 386z"/>
<path style="fill:#6fa2ea; stroke:none;" d="M380.667 379.333L381.333 379.667L380.667 379.333z"/>
<path style="fill:#aed2f1; stroke:none;" d="M505.333 381.667L505.667 382.333L505.333 381.667z"/>
<path style="fill:#a0b1db; stroke:none;" d="M372.667 382.333L373.333 382.667L372.667 382.333z"/>
<path style="fill:#06f6fe; stroke:none;" d="M173 383L181 388C181.529 394.64 187.548 395.268 192.965 397.24C204.645 401.493 214.314 406 227 406L216 396.87L193.171 389.58L173 383z"/>
<path style="fill:#a0b1db; stroke:none;" d="M368.667 383.333L369.333 383.667L368.667 383.333z"/>
<path style="fill:#05b0fd; stroke:none;" d="M183 384L183 386L211 394C207.543 388.789 189.318 384.556 183 384z"/>
<path style="fill:#95a0c3; stroke:none;" d="M503 384L504 385L503 384z"/>
<path style="fill:#a0b1db; stroke:none;" d="M354.667 386.333L355.333 386.667L354.667 386.333z"/>
<path style="fill:#0564b4; stroke:none;" d="M310 391L310 392L319 392L319 393L279 398L279 399L283 399L283 402L289 406L261 412L261 416C287.095 421.819 312.963 417.345 339 412L339 410L291 414L289 408L299 406L299 402L289 402C295.822 395.392 309.108 395.743 318 394.576C321.647 394.097 326.495 394.866 329 392L341 392L341 394L337 394L338 396L331 396L331 400L349 402L347 406L351 406L357 402L357 398L347 398L347 394L351 394L351 390L359 388L343 389.05L310 391z"/>
<path style="fill:#6fa2ea; stroke:none;" d="M209.667 388.333L210.333 388.667L209.667 388.333z"/>
<path style="fill:#054df9; stroke:none;" d="M491 388L475 398L475 402C469.272 402.835 460.557 410.429 459 416L437 426L437 428C443.954 427.795 458.723 420.915 461 414L491 394L493 388L491 388z"/>
<path style="fill:#5e79b8; stroke:none;" d="M212 389L212 390L215 390L212 389z"/>
<path style="fill:#a0b1db; stroke:none;" d="M318 389L318 390L340 390L318 389M217.667 390.333L218.333 390.667L217.667 390.333M314 390L314 391L317 391L314 390z"/>
<path style="fill:#95a0c3; stroke:none;" d="M498 390L499 391L498 390M497 391L498 392L497 391z"/>
<path style="fill:#0479fc; stroke:none;" d="M211 392C214.295 398.53 220.552 398 227 398C240.701 398 254.367 398.887 268 399L267 401L272 401L275 409L271 409L271 410L289 406L283 402L283 399L279 399L279 398L282 398L282 397C258.097 397 234.527 396.433 211 392z"/>
<path style="fill:#6fa2ea; stroke:none;" d="M223 392L223 393L226 393L223 392z"/>
<path style="fill:#0479fc; stroke:none;" d="M300 392L300 393L319 393L300 392z"/>
<path style="fill:#132e95; stroke:none;" d="M329 392C319.205 399.421 296.773 390.328 289 402L299 402L299 406L289 408L291 414C305.858 414 340.779 418.18 349 402L331 400L331 396L338 396L337 394L341 394L341 392L329 392z"/>
<path style="fill:#aed2f1; stroke:none;" d="M230.667 393.333L231.333 393.667L230.667 393.333z"/>
<path style="fill:#6fa2ea; stroke:none;" d="M232.667 394.333L233.333 394.667L232.667 394.333z"/>
<path style="fill:#aed2f1; stroke:none;" d="M294 394L294 395L297 395L294 394z"/>
<path style="fill:#6fa2ea; stroke:none;" d="M91 395L94 397L91 395z"/>
<path style="fill:#aed2f1; stroke:none;" d="M237 395L237 396L252 396L237 395z"/>
<path style="fill:#a0b1db; stroke:none;" d="M252 396L252 397L261 397L252 396z"/>
<path style="fill:#aed2f1; stroke:none;" d="M261 396L261 397L269 397L261 396z"/>
<path style="fill:#a0b1db; stroke:none;" d="M277 396L277 397L284 397L277 396z"/>
<path style="fill:#132c69; stroke:none;" d="M303 411C317.801 414.524 329.3 408.256 343 405C334.575 401.465 305.817 400.691 303 411z"/>
<path style="fill:#0479fc; stroke:none;" d="M423 434L459 416L467 406C454.187 408.667 431.586 424.128 423 434z"/>
<path style="fill:#06f6fe; stroke:none;" d="M435 418L415.91 427.486L374.961 445.758L341 450.209L293 457.896L263.961 455.144L209.004 447.367L181 440L181 442L207 452C208.794 457.12 215.268 457.406 220 458.498C232.305 461.338 244.224 465.965 257 466L257 467L255 467L255 468C311.448 468 365.838 467.988 416 437.614C428.484 430.055 448.146 421.669 455 408C449.812 406.819 435.962 412.411 435 418M261 427L262 430L259 430C262.004 435.857 268.822 437.718 275 438L275 442L301 440.005L330.985 438.843L362.576 427.326L379 420C380.54 414.105 385.792 412.91 391 411C384.799 402.402 366.237 412.023 358 413.046C338.727 415.441 320.131 417.404 301 421.096C286.509 423.892 276.214 428.075 261 427z"/>
<path style="fill:#0479fc; stroke:none;" d="M245 415L269.09 423.871L291 422L291 420L261 416L261 412L267 412L267 410C261.627 410.018 246.783 409.935 245 415M291 419L291 420L313 417L291 419z"/>
<path style="fill:#0564b4; stroke:none;" d="M411 444L431 434L431 432C424.299 432.427 411.355 436.103 411 444z"/>
<path style="fill:#054df9; stroke:none;" d="M144 433C147.411 438.44 154.505 440.568 160 443.525C176.434 452.371 195.301 459.524 214 461L187.039 452.4L144 433z"/>
<path style="fill:#05b0fd; stroke:none;" d="M170 436L171 440L190 440C184.411 437.486 175.987 434.297 170 436z"/>
<path style="fill:#aed2f1; stroke:none;" d="M435.667 439.333L436.333 439.667L435.667 439.333z"/>
<path style="fill:#054df9; stroke:none;" d="M382 453L382 454L411 446L411 442L382 453z"/>
<path style="fill:#a0b1db; stroke:none;" d="M429.667 442.333L430.333 442.667L429.667 442.333z"/>
<path style="fill:#6fa2ea; stroke:none;" d="M163.667 445.333L164.333 445.667L163.667 445.333z"/>
<path style="fill:#95a0c3; stroke:none;" d="M423.667 445.333L424.333 445.667L423.667 445.333z"/>
<path style="fill:#6fa2ea; stroke:none;" d="M170.667 448.333L171.333 448.667L170.667 448.333z"/>
<path style="fill:#5e79b8; stroke:none;" d="M416.667 448.333L417.333 448.667L416.667 448.333z"/>
<path style="fill:#6fa2ea; stroke:none;" d="M172.667 449.333L173.333 449.667L172.667 449.333z"/>
<path style="fill:#aed2f1; stroke:none;" d="M412.667 450.333L413.333 450.667L412.667 450.333z"/>
<path style="fill:#6fa2ea; stroke:none;" d="M176.667 451.333L177.333 451.667L176.667 451.333z"/>
<path style="fill:#a0b1db; stroke:none;" d="M407.667 452.333L408.333 452.667L407.667 452.333z"/>
<path style="fill:#6fa2ea; stroke:none;" d="M184.667 454.333L185.333 454.667L184.667 454.333z"/>
<path style="fill:#aed2f1; stroke:none;" d="M402.667 454.333L403.333 454.667L402.667 454.333M190.667 456.333L191.333 456.667L190.667 456.333M396.667 456.333L397.333 456.667L396.667 456.333z"/>
<path style="fill:#5e79b8; stroke:none;" d="M193.667 457.333L194.333 457.667L193.667 457.333z"/>
<path style="fill:#6fa2ea; stroke:none;" d="M197 458L197 459L200 459L197 458z"/>
<path style="fill:#95a0c3; stroke:none;" d="M389.667 458.333L390.333 458.667L389.667 458.333z"/>
<path style="fill:#a0b1db; stroke:none;" d="M200.667 459.333L201.333 459.667L200.667 459.333z"/>
<path style="fill:#aed2f1; stroke:none;" d="M386.667 459.333L387.333 459.667L386.667 459.333z"/>
<path style="fill:#6fa2ea; stroke:none;" d="M203 460L203 461L210 461L203 460z"/>
<path style="fill:#05b0fd; stroke:none;" d="M355 462L361 461L355 462z"/>
<path style="fill:#5e79b8; stroke:none;" d="M382.667 460.333L383.333 460.667L382.667 460.333z"/>
<path style="fill:#6fa2ea; stroke:none;" d="M212 461L212 462L216 462L212 461z"/>
<path style="fill:#5e79b8; stroke:none;" d="M377 461L377 462L380 462L377 461z"/>
<path style="fill:#6fa2ea; stroke:none;" d="M218.667 462.333L219.333 462.667L218.667 462.333z"/>
<path style="fill:#a0b1db; stroke:none;" d="M374 462L374 463L377 463L374 462z"/>
<path style="fill:#aed2f1; stroke:none;" d="M220 463L220 464L223 464L220 463M224 464L224 465L235 465L224 464z"/>
<path style="fill:#05b0fd; stroke:none;" d="M328 466L328 467L349 465L328 466z"/>
<path style="fill:#aed2f1; stroke:none;" d="M349 464L349 465L369 465L349 464M236 465L236 466L246 467L236 465M247 467L247 468L255 468L247 467M322 467L322 468L330 468L322 467z"/>
<path style="fill:#05b0fd; stroke:none;" d="M265 468L265 469L303 470C293.381 465.964 275.573 468 265 468z"/>
<path style="fill:#6fa2ea; stroke:none;" d="M303 469L303 470L314 469L303 469z"/>
<path style="fill:#aed2f1; stroke:none;" d="M314 468L314 469L319 469L314 468M268 469L268 470L273 470L268 469M308 469L308 470L312 470L308 469z"/>
</svg>
