<?xml version="1.0" standalone="yes"?>
<svg xmlns="http://www.w3.org/2000/svg" width="587" height="599">
<path style="fill:#ffffff; stroke:none;" d="M0 0L0 599L587 599L587 0L0 0z"/>
<path style="fill:#e17e8e; stroke:none;" d="M392 18L392 19L434 19C423.012 14.3893 403.957 18 392 18z"/>
<path style="fill:#f79632; stroke:none;" d="M382.667 19.3333L383.333 19.6667L382.667 19.3333z"/>
<path style="fill:#f35c45; stroke:none;" d="M464 96L464 94L460 94L460 92L472 88L470.931 47.0394L469 36L474 37L472 34L476 32L477 32L480 34C476.562 28.115 471.443 31.6467 466 32L464 26L473 28C466.281 22.6556 455.176 22.5148 447 20.7893C418.962 14.8724 381.684 16.5482 355 27.0046C339.671 33.0115 323.81 47.9042 328.558 66C332.25 80.0751 348.854 84.5923 361 87.7006C393.546 96.0296 430.628 95.9081 464 96z"/>
<path style="fill:#f79632; stroke:none;" d="M312 20L312 21L317 21L312 32C322.327 36.17 325.599 20.632 312 20z"/>
<path style="fill:#f35c45; stroke:none;" d="M314 32L317 21C310.347 21.3685 306.452 29.495 314 32z"/>
<path style="fill:#e17e8e; stroke:none;" d="M372 21L372 22L377 22L372 21M365.667 23.3333L366.333 23.6667L365.667 23.3333z"/>
<path style="fill:#f79632; stroke:none;" d="M361 24L361 25L364 25L361 24M464 26L466 32C471.741 31.8305 475.633 29.0682 480 34L477 32L476 32L472 34L474 37L469 36L470.856 48.0146L472 88L460 92L460 94L464 94L464 96L460 96C474.426 103.853 486.111 109.648 492.79 126C494.482 130.143 492.887 146.857 498.148 147.469C503.599 148.103 510.921 141.823 514.999 138.848C531.333 126.934 541.213 107.486 537.381 87C531.115 53.4984 496.031 30.2373 464 26M131 28L131 29L136 29L131 28z"/>
<path style="fill:#f35c45; stroke:none;" d="M159 101L159 100L152 101L152 36L148 36L148 35L150 34L148 32L150 32L150 31C134.087 19.6627 107.922 36.9489 97.7492 48.7145C74.5894 75.4994 70.1079 119.918 89.439 150C97.2193 162.107 107.027 168.034 119.715 173.424C122.795 174.732 130.324 178.368 133.4 175.968C135.756 174.13 134.999 169.595 135 167L135.001 141C135.085 123.794 144.851 109.953 159 101z"/>
<path style="fill:#f79632; stroke:none;" d="M127.667 29.3333L128.333 29.6667L127.667 29.3333M123 30L123 31L126 31L123 30M148 35L148 36L152 36L152 101C157.233 100.128 164.697 100.012 169 97C173.239 94.0328 171.374 91.7533 172 88C172.418 85.4947 175.163 82.5072 176 81C176.939 79.3096 175.523 75.9072 176 74C178.045 65.8203 177.599 55.1988 174 48C170.168 40.3351 163.102 35.5512 156 32C154.331 31.1653 152.488 28.6179 150 30C145.49 32.5054 151.236 34.191 148 35z"/>
<path style="fill:#e17e8e; stroke:none;" d="M262 39L262 40L279 40L262 39z"/>
<path style="fill:#5d69b0; stroke:none;" d="M237 45L237 46C243.619 45.9263 248.101 42.761 254 47L248.348 49.5887L248.164 60.4637L250 93C262.684 93.5447 275.257 94 288 94C292.855 94 299.523 95.1454 303.961 92.821C320.777 84.0122 318.989 57.1652 303.996 48.3341C282.978 35.954 259.48 38.9907 237 45z"/>
<path style="fill:#32a4d5; stroke:none;" d="M178 94L300 95L300 94L250 93C248.671 82.093 241.953 51.4903 254 47C248.396 41.2779 234.491 46.0761 228 49.1196C209.818 57.6447 178.018 70.5712 178 94z"/>
<path style="fill:#e17e8e; stroke:none;" d="M327 55L327 63L328 63L327 55M313.333 58.6667L313.667 59.3333L313.333 58.6667M84.3333 70.6667L84.6667 71.3333L84.3333 70.6667M315.333 75.6667L315.667 76.3333L315.333 75.6667M81.3333 78.6667L81.6667 79.3333L81.3333 78.6667z"/>
<path style="fill:#5d69b0; stroke:none;" d="M174 81L174 85L175 85L174 81z"/>
<path style="fill:#e17e8e; stroke:none;" d="M348 84L348 85L351 85L348 84M173 85L172 90L173 90L173 85z"/>
<path style="fill:#5d69b0; stroke:none;" d="M179.333 85.6667L179.667 86.3333L179.333 85.6667z"/>
<path style="fill:#f79632; stroke:none;" d="M358 87L358 88L361 88L358 87z"/>
<path style="fill:#e17e8e; stroke:none;" d="M78 88L78 91L79 91L78 88M362 88L362 89L365 89L362 88z"/>
<path style="fill:#f35c45; stroke:none;" d="M325 95L339 94C334.754 89.4053 327.553 88.3273 325 95z"/>
<path style="fill:#e17e8e; stroke:none;" d="M369 90L369 91L373 91L369 90M337 91L339 94L333 94L333 95L345 95C343.657 90.954 340.935 91.0466 337 91M321 92L321 95L326 92L321 92z"/>
<path style="fill:#f79632; stroke:none;" d="M388 93L388 94L397 94L388 93z"/>
<path style="fill:#e17e8e; stroke:none;" d="M77 100L77 114L78 114L77 100z"/>
<path style="fill:#f79632; stroke:none;" d="M141.333 117.667L141.667 118.333L141.333 117.667M139 120L139 122L141 120L139 120z"/>
<path style="fill:#e17e8e; stroke:none;" d="M78 121L78 124L79 124L78 121z"/>
<path style="fill:#f79632; stroke:none;" d="M138.333 123.667L138.667 124.333L138.333 123.667z"/>
<path style="fill:#e17e8e; stroke:none;" d="M81 131L81 134L82 134L81 131z"/>
<path style="fill:#f79632; stroke:none;" d="M84.3333 140.667L84.6667 141.333L84.3333 140.667z"/>
<path style="fill:#5d69b0; stroke:none;" d="M508 153.61C490.238 158.01 495 175.326 495 190C495 194.362 492.617 207.762 500.019 206.307C511.648 204.021 529.443 195.4 534.297 184C541.512 167.055 526.084 149.129 508 153.61z"/>
<path style="fill:#e17e8e; stroke:none;" d="M517.667 154.333L518.333 154.667L517.667 154.333M520 155L520 156L523 156L520 155z"/>
<path style="fill:#f35c45; stroke:none;" d="M65.0008 159.588C52.5064 162.519 53.9773 184.708 67.7353 181.471C76.282 179.461 77.6459 156.621 65.0008 159.588z"/>
<path style="fill:#f79632; stroke:none;" d="M71 160L71 161C77.7165 166.597 71.9435 175.969 69 182C81.6804 181.587 82.617 163.29 71 160z"/>
<path style="fill:#e17e8e; stroke:none;" d="M536 168L536 175L537 175L536 168M117 172L117 173L121 174L121 173L117 172z"/>
<path style="fill:#f79632; stroke:none;" d="M123 175L123 176L128 176L123 175z"/>
<path style="fill:#e17e8e; stroke:none;" d="M60 180C63.7954 184.107 67.7684 183.957 73 183L60 180z"/>
<path style="fill:#32a4d5; stroke:none;" d="M96 186.425C68.0349 190.221 47.2771 213.539 64.2099 241C73.3482 255.82 91.1967 265.647 107 271.684C113.295 274.089 123.018 281.047 129.981 279.639C139.01 277.814 135 250.199 135 243C135 230.988 139.052 210.234 134.397 199.185C129.941 188.61 105.765 185.1 96 186.425z"/>
<path style="fill:#e17e8e; stroke:none;" d="M87.6667 187.333L88.3333 187.667L87.6667 187.333M533 205L533 206L542 206L533 205z"/>
<path style="fill:#f35c45; stroke:none;" d="M546 211L543 206C540.119 206 536.825 205.59 534.015 206.318C516.108 210.955 539.739 236.945 545.486 218.957C546.283 216.461 545.998 213.583 546 211z"/>
<path style="fill:#f79632; stroke:none;" d="M542 207L546 211C545.983 215.923 545.693 219.479 542 223L542 224C551.034 221.29 549.026 212.188 545 206L542 207z"/>
<path style="fill:#e17e8e; stroke:none;" d="M496 222L496 223L500 223L496 222z"/>
<path style="fill:#5d69b0; stroke:none;" d="M495 223L495 273L495 311C495 315.94 493.667 323.265 495.742 327.852C497.801 332.402 504.964 331.002 509 331C522.194 330.995 538.491 327.547 547.39 316.95C574.239 284.976 531.777 223.763 495 223z"/>
<path style="fill:#e17e8e; stroke:none;" d="M501.667 223.333L502.333 223.667L501.667 223.333M532 224L532 225L544 225L532 224M552.333 275.667L552.667 276.333L552.333 275.667M134 277L128 280L128 281C131.061 280.9 134.867 280.86 134 277M554.333 281.667L554.667 282.333L554.333 281.667z"/>
<path style="fill:#f79632; stroke:none;" d="M108 285L108 286L125 286L108 285z"/>
<path style="fill:#f35c45; stroke:none;" d="M134 288L128 286C118.929 287.497 110.041 284.784 101 287.749C91.174 290.972 82.1195 302.258 91.2284 311.79C97.369 318.216 107.637 320.877 116 322.661C120.768 323.678 129.647 326.132 133.397 321.682C136.698 317.763 135 308.8 135 304C135 298.598 135.258 293.283 134 288z"/>
<path style="fill:#5d69b0; stroke:none;" d="M121 286L121 287L126 287L121 286z"/>
<path style="fill:#e17e8e; stroke:none;" d="M128.667 286.333L129.333 286.667L128.667 286.333M100.667 287.333L101.333 287.667L100.667 287.333z"/>
<path style="fill:#5d69b0; stroke:none;" d="M128 287L128 288L133 289L128 287z"/>
<path style="fill:#e17e8e; stroke:none;" d="M87 298L87 305L88 305L87 298z"/>
<path style="fill:#f79632; stroke:none;" d="M101.667 318.333L102.333 318.667L101.667 318.333z"/>
<path style="fill:#e17e8e; stroke:none;" d="M106.667 320.333L107.333 320.667L106.667 320.333M134 321L125 324L125 325L135 325L134 321z"/>
<path style="fill:#f79632; stroke:none;" d="M114.667 322.333L115.333 322.667L114.667 322.333z"/>
<path style="fill:#e17e8e; stroke:none;" d="M118.667 323.333L119.333 323.667L118.667 323.333z"/>
<path style="fill:#32a4d5; stroke:none;" d="M112 340.518C83.0532 346.656 67.0018 372.911 67 401C66.9984 426.525 76.671 449.722 107 443.521C114.893 441.907 132.732 432.586 135.991 424.957C137.974 420.313 136.062 414.847 136.004 410C135.861 398.004 136 385.997 136 374C136 366.859 139.321 348.459 134.972 342.703C131.359 337.92 117.13 339.43 112 340.518z"/>
<path style="fill:#f35c45; stroke:none;" d="M524 462L524 460L512 460L512 458L520 458L518 454L524 454C531.572 432.988 515.388 406.674 530 388L530 387L530 386L528 380L530 380L532 384L531 381C534.531 378.421 533.356 375.747 532 372C536.602 367.978 531.507 360.651 530 356L512 348C510.503 343.742 498.041 340.374 495.603 345.318C493.189 350.215 495 359.608 495 365C495 382.507 499.274 406.672 492.409 423C489.93 428.896 475.938 443.42 479.032 448.791C481.487 453.051 487.788 454.008 492 455.544C502.736 459.458 512.44 462 524 462z"/>
<path style="fill:#e17e8e; stroke:none;" d="M512 346L529 356C524.912 350.495 518.728 347.162 512 346z"/>
<path style="fill:#f79632; stroke:none;" d="M530 357C531.651 362.067 535.67 367.129 532 372L532 384L530 380L528 380L530 386L530 387L530 388C517.049 399.022 526.781 424.083 527.164 438C527.322 443.72 525.274 448.598 524 454L518 454L520 458L512 458L512 460L524 460L522 462L522 463C527.223 463 532.723 463.498 537.911 462.871C541.262 462.466 544.853 460.952 548.001 459.757C557.585 456.117 560.594 446.52 554.775 438.004C547.362 427.153 528.642 421.171 526.359 406.989C523.797 391.08 547.99 370.937 530 357z"/>
<path style="fill:#f35c45; stroke:none;" d="M526 401L527 412L528 412L526 401z"/>
<path style="fill:#e17e8e; stroke:none;" d="M145 443L145 444L152 444L145 443z"/>
<path style="fill:#f35c45; stroke:none;" d="M254 456L160 454C159.252 444.285 148.731 442.563 141 445.63C128.794 450.474 117.768 464.489 123.26 478C130.238 495.166 146.71 500.972 164 501C190.775 501.043 211.546 492.584 232.285 475.594C238.879 470.193 251.298 464.452 254 456z"/>
<path style="fill:#e17e8e; stroke:none;" d="M160 450L160 454L252 456L228 454.91L160 450M460 452L460 453L464 453L460 452z"/>
<path style="fill:#5d69b0; stroke:none;" d="M279 454L279 455L352 458L352 462L344 462L344 464L356.142 466.318L358 481L360 518C361.951 522.849 355.548 521.331 353 520L336 522L336 524C373.479 526.958 421.855 536.563 456 515.701C473.341 505.106 480.606 492.295 476.448 472C475.213 465.968 472.421 457.383 466.699 454.028C462.288 451.441 455.729 453.587 451 453.91C439.435 454.702 427.592 454 416 454L279 454z"/>
<path style="fill:#f79632; stroke:none;" d="M246 454L246 455L255 458L256 454L246 454z"/>
<path style="fill:#32a4d5; stroke:none;" d="M336 524L353 520C355.556 521.934 364.117 521.898 360 518L358 479L356.142 465.603L344 464L344 462L352 462L352 458C332.541 457.933 312.777 455 293 455C286.799 455 276.527 452.308 271.09 455.434C256.196 463.995 258.273 485.117 268.301 496.09C286.714 516.236 311.121 518.313 336 524z"/>
<path style="fill:#e17e8e; stroke:none;" d="M491.667 455.333L492.333 455.667L491.667 455.333M122 462L122 465L123 465L122 462M125 481L125 484L126 484L125 481M476.333 492.667L476.667 493.333L476.333 492.667z"/>
<path style="fill:#f35c45; stroke:none;" d="M245 517L242 516L241 499L246 500C234.759 481.988 209.738 510.62 229.093 518.397C231.199 519.243 233.779 519.021 236 518.996C239.391 518.958 241.958 518.464 245 517z"/>
<path style="fill:#f79632; stroke:none;" d="M240.667 495.333L241.333 495.667L240.667 495.333M241 499L242 516C251.767 513.915 249.258 501.261 241 499z"/>
<path style="fill:#e17e8e; stroke:none;" d="M163 501L163 502L174 502L163 501z"/>
<path style="fill:#f79632; stroke:none;" d="M222.333 509.667L222.667 510.333L222.333 509.667M230 519L230 520L239 520L230 519z"/>
<path style="fill:#e17e8e; stroke:none;" d="M367.667 526.333L368.333 526.667L367.667 526.333M411 527L411 528L417 528L411 527z"/>
</svg>
