<?xml version="1.0" standalone="yes"?>
<svg xmlns="http://www.w3.org/2000/svg" width="530" height="571">
<path style="fill:#ffffff; stroke:none;" d="M0 0L0 571L530 571L530 0L0 0z"/>
<path style="fill:#76a56c; stroke:none;" d="M263 47L263 46L258 46L258 17L263 17C242.542 8.41547 232.809 43.9496 254 47.2654C257.213 47.7682 259.841 47.7258 263 47z"/>
<path style="fill:#c88540; stroke:none;" d="M258 17L258 46C278.022 45.9292 278.143 17.1822 258 17z"/>
<path style="fill:#a4c6ab; stroke:none;" d="M243 23L241 34L242 34L243 23M272.333 24.6667L272.667 25.3333L272.333 24.6667M273 27L273 36L274 36L273 27M319 40L319 41L331 41L319 40z"/>
<path style="fill:#76a56c; stroke:none;" d="M378 115L372 110L374 58L368 58L368 54L372 54L372 53L368 52L370 46C347.46 43.1514 320.709 34.9792 299 46.1312C281.288 55.2296 266.71 87.3656 285.61 103.397C291.866 108.703 308.523 102.189 316 102.015C337.671 101.51 357.476 110.125 378 115z"/>
<path style="fill:#ef4928; stroke:none;" d="M246 78C245.617 69.0148 232.63 62.2996 226 57.5363C208.316 44.8317 180.729 33.4921 163.185 53.0146C152.506 64.8986 150.585 83.0711 134 89.6157C114.808 97.1891 76.9179 81.9432 68.8002 109C62.8499 128.832 77.855 145.854 93.8302 154.811C98.6536 157.515 104.035 162.328 109.985 161.798C115.585 161.299 117.399 154.8 120.39 151C126.388 143.378 133.762 136.59 141 130.173C162.759 110.883 193.745 104 222 104C232.758 104 242.586 106.2 253.039 106.946C255.729 107.138 261.082 107.844 262.968 105.397C268.236 98.5606 251.3 80.9268 246 78z"/>
<path style="fill:#c88540; stroke:none;" d="M178.667 44.3333L179.333 44.6667L178.667 44.3333z"/>
<path style="fill:#a4c6ab; stroke:none;" d="M356 44L356 45L360 45L356 44z"/>
<path style="fill:#c88540; stroke:none;" d="M370 46L368 52L372 53L372 54L368 54L368 58L374 58L372 110C376.337 111.732 378.188 115.438 382.058 117.822C393.659 124.97 405.533 131.946 414.946 142.001C419.417 146.776 424.192 159.662 432.004 159.302C437.561 159.047 442.927 151.017 445.957 147C457.883 131.187 461.313 111.245 452.19 93C436.351 61.3261 400.95 54.1884 370 46z"/>
<path style="fill:#a4c6ab; stroke:none;" d="M252 47L252 48L256 48L252 47M399 54L399 55L404 55L399 54M409.667 57.3333L410.333 57.6667L409.667 57.3333M411.667 58.3333L412.333 58.6667L411.667 58.3333z"/>
<path style="fill:#c88540; stroke:none;" d="M155.333 65.6667L155.667 66.3333L155.333 65.6667z"/>
<path style="fill:#a4c6ab; stroke:none;" d="M277 73L277 83L278 83L277 73z"/>
<path style="fill:#c88540; stroke:none;" d="M246 76C249.714 83.7392 276.509 106.921 254 107L254 108L267 108C266.872 96.365 256.527 80.9098 246 76M136.667 88.3333L137.333 88.6667L136.667 88.3333z"/>
<path style="fill:#a4c6ab; stroke:none;" d="M93 91L93 92L129 92C119.44 87.9886 103.387 91 93 91z"/>
<path style="fill:#c88540; stroke:none;" d="M87.6667 93.3333L88.3333 93.6667L87.6667 93.3333M83 94L83 95L86 95L83 94z"/>
<path style="fill:#a4c6ab; stroke:none;" d="M267 103L267 108L262 108L262 109L268 109L267 103z"/>
<path style="fill:#c88540; stroke:none;" d="M235 104L235 105L242 105L235 104z"/>
<path style="fill:#a4c6ab; stroke:none;" d="M294 104L294 105L300 105L294 104z"/>
<path style="fill:#c88540; stroke:none;" d="M244 105L244 106L249 106L244 105z"/>
<path style="fill:#a4c6ab; stroke:none;" d="M194.667 106.333L195.333 106.667L194.667 106.333z"/>
<path style="fill:#c88540; stroke:none;" d="M186 107L186 108L190 108L186 107M183.667 108.333L184.333 108.667L183.667 108.333M67 113L67 119L68 119L67 113M167.667 113.333L168.333 113.667L167.667 113.333z"/>
<path style="fill:#a4c6ab; stroke:none;" d="M146 125L146 126L150 125L146 125M450 139L448 145L449 145L450 139z"/>
<path style="fill:#ef4928; stroke:none;" d="M478 140.519C456.315 145.25 464.149 179.362 486 174.61C509.152 169.575 501.943 135.295 478 140.519z"/>
<path style="fill:#c88540; stroke:none;" d="M473.667 141.333L474.333 141.667L473.667 141.333M465.333 151.667L465.667 152.333L465.333 151.667z"/>
<path style="fill:#a4c6ab; stroke:none;" d="M500 151L500 154L501 154L500 151z"/>
<path style="fill:#c88540; stroke:none;" d="M93 154L96 156L93 154M500 154L500 160L501 160L500 154z"/>
<path style="fill:#a4c6ab; stroke:none;" d="M464 156L464 162L465 162L464 156z"/>
<path style="fill:#c88540; stroke:none;" d="M99.6667 158.333L100.333 158.667L99.6667 158.333M103.667 160.333L104.333 160.667L103.667 160.333M465.333 162.667L465.667 163.333L465.333 162.667z"/>
<path style="fill:#a4c6ab; stroke:none;" d="M466.333 165.667L466.667 166.333L466.333 165.667z"/>
<path style="fill:#c88540; stroke:none;" d="M41 166L41 167L50 167L41 166z"/>
<path style="fill:#ef4928; stroke:none;" d="M39 167.653C28.5299 170.942 27.809 186.031 33.8789 193.736C37.7664 198.671 47.3397 199.23 52.9846 197.486C61.8755 194.74 64.6488 181.362 60.142 174.015C55.9512 167.184 46.3211 165.353 39 167.653z"/>
<path style="fill:#a4c6ab; stroke:none;" d="M489 173L489 174L493 173L489 173M478 175L478 176L485 176L478 175M30.3333 176.667L30.6667 177.333L30.3333 176.667z"/>
<path style="fill:#c88540; stroke:none;" d="M62 179L62 186L63 186L62 179z"/>
<path style="fill:#76a56c; stroke:none;" d="M134 434L130 433L133 425L138 427C126.676 410.924 112.756 399.055 105.428 380C98.1409 361.051 92.6972 338.332 94.0895 318C94.9516 305.41 99.8984 293.298 100.907 281C102.389 262.916 95.43 245.093 95.0147 227C94.674 212.161 101.581 198.479 102 184C95.516 185.086 93.3525 191.003 89.6404 195.715C74.2678 215.225 85.282 245.217 82.8341 268C81.0939 284.196 70.679 298.507 62.2276 312C49.0472 333.043 38.3078 356.454 44.76 382C51.8091 409.909 71.9001 448.956 97 464.074C106.11 469.561 114.679 470.05 125 469.999C128.491 469.982 133.598 470.363 135.527 466.721C140.035 458.211 134.001 443.13 134 434z"/>
<path style="fill:#c88540; stroke:none;" d="M446 218C449.443 218 448 224.133 448 227C448 236.411 447 245.705 447 255L446 255L446 249L445 249L446 260L445 260L445 257L444 257C444 267.104 441.348 276.878 442.09 287C443.541 306.794 449.482 327.017 445.83 347C443.817 358.018 441.754 369.605 437.555 380C435.647 384.722 430.183 391.773 431.336 396.961C432.588 402.589 440.492 407.176 444.91 410.166C456.427 417.958 469.387 425.62 483.999 419.03C504.142 409.946 491.806 379.685 483.366 367C480.375 362.506 478.402 355.795 473 354C472.949 347.952 469.933 343.706 469.143 338C467.905 329.05 470.562 319.397 473.401 311C482.423 284.314 501.303 261.986 497.715 232C495.256 211.455 480.662 187.495 458 185.997C454.043 185.735 445.075 181.564 442.042 185.603C439.956 188.382 442.481 193.148 443.245 196C445.271 203.571 446.969 210.158 446 218z"/>
<path style="fill:#a4c6ab; stroke:none;" d="M102 185L102 189L103 189L102 185M452 185L452 186L460 186L452 185z"/>
<path style="fill:#c88540; stroke:none;" d="M31 188L31 191L32 191L31 188z"/>
<path style="fill:#a4c6ab; stroke:none;" d="M91 192L89 197L90 197L91 192z"/>
<path style="fill:#c88540; stroke:none;" d="M36.6667 196.333L37.3333 196.667L36.6667 196.333M41 198L41 199L52 199L41 198z"/>
<path style="fill:#a4c6ab; stroke:none;" d="M97 201L97 211L98 211L97 201z"/>
<path style="fill:#836048; stroke:none;" d="M445 203L446 215L447 215L445 203z"/>
<path style="fill:#a4c6ab; stroke:none;" d="M488.333 206.667L488.667 207.333L488.333 206.667M81 215L81 229L82 229L81 215z"/>
<path style="fill:#836048; stroke:none;" d="M447 217L446 255L447 255C447.232 243.778 451.44 227.582 447 217z"/>
<path style="fill:#a4c6ab; stroke:none;" d="M95 218L96 238L97 238L95 218M97 245L97 249L98 249L97 245M497 247L497 254L498 254L497 247z"/>
<path style="fill:#836048; stroke:none;" d="M445 255L445 260L446 260L445 255z"/>
<path style="fill:#a4c6ab; stroke:none;" d="M496.333 255.667L496.667 256.333L496.333 255.667M81 272L81 278L82 278L81 272M441 277L441 288L442 288L441 277M80.3333 278.667L80.6667 279.333L80.3333 278.667M97 292L97 297L98 297L97 292M477 299L476 303L477 303L477 299z"/>
<path style="fill:#836048; stroke:none;" d="M445 305L445 310L446 310L445 305z"/>
<path style="fill:#a4c6ab; stroke:none;" d="M95 306L95 313L96 313L95 306M473.333 309.667L473.667 310.333L473.333 309.667M94 314L94 338L95 338L94 314M52.3333 328.667L52.6667 329.333L52.3333 328.667z"/>
<path style="fill:#836048; stroke:none;" d="M446 329L445 350L446 350L446 329z"/>
<path style="fill:#a4c6ab; stroke:none;" d="M473 350L475 354L473 350M43 354L43 372L44 372L43 354M482.333 365.667L482.667 366.333L482.333 365.667M434 386L434 389L435 389L434 386M494 390L494 405L495 405L494 390M445 410L448 412L445 410z"/>
<path style="fill:#c88540; stroke:none;" d="M397 433L406 428L408 431L410 439L408 446L412 446L415 459L416 459L416 446L418 446L418 462L414 462L414 472L411 473L417 477L417 478L406 480L406 486L410 484L411 484L412 484L412 486L413 486C427.954 475.577 427.946 451.174 425.245 435C424.468 430.347 422.556 419.712 417.613 417.623C411.674 415.112 400.013 428.811 397 433z"/>
<path style="fill:#a4c6ab; stroke:none;" d="M461 420L461 421L466 421L461 420z"/>
<path style="fill:#c88540; stroke:none;" d="M133 425L130 433L134 434L136 468C143.962 465.691 165.283 455.957 163.573 445.13C162.985 441.403 157.857 439.864 155 438.334C147.302 434.212 141.423 427.832 133 425z"/>
<path style="fill:#ef4928; stroke:none;" d="M188 453C190.704 468.978 195.755 483.75 212 490.74C235.184 500.716 258.477 487.441 282 489.09C304.72 490.682 322.657 504.074 344 509.402C362.656 514.059 381.603 511.252 398 501.769C405.239 497.582 412.119 491.482 416 484L414 486L413 486L412 486L412 484L411 484L410 484L406 486L406 480L417 478L417 477L411 473L414 472L414 462L418 462L418 446L416 446L416 459L415 459L412 446L408 446L410 439L408 431L406 428C395.125 431.014 385.496 439.703 375 444.145C361.759 449.749 347.076 452.437 333 454.741C313.322 457.961 294.341 451.041 275 450.105C258.653 449.313 241.464 455.172 225 455.896C212.607 456.441 200.301 453.008 188 453z"/>
<path style="fill:#a4c6ab; stroke:none;" d="M151 436L154 438L151 436M453 438L453 439L467 439L453 438z"/>
<path style="fill:#76a56c; stroke:none;" d="M466 477C462.657 468.991 461.051 447.334 466 440C438.941 428.646 427.993 475.607 456 477.907C459.448 478.19 462.707 477.973 466 477z"/>
<path style="fill:#c88540; stroke:none;" d="M464 476L465 478C477.199 475.351 483.85 461.541 479.336 450.015C477.879 446.293 470.431 437.257 465.614 440.28C463.342 441.706 464.071 446.766 464.025 449.039C463.843 458.004 464.53 467.059 464 476z"/>
<path style="fill:#a4c6ab; stroke:none;" d="M160.667 441.333L161.333 441.667L160.667 441.333M364.667 447.333L365.333 447.667L364.667 447.333z"/>
<path style="fill:#c88540; stroke:none;" d="M271 449L271 450L281 451L271 449M267 450L267 451L270 451L267 450z"/>
<path style="fill:#a4c6ab; stroke:none;" d="M355.667 450.333L356.333 450.667L355.667 450.333z"/>
<path style="fill:#c88540; stroke:none;" d="M260 451L260 452L266 452L260 451M282 451L282 452L290 452L282 451M188 452L188 453L193 453L188 452M342 452L342 453L346 453L342 452z"/>
<path style="fill:#a4c6ab; stroke:none;" d="M480 452L480 455L481 455L480 452M299 453L299 454L304 454L299 453z"/>
<path style="fill:#c88540; stroke:none;" d="M200 454L200 455L210 455L200 454z"/>
<path style="fill:#a4c6ab; stroke:none;" d="M232 454L232 455L238 455L232 454z"/>
<path style="fill:#c88540; stroke:none;" d="M238 454L238 455L243 455L238 454M302 454L302 455L336 455L302 454M219 455L219 456L229 456L219 455z"/>
<path style="fill:#836048; stroke:none;" d="M188 456L189 464L190 464L188 456z"/>
<path style="fill:#c88540; stroke:none;" d="M188 461L188 464L189 464L188 461z"/>
<path style="fill:#a4c6ab; stroke:none;" d="M106.667 468.333L107.333 468.667L106.667 468.333M112 470L112 471L130 471L112 470z"/>
<path style="fill:#c88540; stroke:none;" d="M159 474L159 475L165 474L159 474z"/>
<path style="fill:#ef4928; stroke:none;" d="M181 482C175.342 481.057 175.201 470.45 165 473C160.944 474.014 155.312 475.29 152 478C142.054 486.138 149.075 505.865 159 510C164.774 512.406 169.051 510.062 174 508C176.107 507.122 180.638 504.496 182 502C184.762 496.937 180.533 483.868 181 482z"/>
<path style="fill:#c88540; stroke:none;" d="M176 476L181 482L182 500L183 500C184.723 490.719 185.45 480.958 176 476z"/>
<path style="fill:#a4c6ab; stroke:none;" d="M455 478L455 479L465 479L455 478M149 481L148 485L149 485L149 481z"/>
<path style="fill:#c88540; stroke:none;" d="M147 485L147 496L148 496L147 485z"/>
<path style="fill:#a4c6ab; stroke:none;" d="M184 486L184 495L185 495L184 486z"/>
<path style="fill:#c88540; stroke:none;" d="M207.667 488.333L208.333 488.667L207.667 488.333z"/>
<path style="fill:#a4c6ab; stroke:none;" d="M269 489L269 490L286 490L269 489z"/>
<path style="fill:#c88540; stroke:none;" d="M265 490L265 491L268 491L265 490z"/>
<path style="fill:#a4c6ab; stroke:none;" d="M289.667 490.333L290.333 490.667L289.667 490.333M212.667 491.333L213.333 491.667L212.667 491.333z"/>
<path style="fill:#c88540; stroke:none;" d="M293 491L293 492L298 492L293 491M217.667 492.333L218.333 492.667L217.667 492.333M302 493L302 494L305 494L302 493M223 494L223 495L229 495L223 494z"/>
<path style="fill:#a4c6ab; stroke:none;" d="M237 494L237 495L241 495L237 494z"/>
<path style="fill:#c88540; stroke:none;" d="M308.667 495.333L309.333 495.667L308.667 495.333M311.667 496.333L312.333 496.667L311.667 496.333M313 497L313 498L316 498L313 497z"/>
<path style="fill:#a4c6ab; stroke:none;" d="M148.333 498.667L148.667 499.333L148.333 498.667z"/>
<path style="fill:#c88540; stroke:none;" d="M316.667 498.333L317.333 498.667L316.667 498.333M318 499L318 500L322 501L322 500L318 499M322 501L322 502L327 503L322 501M329 504L329 505L332 505L329 504z"/>
<path style="fill:#a4c6ab; stroke:none;" d="M392 504L392 505L395 505L392 504z"/>
<path style="fill:#c88540; stroke:none;" d="M333 505L333 506L337 507L337 506L333 505z"/>
<path style="fill:#a4c6ab; stroke:none;" d="M386.667 507.333L387.333 507.667L386.667 507.333z"/>
<path style="fill:#c88540; stroke:none;" d="M170 509L170 510L175 509L170 509z"/>
<path style="fill:#a4c6ab; stroke:none;" d="M340.667 508.333L341.333 508.667L340.667 508.333M169.667 510.333L170.333 510.667L169.667 510.333z"/>
<path style="fill:#c88540; stroke:none;" d="M347 510L347 511L352 511L347 510M357 511L357 512L372 512L357 511z"/>
</svg>
