<?xml version="1.0" encoding="UTF-8"?>
<!-- Generator: visioncortex VTracer 0.6.3 -->
<svg version="1.1" xmlns="http://www.w3.org/2000/svg" width="500" height="500">
<path d="M0,0 L7,6 L29,28 L32,31 L30,27 L31,24 L41,31 L51,35 L63,35 L77,28 L91,18 L104,8 L107,7 L106,15 L103,23 L105,23 L102,33 L97,46 L92,62 L88,74 L80,86 L77,87 L76,68 L70,76 L69,73 L71,64 L67,68 L62,77 L48,92 L44,96 L41,96 L36,85 L33,74 L33,68 L31,68 L30,74 L28,85 L26,83 L22,66 L20,48 L19,46 L13,62 L8,80 L6,78 L5,74 L3,34 L0,24 L0,21 L2,21 L0,8 Z " fill="#FBF9E3" transform="translate(215,272)"/>
<path d="M0,0 L2,0 L9,18 L15,40 L18,61 L18,89 L15,110 L11,129 L3,151 L-5,167 L-12,179 L-24,195 L-35,207 L-46,216 L-59,225 L-78,235 L-96,241 L-113,244 L-125,244 L-125,242 L-110,242 L-110,240 L-127,240 L-128,244 L-149,244 L-160,242 L-180,235 L-193,228 L-192,226 L-185,227 L-171,227 L-168,226 L-148,231 L-139,232 L-119,232 L-97,228 L-78,221 L-65,214 L-51,204 L-39,193 L-28,180 L-17,163 L-7,142 L-2,127 L2,112 L4,100 L5,89 L5,59 L3,45 L2,42 L0,43 L-2,47 L-3,44 L0,35 L0,25 L-4,9 L-4,4 Z " fill="#C0B89E" transform="translate(383,189)"/>
<path d="M0,0 L15,0 L26,4 L32,8 L31,3 L38,9 L45,21 L47,26 L47,49 L44,56 L41,53 L40,40 L35,28 L28,19 L18,12 L12,10 L-5,10 L-19,17 L-28,27 L-32,37 L-32,51 L-28,62 L-21,69 L-11,74 L-8,75 L4,75 L14,74 L16,79 L5,84 L-10,89 L-6,91 L3,95 L10,100 L18,114 L19,122 L19,134 L17,136 L13,134 L13,132 L4,130 L-1,125 L-12,116 L-18,111 L-22,106 L-23,108 L-27,107 L-34,98 L-35,95 L-35,87 L-34,85 L-43,92 L-46,96 L-48,96 L-46,88 L-42,82 L-36,77 L-44,78 L-56,83 L-58,83 L-55,74 L-53,69 L-46,59 L-43,56 L-40,37 L-34,26 L-27,17 L-19,9 L-10,4 L-4,1 Z " fill="#F9F6E0" transform="translate(230,118)"/>
<path d="M0,0 L2,2 L4,10 L6,50 L7,54 L10,45 L17,24 L20,20 L22,35 L26,56 L27,59 L31,44 L33,44 L36,58 L41,70 L41,72 L46,69 L56,59 L62,51 L68,42 L72,39 L70,51 L76,43 L77,43 L77,63 L82,58 L88,48 L94,28 L98,16 L99,16 L99,30 L95,54 L87,70 L81,79 L72,89 L68,93 L66,93 L67,85 L68,72 L56,89 L48,99 L41,108 L38,107 L30,91 L25,77 L24,86 L21,83 L15,68 L13,74 L12,91 L7,86 L2,76 L-2,61 L-2,32 Z " fill="#FACD96" transform="translate(215,296)"/>
<path d="M0,0 L2,4 L3,17 L0,15 L-3,36 L-10,65 L-11,70 L-11,97 L-7,116 L-2,126 L13,131 L32,134 L48,135 L46,136 L46,138 L58,138 L59,144 L50,146 L30,146 L16,144 L1,140 L-15,133 L-27,126 L-32,123 L-41,124 L-46,125 L-36,133 L-21,142 L-6,149 L13,155 L20,156 L17,160 L21,164 L21,166 L19,167 L21,169 L10,168 L-8,163 L-19,158 L-35,150 L-48,141 L-52,134 L-56,133 L-57,129 L-60,129 L-60,123 L-63,121 L-63,119 L-54,117 L-50,116 L-42,115 L-41,113 L-27,111 L-24,109 L-24,80 L-20,60 L-10,30 L-8,14 L-3,14 L-2,10 L0,10 L0,7 L-2,6 Z " fill="#0B0807" transform="translate(214,276)"/>
<path d="M0,0 L3,4 L2,28 L1,39 L1,68 L5,83 L10,93 L13,97 L14,81 L17,73 L19,77 L25,92 L26,82 L28,84 L35,102 L41,114 L43,114 L53,101 L63,88 L70,78 L71,78 L70,92 L68,100 L76,93 L84,84 L94,66 L97,56 L100,37 L101,21 L107,6 L105,6 L106,4 L110,2 L112,1 L110,12 L107,24 L105,38 L105,66 L107,75 L107,81 L101,84 L91,86 L86,89 L82,94 L79,100 L74,104 L70,117 L61,120 L55,121 L25,121 L7,117 L-2,113 L-7,103 L-11,84 L-11,57 L-4,26 L-2,15 Z " fill="#CC965F" transform="translate(213,289)"/>
<path d="M0,0 L2,0 L4,3 L6,17 L6,47 L4,62 L2,73 L-4,94 L-10,109 L-19,126 L-31,143 L-43,156 L-52,164 L-58,165 L-59,164 L-59,158 L-56,153 L-53,153 L-52,149 L-49,149 L-49,144 L-60,145 L-67,146 L-70,150 L-70,148 L-75,148 L-76,147 L-77,149 L-84,148 L-82,144 L-77,142 L-67,140 L-63,139 L-64,129 L-63,127 L-65,122 L-65,105 L-63,103 L-62,105 L-59,106 L-58,108 L-57,127 L-55,131 L-54,137 L-43,139 L-33,126 L-27,115 L-28,107 L-31,97 L-31,91 L-24,85 L-20,86 L-20,91 L-16,92 L-15,86 L-12,79 L-8,62 L-7,55 L-7,12 L-4,9 L-1,1 Z " fill="#080605" transform="translate(383,231)"/>
<path d="M0,0 L7,6 L13,10 L22,13 L29,14 L30,26 L34,33 L37,37 L27,34 L21,30 L23,36 L31,47 L38,53 L43,56 L45,56 L44,50 L56,56 L60,57 L60,59 L40,61 L49,67 L60,71 L64,73 L57,76 L57,77 L66,77 L76,74 L82,72 L83,94 L70,98 L51,98 L42,94 L34,88 L29,83 L48,83 L36,78 L26,72 L19,66 L14,60 L14,58 L23,61 L14,50 L6,39 L3,30 L9,35 L6,23 L3,14 Z " fill="#7C391A" transform="translate(108,290)"/>
<path d="M0,0 L6,5 L12,13 L18,26 L17,30 L13,25 L18,43 L19,71 L25,81 L29,92 L29,100 L26,98 L24,110 L22,113 L20,109 L18,101 L17,97 L15,98 L16,105 L12,113 L6,118 L4,118 L5,114 L-5,120 L-11,120 L-11,118 L-15,118 L-13,123 L-20,121 L-22,118 L-21,114 L-18,111 L-10,107 L-8,107 L-8,103 L0,100 L-6,95 L-13,86 L-13,93 L-17,97 L-24,97 L-35,90 L-36,87 L-28,84 L-22,78 L-20,73 L-15,78 L-11,82 L-2,82 L6,78 L11,71 L14,62 L14,47 L11,36 L5,26 L-1,21 L-7,19 L-14,19 L-21,22 L-30,28 L-30,22 L-23,14 L-15,10 L-5,10 L5,15 L9,18 L4,8 L-1,4 Z " fill="#F7F4E0" transform="translate(338,120)"/>
<path d="M0,0 L2,0 L0,20 L-5,36 L-6,36 L-6,29 L-5,25 L-11,26 L-14,34 L-16,34 L-17,39 L-17,46 L-16,50 L-12,51 L-13,64 L-15,76 L-26,81 L-31,82 L-40,82 L-42,80 L-35,77 L-48,72 L-57,66 L-58,64 L-37,63 L-37,61 L-43,60 L-52,55 L-55,52 L-65,47 L-62,52 L-60,53 L-60,55 L-56,57 L-55,59 L-61,57 L-69,49 L-77,36 L-76,33 L-68,38 L-61,40 L-67,33 L-68,30 L-68,18 L-66,21 L-63,20 L-62,26 L-57,25 L-49,35 L-45,39 L-46,28 L-46,18 L-44,20 L-36,36 L-30,44 L-28,45 L-26,40 L-15,26 L-9,19 L-7,18 L-3,8 L0,3 Z " fill="#C57935" transform="translate(205,286)"/>
<path d="M0,0 L16,8 L35,17 L60,32 L76,42 L79,43 L87,43 L95,40 L112,29 L140,12 L143,11 L144,15 L146,16 L144,21 L140,23 L140,35 L138,35 L139,38 L136,37 L134,42 L136,43 L131,48 L127,43 L128,31 L113,40 L102,48 L88,55 L79,55 L72,52 L58,44 L47,37 L28,26 L18,22 L19,26 L19,42 L19,44 L19,49 L16,49 L16,51 L13,52 L12,47 L7,49 L5,49 L6,45 L8,45 L7,41 L10,40 L9,38 L13,38 L12,37 L8,36 L10,36 L10,27 L6,28 L4,22 L4,16 L3,11 L1,11 L3,6 L4,5 L0,2 Z " fill="#080504" transform="translate(195,239)"/>
<path d="M0,0 L6,0 L7,5 L6,7 L8,7 L10,3 L14,0 L15,11 L21,20 L31,26 L50,36 L62,42 L76,52 L90,63 L98,67 L111,67 L119,63 L133,51 L138,47 L147,41 L163,33 L172,27 L175,23 L177,18 L176,9 L179,10 L182,16 L183,24 L177,32 L167,41 L152,49 L139,57 L120,69 L110,75 L106,76 L98,76 L90,72 L79,65 L59,53 L40,43 L24,35 L13,28 L4,20 L0,13 L-1,10 L-1,2 Z " fill="#CB945C" transform="translate(176,207)"/>
<path d="M0,0 L11,3 L16,5 L30,6 L32,9 L36,2 L38,3 L39,6 L42,7 L40,7 L47,15 L52,23 L51,25 L46,25 L45,31 L38,27 L31,23 L27,21 L29,28 L29,32 L19,31 L2,27 L12,34 L16,38 L16,41 L6,41 L-7,36 L-18,29 L-33,18 L-44,11 L-44,10 L-39,10 L-39,8 L-27,11 L-13,15 L8,20 L15,21 L7,8 L0,1 Z " fill="#090504" transform="translate(295,90)"/>
<path d="M0,0 L5,1 L19,8 L36,18 L52,28 L57,31 L61,32 L70,32 L84,25 L98,15 L110,8 L111,8 L110,21 L109,18 L93,30 L76,42 L65,47 L53,47 L43,43 L32,35 L24,27 L14,20 L5,14 L3,12 L1,15 Z " fill="#C99461" transform="translate(213,261)"/>
<path d="M0,0 L1,4 L2,6 L-2,7 L-2,50 L-6,70 L-9,80 L-12,76 L-18,65 L-21,61 L-21,59 L-23,59 L-23,57 L-25,57 L-30,52 L-30,50 L-32,50 L-32,48 L-37,46 L-38,39 L-35,29 L-22,22 L-9,12 L-2,4 Z " fill="#C3BDA4" transform="translate(379,236)"/>
<path d="M0,0 L4,2 L9,0 L11,2 L11,32 L10,48 L6,68 L-3,95 L-12,114 L-15,118 L-15,113 L-16,110 L-23,110 L-24,108 L-16,92 L-8,70 L-3,46 L-1,30 Z " fill="#0C0A09" transform="translate(401,248)"/>
<path d="M0,0 L2,0 L2,2 L6,3 L11,1 L11,3 L14,2 L15,0 L19,0 L19,2 L8,10 L6,10 L6,12 L-7,20 L-21,27 L-37,33 L-56,37 L-90,37 L-92,36 L-93,31 L-99,29 L-100,25 L-66,25 L-41,20 L-23,13 L-6,4 Z " fill="#100D0C" transform="translate(332,408)"/>
<path d="M0,0 L2,3 L2,19 L-2,29 L-9,39 L-16,45 L-15,52 L-11,67 L-11,82 L-14,90 L-17,92 L-20,95 L-22,95 L-23,86 L-25,86 L-24,73 L-21,75 L-21,68 L-26,55 L-29,50 L-28,48 L-26,50 L-28,16 L-29,8 L-25,7 L-21,3 L-14,4 L-13,9 L-15,9 L-18,18 L-18,26 L-19,32 L-14,27 L-9,17 L-7,5 L-5,5 L-5,3 Z " fill="#090606" transform="translate(387,144)"/>
<path d="M0,0 L5,5 L8,7 L8,9 L2,11 L-8,18 L-15,20 L-23,40 L-29,52 L-35,59 L-42,62 L-52,62 L-60,57 L-66,50 L-72,38 L-77,23 L-75,22 L-72,32 L-69,33 L-68,30 L-65,29 L-64,26 L-67,26 L-67,24 L-60,25 L-60,26 L-51,26 L-54,24 L-54,20 L-55,17 L-52,16 L-51,19 L-45,22 L-39,24 L-34,23 L-28,23 L-24,21 L-23,16 L-25,13 L-24,10 L-26,10 L-26,8 L-31,7 L-30,3 L-27,4 L-25,6 L-21,8 L-15,11 L-6,10 L-2,7 Z M-60,28 L-65,31 L-64,38 L-58,49 L-52,54 L-42,55 L-36,52 L-32,47 L-31,45 L-31,38 L-33,33 L-44,34 L-50,29 L-52,28 Z " fill="#0D0706" transform="translate(328,210)"/>
<path d="M0,0 L6,2 L1,12 L-9,31 L-12,40 L-5,36 L7,36 L14,38 L21,44 L20,46 L16,44 L16,41 L14,43 L12,48 L9,48 L5,46 L-2,46 L-8,50 L-13,60 L-14,67 L-16,67 L-22,42 L-26,22 L-28,11 L-29,9 L-33,9 L-32,6 L-27,6 L-27,4 L-24,4 L-24,6 L-20,6 L-19,12 L-19,15 L-17,15 L-17,19 L-15,19 L-14,13 L-11,11 L-7,8 L-6,2 Z " fill="#090707" transform="translate(140,181)"/>
<path d="M0,0 L2,1 L2,3 L4,3 L5,1 L7,6 L13,7 L13,5 L19,6 L20,9 L28,16 L28,19 L24,24 L19,24 L20,29 L22,29 L26,38 L30,49 L34,57 L34,59 L30,59 L29,53 L27,54 L25,58 L25,51 L20,51 L20,48 L15,47 L6,41 L-3,30 L-9,18 L-5,20 L-2,12 L-1,12 Z " fill="#D6883F" transform="translate(113,253)"/>
<path d="M0,0 L15,0 L38,5 L51,9 L60,11 L67,15 L68,19 L61,19 L32,12 L14,6 L14,8 L0,9 L15,17 L26,25 L33,29 L33,31 L38,33 L34,35 L34,41 L37,47 L34,50 L32,47 L25,35 L19,30 L15,25 L10,21 L2,18 L-18,17 L-19,14 L-15,10 L-13,9 L-17,8 L-9,3 Z " fill="#9D5828" transform="translate(242,92)"/>
<path d="M0,0 L1,0 L2,6 L2,21 L0,28 L-2,31 L-2,42 L2,49 L10,56 L15,57 L11,60 L3,63 L-11,63 L-19,57 L-22,52 L-22,47 L-21,45 L-29,49 L-32,49 L-33,44 L-35,43 L-16,35 L-12,31 L-9,22 L-8,9 L-6,10 L-5,23 L-4,25 L-1,19 Z " fill="#F8F4DD" transform="translate(277,148)"/>
<path d="M0,0 L3,2 L6,3 L6,7 L12,10 L11,14 L5,14 L2,17 L-3,14 L-8,13 L-19,13 L-26,17 L-27,23 L-26,26 L-22,27 L-22,23 L-17,23 L-15,28 L-11,29 L-4,29 L-1,26 L3,27 L3,29 L6,29 L6,23 L7,23 L7,29 L9,29 L10,27 L11,29 L8,35 L0,42 L-7,42 L-11,39 L-15,41 L-21,41 L-31,32 L-34,26 L-34,14 L-28,9 L-20,5 L0,5 Z " fill="#111111" transform="translate(308,164)"/>
<path d="M0,0 L3,4 L4,9 L-3,21 L-6,26 L-5,35 L-3,40 L0,38 L6,37 L9,40 L12,38 L15,39 L6,51 L2,59 L1,65 L-4,60 L-10,51 L-15,40 L-16,53 L-18,51 L-21,41 L-21,34 L-17,21 L-7,7 L-5,1 L0,3 Z " fill="#080504" transform="translate(175,266)"/>
<path d="M0,0 L7,0 L15,7 L16,11 L20,10 L15,24 L8,50 L5,51 L3,53 L1,52 L1,49 L-2,48 L-3,46 L-6,45 L-6,43 L-8,43 L-7,37 L-10,34 L-8,31 L-10,30 L-10,33 L-14,33 L-13,36 L-16,36 L-20,29 L-19,26 L-19,28 L-16,28 L-15,26 L-14,27 L-13,20 L-15,20 L-16,22 L-17,20 L-17,7 L-14,6 L-12,7 L-11,4 L-10,17 L-6,26 L1,34 L3,35 L3,23 L5,23 L3,12 L0,6 L-5,7 L-1,1 Z " fill="#090706" transform="translate(167,127)"/>
<path d="M0,0 L2,2 L10,20 L16,42 L20,55 L19,58 L14,54 L19,64 L29,77 L33,81 L33,83 L28,82 L24,80 L23,82 L19,74 L19,72 L16,71 L15,75 L14,73 L12,74 L12,69 L15,65 L13,65 L12,62 L14,60 L11,58 L8,58 L8,60 L3,58 L2,54 L1,46 L3,41 L4,37 L0,40 L0,34 L1,34 L1,21 L-4,20 L-9,10 L-9,7 L-6,8 L-5,9 L-2,6 L0,6 Z " fill="#0A0504" transform="translate(98,268)"/>
<path d="M0,0 L4,1 L8,1 L14,8 L24,15 L37,21 L41,23 L41,24 L22,24 L32,32 L40,36 L43,37 L62,37 L75,34 L71,38 L57,39 L56,42 L50,43 L47,44 L36,45 L27,44 L26,41 L23,39 L24,37 L18,37 L10,27 L10,23 L8,22 L8,20 L11,17 L8,17 L4,13 L2,8 L-2,6 L1,3 Z " fill="#0C0706" transform="translate(116,350)"/>
<path d="M0,0 L1,0 L3,12 L9,19 L13,21 L14,23 L19,25 L20,28 L20,31 L25,30 L24,33 L27,40 L28,42 L15,42 L16,40 L11,39 L11,41 L14,41 L13,45 L10,45 L9,49 L8,47 L6,47 L3,40 L3,37 L1,37 L-7,21 L-10,17 L-23,13 L-22,11 L-12,7 Z " fill="#070503" transform="translate(250,195)"/>
<path d="M0,0 L12,0 L19,2 L22,4 L22,6 L17,5 L14,4 L2,4 L-7,7 L-13,12 L-18,21 L-18,36 L-12,46 L-6,51 L0,54 L7,56 L7,59 L9,60 L8,62 L-4,62 L-14,58 L-24,49 L-28,41 L-29,37 L-29,23 L-25,13 L-19,6 L-6,2 Z " fill="#834322" transform="translate(226,132)"/>
<path d="M0,0 L2,0 L5,15 L7,19 L7,22 L9,22 L10,19 L16,32 L16,20 L15,11 L15,0 L20,4 L26,11 L28,14 L27,21 L19,34 L11,44 L0,42 L-2,35 L-3,28 L-3,8 L-1,1 Z " fill="#803B1A" transform="translate(329,327)"/>
<path d="M0,0 L6,0 L5,2 L5,9 L-2,17 L-6,27 L-7,27 L-8,20 L-15,36 L-19,39 L-22,38 L-24,27 L-26,19 L-28,19 L-29,22 L-36,8 L-35,2 L-30,1 L-19,7 L-16,8 L-7,8 L1,6 Z " fill="#C97836" transform="translate(311,125)"/>
<path d="M0,0 L2,0 L2,3 L-4,6 L-8,8 L-10,8 L-11,14 L-10,17 L-5,18 L-3,19 L-5,14 L-1,14 L-1,16 L3,17 L-9,26 L-17,33 L-30,45 L-38,50 L-41,51 L-54,51 L-62,47 L-76,36 L-87,28 L-90,25 L-85,26 L-85,28 L-81,29 L-80,28 L-80,10 L-78,13 L-76,17 L-75,14 L-68,31 L-61,41 L-56,45 L-52,47 L-42,47 L-34,43 L-27,33 L-23,24 L-21,25 L-22,29 L-20,30 L-17,25 L-12,22 L-11,16 L-13,16 L-13,12 L-15,11 L-11,7 Z " fill="#F6F1D9" transform="translate(328,224)"/>
<path d="M0,0 L4,2 L4,4 L8,5 L9,11 L14,12 L17,13 L17,18 L18,20 L16,23 L13,16 L8,16 L6,19 L7,28 L8,34 L5,37 L-4,38 L-12,29 L-16,22 L-16,13 L-13,6 L-8,7 L-3,10 L3,10 Z " fill="#080404" transform="translate(153,233)"/>
<path d="M0,0 L5,1 L5,4 L11,2 L13,3 L13,11 L9,20 L-2,35 L-7,40 L-9,44 L-13,42 L-20,31 L-20,25 L-16,19 L-4,16 L2,11 L1,5 Z " fill="#D38744" transform="translate(158,256)"/>
<path d="M0,0 L9,0 L10,7 L11,27 L12,28 L13,41 L13,52 L11,53 L6,48 L-3,36 L-4,29 L-3,26 L-5,25 L-3,21 L1,21 L1,16 L0,16 Z " fill="#040202" transform="translate(97,205)"/>
<path d="M0,0 L7,0 L6,4 L1,10 L7,8 L4,11 L-3,15 L-12,24 L-19,35 L-23,45 L-25,60 L-31,66 L-33,65 L-29,61 L-27,42 L-26,25 L-25,19 L-20,17 L-14,9 L-11,7 L-11,13 L-1,2 Z " fill="#CB945B" transform="translate(213,114)"/>
<path d="M0,0 L4,1 L6,6 L10,29 L15,51 L14,54 L12,54 L12,56 L10,56 L10,65 L8,63 L4,48 L2,47 L0,31 L-2,12 L-2,2 Z " fill="#D49556" transform="translate(108,189)"/>
<path d="M0,0 L0,3 L1,11 L8,17 L10,18 L24,18 L36,13 L42,10 L45,13 L50,14 L46,15 L51,20 L58,24 L65,24 L68,21 L68,13 L73,18 L70,26 L66,29 L57,30 L49,25 L41,16 L37,18 L26,23 L19,25 L7,25 L1,21 L-4,15 L-5,12 L-5,2 Z " fill="#E7BE8D" transform="translate(256,192)"/>
<path d="M0,0 L2,2 L1,11 L6,13 L9,15 L8,17 L-1,16 L-3,21 L-4,30 L-8,44 L-10,54 L-10,62 L-6,58 L-6,88 L-8,86 L-9,65 L-14,64 L-14,81 L-12,86 L-12,91 L-13,88 L-15,88 L-16,83 L-16,55 L-13,38 L-9,21 L-10,20 L-14,22 L-13,15 L-11,11 L-6,13 L-3,10 L-4,7 L-3,1 L1,5 L-1,1 Z " fill="#160F0D" transform="translate(333,272)"/>
<path d="M0,0 L7,0 L14,3 L20,8 L26,18 L29,29 L29,44 L27,47 L27,26 L23,27 L18,18 L11,12 L6,10 L-1,10 L-9,14 L-14,20 L-18,30 L-20,29 L-18,18 L-11,6 L-4,1 Z " fill="#A05E31" transform="translate(324,138)"/>
<path d="M0,0 L3,3 L4,7 L5,5 L7,5 L11,16 L12,24 L14,25 L15,23 L18,20 L25,5 L26,5 L26,19 L25,29 L29,28 L29,31 L10,31 L2,35 L0,35 L0,15 L-2,2 L0,2 Z " fill="#70482E" transform="translate(278,139)"/>
<path d="M0,0 L3,4 L8,17 L12,27 L14,35 L14,44 L12,42 L9,45 L6,45 L6,52 L8,52 L8,58 L6,58 L3,46 L-3,25 L-6,15 L-2,13 L-1,8 L2,7 L2,5 L0,5 Z " fill="#161413" transform="translate(393,180)"/>
<path d="M0,0 L2,4 L4,15 L-3,25 L-8,30 L-7,37 L-4,51 L-4,61 L-6,61 L-9,58 L-12,60 L-14,43 L-18,30 L-17,25 L-9,18 L-3,9 Z " fill="#F5F7F5" transform="translate(388,163)"/>
<path d="M0,0 L4,0 L4,5 L10,4 L12,6 L13,12 L11,13 L10,17 L13,17 L13,22 L15,22 L14,27 L16,28 L12,27 L4,13 L-1,11 L4,26 L4,29 L-5,28 L-7,32 L-11,21 L-12,18 L-12,7 L-8,3 L-4,4 L-6,4 L-5,7 L-2,4 L0,3 Z " fill="#110D0C" transform="translate(79,209)"/>
<path d="M0,0 L1,2 L6,1 L7,10 L5,16 L9,15 L9,17 L18,15 L18,18 L13,19 L12,26 L10,26 L9,30 L8,26 L5,26 L9,41 L10,45 L9,48 L7,48 L4,41 L2,32 L2,26 L-4,31 L-7,34 L-7,25 L-2,3 Z " fill="#BA6D2B" transform="translate(329,301)"/>
<path d="M0,0 L11,0 L19,4 L25,12 L27,16 L27,26 L21,35 L16,38 L14,37 L19,32 L22,26 L22,15 L16,15 L14,13 L14,8 L9,6 L1,6 L-5,10 L-9,15 L-10,17 L-10,26 L-6,35 L-10,33 L-14,28 L-16,24 L-16,16 L-11,6 L-3,1 Z " fill="#E4F3F4" transform="translate(229,147)"/>
<path d="M0,0 L8,0 L14,3 L14,8 L19,11 L19,19 L17,23 L11,25 L4,25 L3,21 L4,14 L-1,13 L-4,16 L-6,19 L-8,16 L-8,8 L-4,2 Z " fill="#050808" transform="translate(230,152)"/>
<path d="M0,0 L9,0 L12,1 L11,3 L7,2 L7,4 L12,5 L16,7 L16,9 L20,10 L20,13 L15,11 L10,9 L-2,9 L-10,14 L-15,22 L-15,38 L-19,38 L-22,32 L-22,17 L-16,7 L-12,4 Z " fill="#070808" transform="translate(229,136)"/>
<path d="M0,0 L7,1 L20,9 L33,15 L36,16 L35,19 L21,19 L14,18 L11,18 L-3,9 L-10,3 L-10,2 Z " fill="#A28C70" transform="translate(177,398)"/>
<path d="M0,0 L3,0 L4,7 L4,15 L6,24 L15,23 L19,22 L19,24 L2,32 L-10,36 L-17,35 L-21,33 L-15,31 L-16,28 L-14,28 L-14,26 L-8,24 L-8,29 L-3,29 L-2,25 L-2,14 L-4,14 L-8,22 L-9,22 L-9,15 L-7,9 L-2,9 L-1,6 Z " fill="#070403" transform="translate(296,382)"/>
<path d="M0,0 L1,0 L2,11 L7,8 L9,8 L14,18 L21,26 L23,28 L15,28 L15,31 L16,37 L11,35 L8,33 L8,31 L4,29 L1,26 L1,24 L-1,24 L-3,21 L-3,16 L-3,14 L-2,10 L-1,1 Z " fill="#0F0D0C" transform="translate(165,206)"/>
<path d="M0,0 L3,2 L2,7 L7,9 L7,7 L11,6 L14,10 L12,12 L12,14 L14,14 L12,20 L14,22 L15,20 L19,21 L20,26 L22,29 L21,33 L17,31 L17,33 L19,34 L16,37 L21,42 L24,46 L27,46 L29,49 L25,51 L25,53 L28,54 L26,56 L16,43 L10,31 L5,21 L1,9 Z " fill="#202121" transform="translate(99,319)"/>
<path d="M0,0 L6,0 L9,7 L9,12 L11,12 L11,24 L7,34 L1,39 L-16,46 L-24,47 L-25,42 L-10,40 L-1,32 L3,22 L3,11 L-1,1 Z " fill="#834322" transform="translate(258,146)"/>
<path d="M0,0 L6,0 L17,7 L17,8 L11,8 L5,4 L1,4 L-1,10 L-1,19 L6,30 L10,34 L18,34 L15,37 L3,40 L0,45 L0,53 L-3,50 L-4,46 L-6,46 L-8,40 L-2,41 L0,37 L2,34 L-3,30 L-7,20 L-7,11 L-3,3 Z " fill="#8F4C21" transform="translate(139,236)"/>
<path d="M0,0 L2,1 L0,5 L4,5 L8,14 L8,22 L6,22 L7,24 L7,32 L6,34 L2,32 L-5,24 L-8,16 L-8,3 L-1,3 Z " fill="#77381D" transform="translate(164,128)"/>
<path d="M0,0 L11,0 L21,4 L27,11 L30,16 L29,18 L19,12 L12,10 L-3,10 L-17,15 L-19,15 L-17,11 L-10,4 Z " fill="#130C08" transform="translate(233,109)"/>
<path d="M0,0 L3,1 L-3,5 L8,6 L8,7 L1,8 L1,10 L10,11 L12,16 L-4,18 L-7,19 L-12,18 L-30,18 L-26,16 L-8,14 L-27,13 L-22,9 L-6,2 Z " fill="#CB8B4E" transform="translate(268,72)"/>
<path d="M0,0 L12,0 L21,4 L29,11 L34,22 L34,33 L30,43 L26,45 L24,43 L27,38 L27,28 L25,21 L21,15 L20,11 L17,10 L17,8 L8,5 L8,3 L13,2 L1,2 L-10,5 L-7,2 Z " fill="#0F0A08" transform="translate(228,135)"/>
<path d="M0,0 L2,1 L8,19 L7,23 L-2,12 L-2,22 L-1,31 L-1,45 L-3,43 L-10,26 L-13,16 L-13,11 L-10,11 L-9,14 L-8,11 L-6,11 L-5,4 L0,3 Z " fill="#C57735" transform="translate(347,316)"/>
<path d="M0,0 L4,0 L6,4 L8,12 L10,27 L10,61 L9,67 L8,67 L8,30 L5,30 L1,31 L-1,29 L-3,30 L-4,18 L-2,18 L-2,12 L-4,12 L-4,5 L-1,5 L0,3 Z " fill="#242524" transform="translate(403,220)"/>
<path d="M0,0 L2,0 L2,5 L-1,6 L-2,9 L-5,10 L-7,14 L-7,20 L-4,22 L-15,30 L-20,30 L-23,31 L-28,31 L-25,14 L-24,7 L-22,4 L-18,3 L-15,1 L-13,3 L-17,8 L-18,11 L-18,23 L-14,19 L-8,10 L-3,5 L0,1 Z " fill="#0F0804" transform="translate(332,375)"/>
<path d="M0,0 L3,0 L3,24 L-1,31 L-5,36 L-12,39 L-21,39 L-22,34 L-22,30 L-12,28 L-5,22 L-1,12 L-1,1 Z " fill="#804222" transform="translate(348,164)"/>
<path d="M0,0 L2,0 L2,10 L6,17 L10,22 L13,23 L14,20 L21,28 L32,37 L40,43 L37,43 L21,35 L6,27 L1,23 L-4,15 L-4,3 Z " fill="#F8CF99" transform="translate(194,203)"/>
<path d="M0,0 L7,0 L15,4 L22,12 L25,21 L25,29 L21,39 L19,40 L20,29 L17,21 L14,15 L8,10 L6,7 L-3,6 L-7,7 L-8,9 L-12,8 L-5,2 Z " fill="#0C0705" transform="translate(323,147)"/>
<path d="M0,0 L5,0 L6,4 L4,4 L5,11 L3,15 L1,15 L1,18 L-3,18 L-3,31 L0,31 L0,38 L-3,39 L-6,39 L-6,37 L-8,37 L-10,29 L-10,16 L-7,6 L-2,2 Z " fill="#161616" transform="translate(154,116)"/>
<path d="M0,0 L13,0 L31,12 L46,23 L60,29 L72,31 L69,33 L66,34 L57,34 L48,30 L37,23 L37,21 L32,19 L20,11 L12,6 L4,2 Z " fill="#945025" transform="translate(238,100)"/>
<path d="M0,0 L4,2 L11,9 L11,11 L13,11 L19,20 L24,32 L24,34 L22,34 L20,36 L21,28 L16,29 L13,31 L11,35 L9,36 L5,26 L6,23 L11,27 L4,17 L0,13 L1,10 L3,8 L3,4 L0,4 Z " fill="#1D1917" transform="translate(342,289)"/>
<path d="M0,0 L2,1 L0,4 L2,4 L2,7 L8,10 L8,12 L4,11 L3,14 L1,14 L1,16 L-5,21 L-9,25 L-11,20 L-15,27 L-19,25 L-21,21 L-19,20 L-18,15 L-16,15 L-16,13 L-14,13 L-14,11 L-5,4 L-3,4 L-3,2 Z " fill="#1F1E1E" transform="translate(238,63)"/>
<path d="M0,0 L8,0 L14,4 L18,9 L18,11 L20,11 L20,13 L16,12 L8,7 L2,7 L-2,12 L-4,17 L-4,26 L-2,33 L-5,32 L-5,29 L-8,30 L-8,28 L-11,28 L-11,30 L-17,29 L-18,23 L-17,20 L-14,20 L-14,23 L-15,24 L-10,26 L-10,16 L-7,7 L-3,2 Z " fill="#D6904F" transform="translate(137,230)"/>
<path d="M0,0 L1,2 L0,4 L2,4 L2,6 L4,6 L2,16 L2,25 L7,17 L11,15 L9,21 L8,33 L7,33 L7,26 L2,29 L0,29 L-2,19 L-3,29 L-5,28 L-5,25 L-8,26 L-9,24 L-9,9 L-7,3 L-2,3 L-2,1 Z " fill="#070202" transform="translate(167,188)"/>
<path d="M0,0 L2,0 L3,4 L8,3 L9,6 L1,10 L18,11 L20,13 L0,15 L-10,19 L-17,24 L-20,27 L-22,24 L-21,18 L-15,8 L-13,11 L-12,13 L-5,5 L-1,4 Z M-16,12 L-16,17 L-14,15 L-14,12 Z M9,3 Z " fill="#F4F1E8" transform="translate(242,74)"/>
<path d="M0,0 L6,2 L10,6 L13,17 L12,22 L1,31 L-4,37 L-6,37 L-8,42 L-9,47 L-9,49 L-7,50 L-11,54 L-14,45 L-14,39 L-8,29 L-4,25 L-3,26 L-2,23 L0,23 L2,26 L4,26 L5,22 L7,22 L6,18 L8,17 L7,10 L4,6 L4,4 L2,4 Z " fill="#D0CCB9" transform="translate(182,253)"/>
<path d="M0,0 L8,0 L17,6 L21,13 L21,24 L18,30 L13,34 L6,35 L11,31 L15,25 L15,16 L14,14 L7,13 L6,8 L6,6 L4,5 L-3,5 L-8,7 L-3,2 Z " fill="#E8F5F6" transform="translate(320,157)"/>
<path d="M0,0 L7,2 L20,12 L25,19 L23,20 L-2,11 L-17,7 L-15,5 L-1,3 Z " fill="#CF8641" transform="translate(279,84)"/>
<path d="M0,0 L7,0 L10,2 L10,8 L15,10 L15,18 L13,21 L3,23 L1,24 L0,26 L-3,21 L-6,19 L-4,16 L2,16 L2,9 L-2,10 L-3,8 L0,2 Z " fill="#050707" transform="translate(317,161)"/>
<path d="M0,0 L2,1 L3,5 L6,5 L6,8 L0,12 L-1,14 L-3,14 L-4,19 L-8,18 L-7,22 L-11,22 L-13,26 L-15,25 L-15,23 L-21,26 L-25,22 L-20,17 L-6,5 L-1,4 Z " fill="#040303" transform="translate(358,386)"/>
<path d="M0,0 L2,0 L9,10 L11,11 L13,6 L18,1 L19,3 L17,11 L17,18 L20,28 L22,25 L23,30 L23,37 L16,31 L6,18 L1,6 Z " fill="#8E491F" transform="translate(138,289)"/>
<path d="M0,0 L9,0 L14,3 L16,5 L17,5 L17,13 L13,24 L7,32 L5,32 L5,18 L8,9 L10,8 L10,5 L3,4 L-2,9 L-6,10 L-5,5 Z " fill="#783C20" transform="translate(363,144)"/>
<path d="M0,0 L4,4 L17,26 L25,40 L32,48 L42,54 L45,55 L45,58 L36,56 L30,53 L20,44 L6,14 L0,2 Z " fill="#B1692D" transform="translate(88,246)"/>
<path d="M0,0 L9,0 L14,3 L18,10 L21,23 L19,23 L19,19 L17,19 L16,10 L12,10 L12,8 L9,8 L9,10 L4,11 L2,18 L-3,16 L-4,24 L-6,23 L-7,12 L-5,7 L-4,2 Z " fill="#1B1C1C" transform="translate(104,177)"/>
<path d="M0,0 L5,1 L5,3 L7,3 L7,6 L8,4 L13,2 L22,2 L22,4 L24,5 L29,9 L29,7 L32,6 L33,10 L31,10 L30,12 L24,11 L14,12 L9,17 L7,20 L-1,4 Z " fill="#080504" transform="translate(349,127)"/>
<path d="M0,0 L9,1 L14,2 L24,2 L27,6 L28,12 L25,12 L24,10 L20,11 L18,13 L11,13 L6,11 L5,6 L0,6 L0,10 L-5,9 L-5,6 L-3,5 Z " fill="#6F472D" transform="translate(286,181)"/>
<path d="M0,0 L1,0 L1,18 L-1,37 L-6,39 L-12,44 L-11,36 L-3,6 Z " fill="#7D3E1E" transform="translate(186,138)"/>
<path d="M0,0 L5,0 L6,2 L6,11 L1,20 L-4,24 L-17,24 L-22,22 L-23,18 L-24,14 L-23,8 L-19,12 L-16,15 L-14,16 L-5,16 L0,13 L2,9 L3,1 Z " fill="#27989D" transform="translate(246,162)"/>
<path d="M0,0 L8,0 L14,3 L20,10 L18,10 L18,12 L24,12 L23,18 L20,18 L20,20 L14,20 L14,18 L11,17 L11,15 L8,16 L8,14 L6,14 L6,11 L12,11 L12,9 L5,8 L3,7 L2,10 L0,7 L-2,1 Z " fill="#EF666F" transform="translate(268,243)"/>
<path d="M0,0 L14,1 L16,2 L14,6 L12,8 L12,13 L7,12 L7,15 L7,18 L-9,18 L-6,17 L-6,15 L-3,15 L-3,13 L0,13 L-1,9 L0,6 L-9,7 L-9,4 L-1,3 L-2,1 Z " fill="#1A1817" transform="translate(289,60)"/>
<path d="M0,0 L5,0 L7,8 L5,8 L5,11 L3,11 L3,13 L1,13 L1,17 L-5,18 L-8,17 L-6,19 L-6,22 L-9,22 L-10,24 L-10,22 L-12,21 L-13,17 L-14,23 L-15,21 L-19,22 L-13,15 L-3,2 Z " fill="#080504" transform="translate(371,369)"/>
<path d="M0,0 L4,2 L9,9 L6,9 L6,7 L3,7 L2,9 L-14,15 L-22,19 L-25,19 L-27,13 L-32,11 L-32,10 L-16,8 L-4,3 Z " fill="#0E0906" transform="translate(295,207)"/>
<path d="M0,0 L3,1 L-10,8 L-14,9 L-2,13 L2,18 L9,32 L11,40 L11,47 L9,44 L2,28 L-3,20 L-10,15 L-26,10 L-22,8 L-4,2 Z " fill="#CBA479" transform="translate(242,198)"/>
<path d="M0,0 L2,0 L3,2 L7,2 L16,14 L21,19 L22,24 L19,31 L14,27 L2,7 L0,4 Z " fill="#DE9451" transform="translate(89,243)"/>
<path d="M0,0 L3,1 L2,5 L2,26 L1,26 L0,12 L-2,16 L-4,9 L-10,22 L-11,26 L-19,30 L-21,31 L-20,26 L-9,3 L-6,4 L-6,7 L-3,6 L-1,1 Z " fill="#BEB49C" transform="translate(148,191)"/>
<path d="M0,0 L9,0 L14,1 L14,3 L23,4 L23,6 L25,8 L24,12 L21,13 L9,10 L2,10 L-5,13 L-6,11 L-4,11 L-2,6 L-3,3 L0,3 L-2,1 Z " fill="#030403" transform="translate(168,108)"/>
<path d="M0,0 L7,2 L10,14 L10,25 L9,28 L6,29 L5,25 L1,24 L0,23 L-1,8 L-1,4 Z " fill="#0D0C0B" transform="translate(171,244)"/>
<path d="M0,0 L3,4 L3,6 L7,7 L-2,13 L-11,19 L-16,23 L-23,32 L-25,30 L-30,36 L-31,33 L-27,27 L-18,17 L-7,9 L-2,6 Z " fill="#F5F0E6" transform="translate(219,96)"/>
<path d="M0,0 L4,1 L3,15 L-1,26 L-3,30 L-3,27 L-8,26 L-9,22 L-9,15 L-7,10 L-5,10 L-3,2 Z " fill="#B86A2B" transform="translate(196,310)"/>
<path d="M0,0 L4,4 L9,12 L11,29 L12,52 L7,50 L6,48 L5,20 L0,2 Z " fill="#995C35" transform="translate(350,143)"/>
<path d="M0,0 L2,0 L2,2 L-10,3 L0,5 L16,11 L22,15 L19,16 L4,10 L-7,7 L-13,7 L-3,15 L4,23 L5,27 L0,22 L-5,16 L-16,8 L-28,4 L-33,3 L-33,2 Z " fill="#E7CDAF" transform="translate(302,79)"/>
<path d="M0,0 L17,0 L26,4 L28,6 L25,9 L20,8 L13,6 L1,6 L-13,11 L-17,10 L-9,4 Z " fill="#BC7D41" transform="translate(225,127)"/>
<path d="M0,0 L2,1 L1,6 L11,4 L21,3 L21,6 L23,6 L23,8 L17,10 L17,13 L7,16 L6,13 L10,13 L7,11 L-2,12 L-4,10 L-4,8 L-8,6 L-5,3 Z " fill="#1A1A1B" transform="translate(247,58)"/>
<path d="M0,0 L9,0 L9,3 L4,7 L-3,17 L-8,24 L-10,23 L-10,11 L-6,4 L-3,1 Z " fill="#CB9B6E" transform="translate(323,375)"/>
<path d="M0,0 L5,4 L5,6 L7,6 L12,14 L12,19 L9,20 L10,24 L8,24 L7,28 L5,28 L4,30 L3,25 L1,25 L0,29 L-2,26 L1,18 L1,7 Z " fill="#C2BA9F" transform="translate(179,251)"/>
<path d="M0,0 L7,6 L8,10 L4,16 L-1,15 L-3,14 L-4,16 L-8,17 L-10,23 L-14,27 L-16,27 L-14,21 L-8,12 L-4,5 Z " fill="#303130" transform="translate(143,167)"/>
<path d="M0,0 L4,0 L8,1 L7,3 L7,5 L9,7 L3,11 L1,11 L1,13 L-3,16 L-8,17 L-10,18 L-12,17 L-13,19 L-15,17 L-14,13 L-10,12 L-13,11 L-11,9 L-8,9 L-8,7 L-2,2 L0,2 Z " fill="#13100F" transform="translate(195,282)"/>
<path d="M0,0 L2,1 L2,3 L8,5 L6,9 L-2,16 L-10,26 L-13,23 L-17,17 L-9,18 L-7,16 L-7,14 L-9,12 L-7,6 L-3,4 Z " fill="#050505" transform="translate(199,102)"/>
<path d="M0,0 L7,1 L15,1 L15,8 L12,8 L12,10 L9,10 L9,12 L6,13 L-10,13 L-6,9 L1,5 L-2,3 Z " fill="#060404" transform="translate(274,65)"/>
<path d="M0,0 L9,0 L17,5 L21,13 L21,15 L17,13 L7,8 L-3,8 L-8,9 L-6,4 Z " fill="#100D08" transform="translate(326,123)"/>
<path d="M0,0 L8,0 L14,4 L16,6 L27,5 L29,12 L22,13 L18,13 L11,7 L8,6 L0,6 L-5,7 L-4,2 Z " fill="#B2384D" transform="translate(268,238)"/>
<path d="M0,0 L1,0 L3,7 L2,9 L2,13 L4,13 L4,15 L0,15 L0,20 L-5,19 L-6,22 L-6,18 L-8,18 L-9,21 L-12,18 L-12,20 L-14,19 L-13,17 L-15,16 L-3,5 Z " fill="#090605" transform="translate(358,231)"/>
<path d="M0,0 L3,0 L2,11 L1,14 L-9,14 L-13,11 L-14,6 L-5,2 Z " fill="#DDE4E5" transform="translate(289,218)"/>
<path d="M0,0 L2,0 L2,2 L5,3 L5,9 L3,14 L1,22 L-1,21 L0,17 L-2,17 L-5,22 L-9,24 L-8,20 L-10,20 L-8,14 L0,2 Z " fill="#C4BBA5" transform="translate(150,175)"/>
<path d="M0,0 L3,1 L2,2 L-1,21 L-3,26 L-5,26 L-8,17 L-8,9 L-4,2 Z " fill="#C2936A" transform="translate(307,380)"/>
<path d="M0,0 L1,0 L3,6 L16,17 L18,23 L11,24 L10,26 L8,25 L8,23 L3,25 L4,21 L5,14 L5,9 L0,10 L-1,5 Z " fill="#C57E3C" transform="translate(330,293)"/>
<path d="M0,0 L2,4 L3,7 L9,1 L11,1 L9,5 L2,16 L0,20 L-3,20 L-3,18 L-5,18 L-5,15 L-7,15 L-7,17 L-11,16 L-10,14 L-6,11 L-7,5 L-2,5 Z " fill="#0D0504" transform="translate(172,174)"/>
<path d="M0,0 L8,0 L8,2 L6,2 L8,6 L5,8 L8,11 L-1,12 L-2,11 L-2,6 L-14,6 L-14,4 L-28,3 L-28,2 L-6,1 Z " fill="#0E0805" transform="translate(274,408)"/>
<path d="M0,0 L2,1 L0,4 L0,6 L2,7 L2,5 L6,7 L9,9 L1,14 L-5,12 L-8,9 L-10,13 L-15,14 L-17,17 L-14,18 L-24,19 L-24,17 L-26,17 L-25,15 L-20,16 L-12,8 L-5,3 L-2,3 L-2,1 Z " fill="#313132" transform="translate(208,94)"/>
<path d="M0,0 L10,1 L11,10 L13,10 L13,15 L15,15 L14,20 L12,20 L12,22 L7,22 L8,16 L10,16 L6,12 L2,8 L-1,7 L-1,1 Z " fill="#040405" transform="translate(74,236)"/>
<path d="M0,0 L3,4 L5,3 L5,18 L7,19 L-7,18 L-6,11 L-1,1 Z " fill="#A19276" transform="translate(144,199)"/>
<path d="M0,0 L7,0 L12,4 L14,9 L16,9 L17,16 L15,16 L14,14 L10,13 L11,17 L7,15 L1,8 L0,4 L2,1 Z " fill="#101010" transform="translate(339,114)"/>
<path d="M0,0 L9,1 L12,3 L-2,3 L-2,6 L-5,5 L-5,7 L-2,8 L-4,10 L-6,11 L-8,16 L-11,19 L-12,12 L-11,10 L-15,12 L-21,14 L-19,10 L-12,4 L-5,1 Z " fill="#323232" transform="translate(170,106)"/>
<path d="M0,0 L3,4 L14,27 L14,29 L11,29 L8,26 L7,21 L4,28 L8,30 L6,35 L3,35 L0,28 L1,21 L2,17 L4,17 L5,12 L3,12 L3,7 L1,7 Z " fill="#130F0E" transform="translate(84,239)"/>
<path d="M0,0 L3,0 L3,3 L10,0 L9,3 L4,8 L-3,16 L-12,29 L-13,29 L-12,20 L-5,9 L0,3 Z M0,4 Z " fill="#ECE8E0" transform="translate(189,302)"/>
<path d="M0,0 L8,0 L25,5 L34,9 L39,10 L38,12 L24,11 L10,6 L6,5 L0,1 Z " fill="#915832" transform="translate(287,85)"/>
<path d="M0,0 L7,6 L11,9 L10,14 L5,17 L-1,17 L-3,16 L-2,7 Z " fill="#DCE0E2" transform="translate(295,217)"/>
<path d="M0,0 L4,0 L5,1 L9,1 L16,3 L13,6 L10,6 L10,8 L2,12 L-1,12 L-1,14 L-4,17 L-5,26 L-6,26 L-6,14 L-5,12 L-2,12 L-1,7 L-3,2 Z " fill="#292929" transform="translate(341,248)"/>
<path d="M0,0 L5,2 L12,10 L16,17 L17,25 L15,25 L13,16 L12,13 L5,14 L-4,6 L-4,3 Z " fill="#9D5A2F" transform="translate(252,133)"/>
<path d="M0,0 L1,2 L0,10 L4,4 L7,5 L7,16 L5,20 L0,20 L0,15 L-3,17 L-10,17 L-6,15 L-2,2 Z " fill="#523A25" transform="translate(288,391)"/>
<path d="M0,0 L6,1 L7,0 L13,0 L17,9 L17,26 L16,26 L15,10 L14,8 L12,10 L9,10 L9,12 L6,12 L1,4 L-2,1 Z " fill="#272728" transform="translate(373,137)"/>
<path d="M0,0 L11,0 L17,4 L21,8 L22,9 L27,4 L26,10 L24,12 L21,13 L20,18 L18,15 L16,10 L11,5 L8,4 L1,4 L-8,7 L-4,2 Z " fill="#C7874A" transform="translate(168,121)"/>
<path d="M0,0 L3,0 L5,3 L6,7 L7,5 L16,7 L16,9 L10,9 L10,12 L15,13 L15,15 L19,16 L18,18 L23,18 L22,20 L12,19 L6,14 L0,3 Z " fill="#E36870" transform="translate(264,245)"/>
<path d="M0,0 L4,0 L4,2 L7,4 L7,7 L16,7 L16,10 L19,12 L19,18 L21,15 L23,20 L23,22 L27,22 L29,27 L30,29 L26,27 L24,26 L24,24 L20,22 L15,18 L15,16 L13,16 L10,13 L10,11 L7,10 L0,2 Z " fill="#414240" transform="translate(136,387)"/>
<path d="M0,0 L12,0 L19,3 L24,8 L28,13 L27,17 L21,8 L13,4 L2,4 L-8,9 L-13,19 L-14,19 L-13,12 L-7,4 Z " fill="#369593" transform="translate(227,144)"/>
<path d="M0,0 L6,2 L12,7 L11,10 L7,11 L6,14 L3,12 L-1,12 L-4,16 L-12,12 L-11,10 L-9,10 L-9,12 L-3,11 L-1,5 Z " fill="#292A29" transform="translate(323,76)"/>
<path d="M0,0 L4,0 L6,4 L8,3 L9,1 L9,3 L13,1 L18,1 L15,4 L12,5 L14,11 L16,13 L16,20 L12,18 L7,11 L4,12 L2,4 Z " fill="#090908" transform="translate(311,181)"/>
<path d="M0,0 L8,0 L14,5 L16,9 L15,13 L12,8 L9,7 L0,7 L-6,14 L-7,14 L-6,6 L-2,1 Z " fill="#D8B797" transform="translate(363,138)"/>
<path d="M0,0 L7,0 L9,3 L15,3 L16,6 L14,11 L13,13 L9,15 L6,15 L6,13 L3,14 L3,10 L4,4 Z " fill="#020101" transform="translate(308,73)"/>
<path d="M0,0 L5,1 L6,6 L5,13 L17,11 L14,14 L12,15 L3,15 L-2,12 L-4,9 L-4,4 Z " fill="#778181" transform="translate(229,164)"/>
<path d="M0,0 L7,1 L9,5 L12,6 L11,13 L7,14 L-2,7 L-5,5 L-3,2 Z " fill="#070707" transform="translate(334,287)"/>
<path d="M0,0 L7,4 L10,9 L12,9 L12,11 L10,13 L9,15 L10,16 L10,20 L14,21 L11,21 L11,26 L9,22 L9,18 L5,17 L-5,12 L-7,9 L0,9 L1,9 L5,7 L4,5 L0,3 Z " fill="#2B2929" transform="translate(188,234)"/>
<path d="M0,0 L6,0 L8,3 L8,12 L3,19 L0,22 L-3,23 L-6,18 L-5,15 L2,11 L4,1 Z " fill="#2C999D" transform="translate(328,170)"/>
<path d="M0,0 L2,1 L-3,8 L-8,21 L-4,20 L-1,21 L-1,23 L-6,25 L-8,29 L-11,34 L-12,34 L-12,24 L-9,14 L-3,3 Z M-4,19 Z " fill="#DBB284" transform="translate(180,180)"/>
<path d="M0,0 L3,2 L4,5 L9,7 L16,18 L22,26 L21,28 L12,17 L12,15 L8,16 L7,13 L5,13 L4,16 L-1,7 Z " fill="#D69962" transform="translate(84,230)"/>
<path d="M0,0 L2,4 L6,5 L6,14 L8,15 L9,13 L9,17 L6,17 L7,19 L4,20 L4,23 L0,22 L-2,23 L-3,22 L-6,25 L-8,25 L-10,28 L-12,28 L-12,30 L-15,30 L-15,28 L-13,28 L-13,26 L0,17 L2,16 L1,7 Z " fill="#404041" transform="translate(199,261)"/>
<path d="M0,0 L7,0 L3,4 L-2,8 L-5,14 L-12,14 L-11,9 L-10,7 L-13,6 L-9,3 Z " fill="#E6BD8D" transform="translate(189,194)"/>
<path d="M0,0 L7,0 L12,3 L16,8 L18,12 L17,15 L11,7 L7,5 L-1,5 L-6,10 L-10,17 L-11,17 L-10,10 L-5,3 Z " fill="#ECE6DA" transform="translate(138,226)"/>
<path d="M0,0 L4,5 L12,11 L15,12 L28,12 L36,8 L40,6 L40,9 L34,14 L30,15 L16,15 L8,12 L2,8 L-2,4 Z " fill="#0F0A08" transform="translate(214,173)"/>
<path d="M0,0 L7,0 L13,3 L17,8 L18,13 L14,14 L10,8 L5,4 L-2,4 L-5,5 L-8,8 L-11,8 L-10,4 Z " fill="#944E27" transform="translate(169,124)"/>
<path d="M0,0 L11,0 L25,2 L25,3 L0,3 L-3,9 L-5,9 L-5,12 L-10,12 L-10,8 L-4,8 L-4,6 L-9,7 L-9,4 L-12,3 L-13,5 L-20,5 L-18,3 L-9,1 Z " fill="#555455" transform="translate(274,58)"/>
<path d="M0,0 L4,2 L13,8 L23,17 L27,26 L26,28 L14,15 L0,1 Z " fill="#E8C08E" transform="translate(221,277)"/>
<path d="M0,0 L2,0 L2,4 L4,4 L4,10 L0,12 L-1,14 L-3,18 L-6,19 L-8,18 L-6,7 L-2,3 Z " fill="#F9F7E2" transform="translate(313,236)"/>
<path d="M0,0 L9,1 L11,5 L15,7 L20,13 L19,15 L15,10 L8,6 L0,6 L-7,10 L-7,6 L-11,7 L-10,4 L-5,4 L-4,1 Z " fill="#214647" transform="translate(320,152)"/>
<path d="M0,0 L1,0 L3,8 L2,11 L3,12 L4,10 L9,9 L7,14 L-3,28 L-4,24 L-2,24 L-2,22 L0,22 L1,18 L0,14 L0,11 L-7,13 L-5,8 Z " fill="#292827" transform="translate(376,358)"/>
<path d="M0,0 L8,1 L9,4 L14,7 L10,13 L8,12 L8,10 L3,11 L0,9 L-2,2 Z " fill="#020203" transform="translate(180,233)"/>
<path d="M0,0 L10,0 L15,1 L12,3 L-4,4 L-15,8 L-20,11 L-21,13 L-24,12 L-19,6 L-10,1 Z " fill="#B9763F" transform="translate(246,89)"/>
<path d="M0,0 L6,4 L16,13 L23,23 L22,25 L11,14 L0,5 Z " fill="#ECE9E2" transform="translate(331,293)"/>
<path d="M0,0 L11,0 L18,2 L24,7 L25,9 L25,16 L24,16 L22,9 L16,5 L9,3 L1,3 L-4,7 L-6,11 L-9,11 L-8,5 Z " fill="#DFE0E0" transform="translate(289,176)"/>
<path d="M0,0 L5,0 L7,2 L11,3 L16,8 L16,10 L18,10 L18,12 L16,12 L15,14 L12,9 L12,7 L10,6 L9,7 L5,13 L4,13 L4,8 L-1,6 L-2,3 Z " fill="#292728" transform="translate(322,87)"/>
<path d="M0,0 L3,0 L4,9 L8,5 L11,4 L9,9 L2,17 L0,17 L0,19 L-3,20 L-3,16 L1,16 L1,14 L-1,14 L-2,9 L-2,6 L-1,2 Z " fill="#282828" transform="translate(361,230)"/>
<path d="M0,0 L11,6 L11,7 L1,9 L-4,14 L-4,17 L-7,17 L-8,10 L-12,9 L-11,15 L-15,10 L-16,8 L1,6 Z " fill="#BA7841" transform="translate(323,116)"/>
<path d="M0,0 L2,1 L1,2 L3,3 L2,6 L2,4 L-1,5 L0,9 L5,7 L7,6 L9,8 L6,11 L4,17 L0,15 L-2,13 L-7,14 L-9,13 L-3,4 Z " fill="#323233" transform="translate(182,291)"/>
<path d="M0,0 L1,0 L5,43 L6,50 L6,62 L2,60 L0,56 L3,56 L3,45 L2,32 L1,31 Z " fill="#30180B" transform="translate(106,201)"/>
<path d="M0,0 L7,0 L13,3 L17,8 L16,10 L11,6 L9,5 L-2,5 L-8,9 L-12,15 L-13,12 L-8,4 Z " fill="#E7DDCD" transform="translate(170,117)"/>
<path d="M0,0 L2,2 L2,7 L5,8 L5,10 L8,10 L9,16 L5,17 L1,21 L1,18 L-1,16 L1,11 L-4,10 L-2,9 Z " fill="#010203" transform="translate(90,258)"/>
<path d="M0,0 L5,0 L8,4 L9,12 L2,12 L1,9 L-3,8 L-2,2 Z " fill="#DBB38C" transform="translate(161,248)"/>
<path d="M0,0 L5,0 L7,4 L18,3 L20,6 L16,7 L16,9 L6,14 L6,10 L8,10 L8,8 L2,6 L1,4 L2,2 L0,2 Z " fill="#080504" transform="translate(238,65)"/>
<path d="M0,0 L2,1 L1,6 L-16,15 L-23,19 L-27,21 L-25,17 L-15,10 Z " fill="#F4D0A1" transform="translate(342,233)"/>
<path d="M0,0 L9,0 L7,4 L3,9 L1,9 L-1,13 L-10,22 L-12,22 L-13,18 L-8,17 L-8,14 L-6,14 L-4,10 L1,8 L2,3 L0,2 Z " fill="#3C3E3C" transform="translate(363,386)"/>
<path d="M0,0 L3,3 L-6,6 L-20,15 L-22,15 L-24,21 L-26,24 L-28,24 L-25,15 L-23,11 L-15,8 L-5,1 Z " fill="#BCA27F" transform="translate(336,218)"/>
<path d="M0,0 L3,1 L-2,2 L-4,6 L-6,6 L-5,8 L4,9 L1,11 L-7,15 L-9,16 L-9,14 L-15,14 L-12,8 L-4,3 L-4,1 Z " fill="#CB894B" transform="translate(229,100)"/>
<path d="M0,0 L3,0 L5,6 L9,8 L8,12 L6,11 L4,10 L-6,8 L-6,4 L-8,2 L-5,1 L-1,3 Z " fill="#060404" transform="translate(302,70)"/>
<path d="M0,0 L5,1 L10,9 L13,14 L12,16 L9,16 L7,11 L6,15 L4,15 L0,4 Z " fill="#DFBEA0" transform="translate(78,220)"/>
<path d="M0,0 L2,1 L2,7 L4,7 L4,9 L1,11 L1,17 L-2,19 L-2,17 L-5,16 L-7,10 Z " fill="#080807" transform="translate(391,178)"/>
<path d="M0,0 L8,1 L8,3 L10,4 L8,10 L3,12 L4,16 L0,12 L0,8 Z " fill="#030303" transform="translate(377,357)"/>
<path d="M0,0 L4,1 L5,15 L5,17 L7,17 L8,22 L5,26 L4,31 L3,31 L2,26 Z " fill="#343433" transform="translate(95,288)"/>
<path d="M0,0 L3,0 L2,5 L1,15 L-5,14 L-5,12 L-4,11 L-6,10 L-7,15 L-8,15 L-8,4 L-6,4 L-6,2 L-3,1 L-2,7 L0,7 Z " fill="#DEA269" transform="translate(126,241)"/>
<path d="M0,0 L5,4 L6,3 L20,3 L28,8 L30,12 L27,12 L25,9 L23,9 L23,11 L18,9 L16,7 L16,4 L7,5 L3,8 L1,8 Z " fill="#4C4C4C" transform="translate(355,125)"/>
<path d="M0,0 L2,0 L3,5 L2,12 L-3,12 L-6,9 L-6,11 L-10,10 L-8,10 L-9,6 L-4,4 L-4,2 Z " fill="#040405" transform="translate(216,90)"/>
<path d="M0,0 L6,1 L4,3 L10,5 L9,10 L38,11 L38,12 L6,12 L0,9 L4,8 L4,6 L2,5 L-1,1 Z " fill="#292928" transform="translate(231,434)"/>
<path d="M0,0 L2,2 L6,17 L6,21 L4,21 L3,19 L2,31 L0,30 L0,16 L-1,9 L-1,1 Z " fill="#B56B2D" transform="translate(111,235)"/>
<path d="M0,0 L1,3 L-9,14 L-14,19 L-13,10 L-2,1 Z " fill="#F2B778" transform="translate(215,109)"/>
<path d="M0,0 L4,2 L4,4 L8,3 L10,9 L8,9 L7,15 L10,14 L12,15 L10,22 L8,20 L2,8 L0,3 Z " fill="#313232" transform="translate(74,243)"/>
<path d="M0,0 L2,0 L1,7 L0,10 L1,23 L0,27 L-1,37 L-2,37 L-3,27 L-3,9 Z " fill="#4A4A49" transform="translate(98,181)"/>
<path d="M0,0 L8,0 L4,3 L-10,7 L-16,10 L-21,8 L-17,5 Z M-18,8 Z " fill="#E0DDD6" transform="translate(269,69)"/>
<path d="M0,0 L17,0 L16,4 L8,5 L8,7 L2,5 L0,9 L-3,9 L-3,7 L-1,5 Z " fill="#010102" transform="translate(272,60)"/>
<path d="M0,0 L7,2 L16,9 L16,13 L12,12 L2,6 L0,3 Z " fill="#FAF7E4" transform="translate(322,111)"/>
<path d="M0,0 L2,1 L4,8 L3,15 L1,21 L-4,25 L-13,26 L-12,24 L-4,20 L-1,16 L0,13 Z " fill="#090908" transform="translate(340,168)"/>
<path d="M0,0 L0,3 L0,23 L2,24 L2,26 L0,26 L-5,16 L-5,7 L-1,1 Z " fill="#3CA6AA" transform="translate(223,157)"/>
<path d="M0,0 L15,0 L17,1 L17,3 L2,3 L2,5 L10,5 L10,6 L-16,6 L-16,5 L-1,4 Z " fill="#AEA78E" transform="translate(256,428)"/>
<path d="M0,0 L18,4 L26,6 L26,7 L21,8 L10,8 L0,1 Z " fill="#7C4425" transform="translate(296,116)"/>
<path d="M0,0 L7,0 L6,7 L1,13 L-3,14 L-2,11 L1,11 L0,7 L2,7 L2,5 L-2,6 L-4,5 L-4,3 Z " fill="#E36870" transform="translate(290,250)"/>
<path d="M0,0 L1,3 L5,6 L3,9 L-6,7 L-18,4 L-18,3 L-4,3 L-4,1 L0,2 Z " fill="#080504" transform="translate(308,78)"/>
<path d="M0,0 L9,0 L13,2 L13,4 L15,4 L14,6 L8,6 L8,4 L6,3 L8,3 L8,1 L4,2 L4,5 L0,6 L-1,9 L-2,5 L-4,4 L-6,8 L-7,6 L-3,1 Z " fill="#454545" transform="translate(75,208)"/>
<path d="M0,0 L8,0 L19,4 L19,6 L10,6 L-3,3 Z " fill="#7F8180" transform="translate(290,178)"/>
<path d="M0,0 L1,2 L0,6 L4,5 L5,7 L2,13 L4,12 L6,13 L6,16 L0,14 L0,10 L-4,9 L-5,13 L-6,13 L-6,6 L-4,2 Z " fill="#0B0906" transform="translate(313,157)"/>
<path d="M0,0 L14,7 L15,15 L10,14 L8,10 L6,9 L6,7 L2,5 Z " fill="#AF6228" transform="translate(139,332)"/>
<path d="M0,0 L6,1 L9,2 L9,4 L11,4 L10,8 L3,2 L-1,17 L-3,17 L-4,19 L-10,17 L-10,16 L-3,16 L-2,1 Z " fill="#19191C" transform="translate(293,216)"/>
<path d="M0,0 L1,2 L5,3 L5,13 L1,14 L-3,12 L-1,1 Z " fill="#020202" transform="translate(101,192)"/>
<path d="M0,0 L11,1 L31,7 L38,10 L35,11 L30,9 L14,5 L-1,2 Z " fill="#AB602A" transform="translate(258,91)"/>
<path d="M0,0 L10,1 L22,6 L18,8 L14,6 L14,4 L8,5 L14,8 L13,11 L9,13 L8,8 L6,7 L6,5 L4,4 L4,1 L0,2 Z " fill="#3D3D3D" transform="translate(301,69)"/>
<path d="M0,0 L1,2 L3,3 L-4,6 L-7,10 L-8,5 L-11,5 L-11,13 L-13,15 L-18,14 L-15,11 L-11,3 L-8,1 L-1,3 Z " fill="#0F0905" transform="translate(307,377)"/>
<path d="M0,0 L1,2 L7,2 L13,5 L14,8 L9,7 L8,11 L8,9 L5,10 L5,8 L0,7 L-1,1 Z " fill="#0E0D0C" transform="translate(162,237)"/>
<path d="M0,0 L2,0 L2,3 L7,5 L7,9 L5,9 L4,14 L-3,9 L-1,2 Z " fill="#030302" transform="translate(154,222)"/>
<path d="M0,0 L1,3 L5,4 L4,7 L1,7 L3,13 L1,16 L0,15 L-3,18 L-1,18 L-2,20 L-4,19 L-5,25 L-6,21 L-2,9 L0,4 L-2,1 Z " fill="#414241" transform="translate(164,172)"/>
<path d="M0,0 L2,1 L5,10 L11,12 L11,15 L8,14 L8,12 L4,13 L-1,11 L-4,9 L-4,6 L-2,6 L-2,4 L0,4 Z " fill="#363536" transform="translate(161,227)"/>
<path d="M0,0 L2,0 L6,8 L9,4 L8,12 L4,12 L3,16 L2,12 L-1,12 L0,7 L1,6 L-1,4 L1,4 Z " fill="#30302F" transform="translate(90,214)"/>
<path d="M0,0 L1,0 L2,15 L5,16 L6,23 L7,25 L5,25 L4,28 L1,23 L-1,14 L-1,6 Z " fill="#5C5D5D" transform="translate(157,197)"/>
<path d="M0,0 L5,0 L2,3 L4,8 L2,13 L5,12 L5,15 L2,15 L-5,7 L-4,3 L0,3 Z " fill="#262827" transform="translate(157,157)"/>
<path d="M0,0 L22,0 L26,2 L9,3 L-7,3 L-5,1 Z " fill="#F9F1E4" transform="translate(276,78)"/>
<path d="M0,0 L2,3 L5,3 L-1,15 L-2,23 L-4,24 L-4,14 L-1,2 Z " fill="#F6E3CA" transform="translate(307,144)"/>
<path d="M0,0 L1,3 L-1,5 L3,10 L1,16 L-1,15 L-1,10 L-4,12 L-7,12 L-7,14 L-9,13 L-2,2 Z " fill="#363636" transform="translate(219,80)"/>
</svg>
